<svg width="20" height="20" viewBox="0 0 20 20" fill="none" xmlns="http://www.w3.org/2000/svg">
<path d="M12.9154 18.9163H12.832L12.7487 18.833V18.333V16.2497C12.7487 15.6663 12.6654 15.1663 12.4154 14.7497C14.332 14.4163 16.4154 13.4163 16.4154 9.66634C16.4154 8.66634 16.082 7.74967 15.4987 6.99967C15.6654 6.49967 15.7487 5.58301 15.332 4.41634L15.082 4.16634C15.082 4.16634 14.9154 4.08301 14.7487 4.08301C14.2487 4.08301 13.4987 4.24967 12.2487 5.08301C11.582 4.99967 10.832 4.83301 9.9987 4.83301C9.16536 4.83301 8.41536 4.91634 7.66536 5.08301C6.4987 4.33301 5.66536 4.16634 5.16536 4.16634C4.9987 4.16634 4.91536 4.24967 4.83203 4.24967C4.7487 4.24967 4.58203 4.41634 4.58203 4.49967C4.16536 5.66634 4.2487 6.58301 4.41536 7.08301C3.83203 7.83301 3.4987 8.74967 3.4987 9.74967C3.4987 13.4163 5.66536 14.4163 7.4987 14.833C7.41536 14.9997 7.33203 15.2497 7.2487 15.4997C7.08203 15.583 6.83203 15.6663 6.4987 15.6663C6.16536 15.6663 5.83203 15.583 5.58203 15.333L5.4987 15.2497C5.41536 15.1663 5.41536 15.083 5.33203 15.083L5.2487 14.9997L5.16536 14.9163C5.16536 14.833 4.4987 13.833 3.33203 13.7497C2.91536 13.7497 2.58203 13.9163 2.4987 14.1663C2.33203 14.583 2.83203 14.9163 3.08203 15.083C3.08203 15.083 3.58203 15.333 3.91536 16.2497C4.08203 16.833 4.83203 17.9163 6.58203 17.9163H7.16536V19.083L7.08203 19.1663C3.33203 17.6663 0.832031 14.1663 0.832031 10.2497C0.832031 5.16634 4.91536 1.08301 9.9987 1.08301C15.082 1.08301 19.1654 5.16634 19.1654 10.2497C19.1654 14.1663 16.6654 17.6663 12.9154 18.9163Z" fill="#91929e"/>
</svg>
