<svg xmlns="http://www.w3.org/2000/svg" xmlns:xlink="http://www.w3.org/1999/xlink" width="500" zoomAndPan="magnify" viewBox="0 0 375 374.999991" height="500" preserveAspectRatio="xMidYMid meet" version="1.0"><defs><clipPath id="2a13c046f9"><path d="M 3.980469 5.90625 L 357.980469 5.90625 L 357.980469 359.90625 L 3.980469 359.90625 Z M 3.980469 5.90625 " clip-rule="nonzero"/></clipPath><clipPath id="ec3c838c35"><path d="M 61.453125 61.453125 L 302.203125 61.453125 L 302.203125 302.203125 L 61.453125 302.203125 Z M 61.453125 61.453125 " clip-rule="nonzero"/></clipPath><clipPath id="a3614c6e9a"><path d="M 77 61.453125 L 299 61.453125 L 299 252 L 77 252 Z M 77 61.453125 " clip-rule="nonzero"/></clipPath><clipPath id="2492e27d5d"><path d="M 270 112 L 302.203125 112 L 302.203125 287 L 270 287 Z M 270 112 " clip-rule="nonzero"/></clipPath></defs><g clip-path="url(#2a13c046f9)"><path fill="#ef6401" d="M 358.167969 183 C 358.167969 185.898438 358.097656 188.796875 357.957031 191.691406 C 357.8125 194.585938 357.601562 197.476562 357.316406 200.359375 C 357.03125 203.242188 356.675781 206.121094 356.25 208.984375 C 355.828125 211.851562 355.332031 214.707031 354.765625 217.550781 C 354.199219 220.394531 353.566406 223.21875 352.863281 226.03125 C 352.15625 228.84375 351.382812 231.636719 350.542969 234.410156 C 349.703125 237.183594 348.792969 239.933594 347.816406 242.664062 C 346.839844 245.390625 345.796875 248.09375 344.6875 250.773438 C 343.578125 253.449219 342.40625 256.097656 341.164062 258.71875 C 339.925781 261.339844 338.625 263.925781 337.257812 266.484375 C 335.890625 269.039062 334.464844 271.558594 332.972656 274.046875 C 331.484375 276.53125 329.933594 278.980469 328.324219 281.390625 C 326.710938 283.800781 325.042969 286.167969 323.316406 288.496094 C 321.589844 290.824219 319.808594 293.109375 317.96875 295.347656 C 316.132812 297.589844 314.238281 299.78125 312.292969 301.929688 C 310.347656 304.078125 308.347656 306.175781 306.300781 308.226562 C 304.25 310.273438 302.152344 312.273438 300.003906 314.21875 C 297.855469 316.164062 295.664062 318.058594 293.421875 319.898438 C 291.179688 321.734375 288.898438 323.519531 286.570312 325.246094 C 284.242188 326.972656 281.871094 328.640625 279.460938 330.25 C 277.054688 331.859375 274.605469 333.410156 272.121094 334.898438 C 269.632812 336.390625 267.113281 337.816406 264.554688 339.183594 C 262 340.550781 259.414062 341.851562 256.792969 343.09375 C 254.171875 344.332031 251.523438 345.503906 248.847656 346.613281 C 246.167969 347.722656 243.464844 348.765625 240.734375 349.742188 C 238.007812 350.71875 235.257812 351.628906 232.484375 352.46875 C 229.710938 353.3125 226.917969 354.082031 224.105469 354.789062 C 221.292969 355.492188 218.464844 356.125 215.625 356.691406 C 212.78125 357.257812 209.925781 357.753906 207.058594 358.179688 C 204.191406 358.601562 201.316406 358.957031 198.433594 359.242188 C 195.546875 359.527344 192.660156 359.738281 189.765625 359.882812 C 186.871094 360.023438 183.972656 360.09375 181.074219 360.09375 C 178.175781 360.09375 175.28125 360.023438 172.386719 359.882812 C 169.492188 359.738281 166.601562 359.527344 163.714844 359.242188 C 160.832031 358.957031 157.957031 358.601562 155.089844 358.179688 C 152.222656 357.753906 149.367188 357.257812 146.527344 356.691406 C 143.683594 356.125 140.855469 355.492188 138.042969 354.789062 C 135.234375 354.082031 132.441406 353.3125 129.667969 352.46875 C 126.894531 351.628906 124.144531 350.71875 121.414062 349.742188 C 118.683594 348.765625 115.980469 347.722656 113.304688 346.613281 C 110.625 345.503906 107.976562 344.332031 105.359375 343.09375 C 102.738281 341.851562 100.148438 340.550781 97.59375 339.183594 C 95.039062 337.816406 92.515625 336.390625 90.03125 334.898438 C 87.542969 333.410156 85.097656 331.859375 82.6875 330.25 C 80.277344 328.640625 77.90625 326.972656 75.582031 325.246094 C 73.253906 323.519531 70.96875 321.734375 68.726562 319.898438 C 66.488281 318.058594 64.292969 316.164062 62.144531 314.21875 C 60 312.273438 57.898438 310.273438 55.851562 308.226562 C 53.800781 306.175781 51.804688 304.078125 49.855469 301.929688 C 47.910156 299.78125 46.019531 297.589844 44.179688 295.347656 C 42.339844 293.109375 40.558594 290.824219 38.832031 288.496094 C 37.105469 286.167969 35.4375 283.800781 33.828125 281.390625 C 32.214844 278.980469 30.667969 276.53125 29.175781 274.046875 C 27.6875 271.558594 26.257812 269.039062 24.890625 266.484375 C 23.527344 263.925781 22.222656 261.339844 20.984375 258.71875 C 19.746094 256.097656 18.570312 253.449219 17.460938 250.773438 C 16.351562 248.09375 15.308594 245.390625 14.332031 242.664062 C 13.355469 239.933594 12.449219 237.183594 11.605469 234.410156 C 10.765625 231.636719 9.992188 228.84375 9.289062 226.03125 C 8.585938 223.21875 7.949219 220.394531 7.382812 217.550781 C 6.820312 214.707031 6.324219 211.851562 5.898438 208.984375 C 5.472656 206.121094 5.117188 203.242188 4.832031 200.359375 C 4.550781 197.476562 4.335938 194.585938 4.195312 191.691406 C 4.050781 188.796875 3.980469 185.898438 3.980469 183 C 3.980469 180.101562 4.050781 177.207031 4.195312 174.3125 C 4.335938 171.417969 4.550781 168.527344 4.832031 165.644531 C 5.117188 162.757812 5.472656 159.882812 5.898438 157.015625 C 6.324219 154.148438 6.820312 151.292969 7.382812 148.453125 C 7.949219 145.609375 8.585938 142.78125 9.289062 139.972656 C 9.992188 137.160156 10.765625 134.367188 11.605469 131.59375 C 12.449219 128.820312 13.355469 126.070312 14.332031 123.339844 C 15.308594 120.609375 16.351562 117.90625 17.460938 115.230469 C 18.570312 112.554688 19.746094 109.902344 20.984375 107.285156 C 22.222656 104.664062 23.527344 102.074219 24.890625 99.519531 C 26.257812 96.964844 27.6875 94.441406 29.175781 91.957031 C 30.667969 89.472656 32.214844 87.023438 33.828125 84.613281 C 35.4375 82.203125 37.105469 79.835938 38.832031 77.507812 C 40.558594 75.179688 42.339844 72.894531 44.179688 70.652344 C 46.019531 68.414062 47.910156 66.21875 49.855469 64.074219 C 51.804688 61.925781 53.800781 59.828125 55.851562 57.777344 C 57.898438 55.726562 60 53.730469 62.144531 51.785156 C 64.292969 49.835938 66.488281 47.945312 68.726562 46.105469 C 70.96875 44.265625 73.253906 42.484375 75.582031 40.757812 C 77.90625 39.03125 80.277344 37.363281 82.6875 35.753906 C 85.097656 34.144531 87.542969 32.59375 90.03125 31.101562 C 92.515625 29.613281 95.039062 28.183594 97.59375 26.820312 C 100.148438 25.453125 102.738281 24.148438 105.359375 22.910156 C 107.976562 21.671875 110.625 20.496094 113.304688 19.386719 C 115.980469 18.277344 118.683594 17.234375 121.414062 16.257812 C 124.144531 15.285156 126.894531 14.375 129.667969 13.53125 C 132.441406 12.691406 135.234375 11.917969 138.042969 11.214844 C 140.855469 10.511719 143.683594 9.875 146.527344 9.308594 C 149.367188 8.746094 152.222656 8.25 155.089844 7.824219 C 157.957031 7.398438 160.832031 7.042969 163.714844 6.761719 C 166.601562 6.476562 169.492188 6.261719 172.386719 6.121094 C 175.28125 5.980469 178.175781 5.90625 181.074219 5.90625 C 183.972656 5.90625 186.871094 5.980469 189.765625 6.121094 C 192.660156 6.261719 195.546875 6.476562 198.433594 6.761719 C 201.316406 7.042969 204.191406 7.398438 207.058594 7.824219 C 209.925781 8.25 212.78125 8.746094 215.625 9.308594 C 218.464844 9.875 221.292969 10.511719 224.105469 11.214844 C 226.917969 11.917969 229.710938 12.691406 232.484375 13.53125 C 235.257812 14.375 238.007812 15.285156 240.734375 16.257812 C 243.464844 17.234375 246.167969 18.277344 248.847656 19.386719 C 251.523438 20.496094 254.171875 21.671875 256.792969 22.910156 C 259.414062 24.148438 262 25.453125 264.554688 26.820312 C 267.113281 28.183594 269.632812 29.613281 272.121094 31.101562 C 274.605469 32.59375 277.054688 34.144531 279.464844 35.753906 C 281.871094 37.363281 284.242188 39.03125 286.570312 40.757812 C 288.898438 42.484375 291.179688 44.265625 293.421875 46.105469 C 295.664062 47.945312 297.855469 49.835938 300.003906 51.785156 C 302.152344 53.730469 304.25 55.726562 306.300781 57.777344 C 308.347656 59.828125 310.347656 61.925781 312.292969 64.074219 C 314.238281 66.21875 316.132812 68.414062 317.96875 70.652344 C 319.808594 72.894531 321.589844 75.179688 323.316406 77.507812 C 325.042969 79.835938 326.710938 82.203125 328.324219 84.613281 C 329.933594 87.023438 331.484375 89.472656 332.972656 91.957031 C 334.464844 94.441406 335.890625 96.964844 337.257812 99.519531 C 338.625 102.074219 339.925781 104.664062 341.164062 107.285156 C 342.40625 109.902344 343.578125 112.554688 344.6875 115.230469 C 345.796875 117.90625 346.839844 120.609375 347.816406 123.339844 C 348.792969 126.070312 349.703125 128.820312 350.542969 131.59375 C 351.382812 134.367188 352.15625 137.160156 352.863281 139.972656 C 353.566406 142.78125 354.199219 145.609375 354.765625 148.453125 C 355.332031 151.292969 355.828125 154.148438 356.25 157.015625 C 356.675781 159.882812 357.03125 162.757812 357.316406 165.644531 C 357.601562 168.527344 357.8125 171.417969 357.957031 174.3125 C 358.097656 177.207031 358.167969 180.101562 358.167969 183 Z M 358.167969 183 " fill-opacity="1" fill-rule="nonzero"/></g><g clip-path="url(#ec3c838c35)"><path fill="#000000" d="M 298.1875 294.175781 L 69.476562 294.175781 L 69.476562 65.464844 C 69.476562 65.199219 69.449219 64.9375 69.398438 64.679688 C 69.347656 64.421875 69.273438 64.171875 69.171875 63.929688 C 69.070312 63.683594 68.945312 63.453125 68.800781 63.234375 C 68.652344 63.015625 68.488281 62.8125 68.300781 62.625 C 68.113281 62.441406 67.910156 62.273438 67.691406 62.128906 C 67.472656 61.980469 67.242188 61.859375 67 61.757812 C 66.753906 61.65625 66.503906 61.578125 66.246094 61.527344 C 65.988281 61.476562 65.726562 61.453125 65.464844 61.453125 C 65.199219 61.453125 64.9375 61.476562 64.679688 61.527344 C 64.421875 61.578125 64.171875 61.65625 63.929688 61.757812 C 63.683594 61.859375 63.453125 61.980469 63.234375 62.128906 C 63.015625 62.273438 62.8125 62.441406 62.625 62.625 C 62.441406 62.8125 62.273438 63.015625 62.128906 63.234375 C 61.980469 63.453125 61.859375 63.683594 61.757812 63.929688 C 61.65625 64.171875 61.578125 64.421875 61.527344 64.679688 C 61.476562 64.9375 61.453125 65.199219 61.453125 65.464844 L 61.453125 298.1875 C 61.453125 298.453125 61.476562 298.714844 61.527344 298.972656 C 61.578125 299.230469 61.65625 299.480469 61.757812 299.722656 C 61.859375 299.96875 61.980469 300.199219 62.128906 300.417969 C 62.273438 300.636719 62.441406 300.839844 62.625 301.027344 C 62.8125 301.210938 63.015625 301.378906 63.234375 301.523438 C 63.453125 301.671875 63.683594 301.792969 63.929688 301.894531 C 64.171875 301.996094 64.421875 302.074219 64.679688 302.125 C 64.9375 302.175781 65.199219 302.199219 65.464844 302.203125 L 298.1875 302.203125 C 298.453125 302.199219 298.714844 302.175781 298.972656 302.125 C 299.230469 302.074219 299.480469 301.996094 299.722656 301.894531 C 299.96875 301.792969 300.199219 301.671875 300.417969 301.523438 C 300.636719 301.378906 300.839844 301.210938 301.027344 301.027344 C 301.210938 300.839844 301.378906 300.636719 301.523438 300.417969 C 301.671875 300.199219 301.792969 299.96875 301.894531 299.722656 C 301.996094 299.480469 302.074219 299.230469 302.125 298.972656 C 302.175781 298.714844 302.203125 298.453125 302.203125 298.1875 C 302.203125 297.925781 302.175781 297.664062 302.125 297.40625 C 302.074219 297.148438 301.996094 296.898438 301.894531 296.652344 C 301.792969 296.410156 301.671875 296.179688 301.523438 295.960938 C 301.378906 295.742188 301.210938 295.539062 301.027344 295.351562 C 300.839844 295.164062 300.636719 295 300.417969 294.851562 C 300.199219 294.707031 299.96875 294.582031 299.722656 294.480469 C 299.480469 294.378906 299.230469 294.304688 298.972656 294.253906 C 298.714844 294.203125 298.453125 294.175781 298.1875 294.175781 Z M 298.1875 294.175781 " fill-opacity="1" fill-rule="nonzero"/></g><g clip-path="url(#a3614c6e9a)"><path fill="#000000" d="M 80.882812 250.859375 L 173.300781 163.769531 C 173.484375 163.59375 173.699219 163.457031 173.9375 163.363281 C 174.175781 163.269531 174.421875 163.21875 174.679688 163.21875 C 174.933594 163.21875 175.183594 163.269531 175.421875 163.363281 C 175.660156 163.457031 175.871094 163.59375 176.058594 163.769531 L 193.613281 180.488281 C 193.800781 180.667969 194.011719 180.804688 194.253906 180.902344 C 194.492188 180.996094 194.742188 181.046875 195.003906 181.046875 C 195.261719 181.046875 195.511719 180.996094 195.75 180.902344 C 195.992188 180.804688 196.203125 180.667969 196.390625 180.488281 L 287.496094 92.511719 C 287.683594 92.335938 287.894531 92.199219 288.132812 92.101562 C 288.375 92.007812 288.621094 91.957031 288.878906 91.957031 C 289.136719 91.957031 289.386719 92.007812 289.625 92.101562 C 289.863281 92.199219 290.078125 92.335938 290.265625 92.511719 L 294.808594 96.796875 C 295.101562 97.070312 295.445312 97.242188 295.839844 97.3125 C 296.238281 97.378906 296.617188 97.332031 296.988281 97.171875 C 297.355469 97.011719 297.648438 96.761719 297.867188 96.425781 C 298.085938 96.089844 298.191406 95.71875 298.1875 95.316406 L 298.1875 63.457031 C 298.1875 63.191406 298.136719 62.933594 298.035156 62.691406 C 297.933594 62.445312 297.789062 62.226562 297.601562 62.039062 C 297.414062 61.851562 297.195312 61.707031 296.949219 61.605469 C 296.703125 61.503906 296.449219 61.453125 296.183594 61.453125 L 262.378906 61.453125 C 261.964844 61.449219 261.589844 61.566406 261.25 61.796875 C 260.910156 62.027344 260.664062 62.332031 260.511719 62.714844 C 260.359375 63.097656 260.328125 63.488281 260.414062 63.890625 C 260.503906 64.292969 260.699219 64.636719 260.996094 64.917969 L 267.152344 70.714844 C 267.351562 70.90625 267.503906 71.125 267.613281 71.378906 C 267.71875 71.628906 267.773438 71.894531 267.773438 72.167969 C 267.773438 72.441406 267.71875 72.703125 267.613281 72.957031 C 267.503906 73.210938 267.351562 73.429688 267.152344 73.617188 L 200.445312 138.105469 C 200.257812 138.28125 200.042969 138.417969 199.804688 138.515625 C 199.566406 138.609375 199.316406 138.660156 199.058594 138.660156 C 198.800781 138.660156 198.554688 138.609375 198.3125 138.515625 C 198.074219 138.417969 197.863281 138.28125 197.675781 138.105469 L 177.953125 119.523438 C 177.769531 119.347656 177.554688 119.210938 177.320312 119.117188 C 177.082031 119.023438 176.835938 118.976562 176.578125 118.976562 C 176.324219 118.976562 176.078125 119.023438 175.839844 119.117188 C 175.601562 119.210938 175.390625 119.347656 175.207031 119.523438 L 78.132812 211.050781 C 77.710938 211.449219 77.5 211.933594 77.5 212.511719 L 77.5 249.402344 C 77.5 249.800781 77.613281 250.167969 77.832031 250.503906 C 78.050781 250.835938 78.34375 251.082031 78.710938 251.242188 C 79.078125 251.398438 79.460938 251.445312 79.855469 251.375 C 80.246094 251.308594 80.589844 251.136719 80.882812 250.859375 Z M 80.882812 250.859375 " fill-opacity="1" fill-rule="nonzero"/></g><path fill="#000000" d="M 81.515625 286.152344 L 105.589844 286.152344 C 105.851562 286.152344 106.113281 286.125 106.371094 286.074219 C 106.628906 286.023438 106.878906 285.945312 107.125 285.847656 C 107.367188 285.746094 107.597656 285.621094 107.816406 285.476562 C 108.035156 285.328125 108.238281 285.164062 108.425781 284.976562 C 108.613281 284.789062 108.777344 284.585938 108.925781 284.367188 C 109.070312 284.148438 109.195312 283.917969 109.296875 283.675781 C 109.398438 283.429688 109.472656 283.179688 109.523438 282.921875 C 109.574219 282.664062 109.601562 282.402344 109.601562 282.140625 L 109.601562 253.445312 C 109.714844 250.035156 105.246094 248.109375 102.839844 250.519531 L 78.765625 273.15625 C 77.921875 273.949219 77.5 274.921875 77.5 276.078125 L 77.5 282.140625 C 77.5 282.402344 77.527344 282.664062 77.578125 282.921875 C 77.628906 283.179688 77.707031 283.429688 77.804688 283.675781 C 77.90625 283.917969 78.03125 284.148438 78.175781 284.367188 C 78.324219 284.585938 78.488281 284.789062 78.675781 284.976562 C 78.863281 285.164062 79.066406 285.328125 79.285156 285.476562 C 79.503906 285.621094 79.734375 285.746094 79.976562 285.847656 C 80.222656 285.945312 80.472656 286.023438 80.730469 286.074219 C 80.988281 286.125 81.25 286.152344 81.515625 286.152344 Z M 81.515625 286.152344 " fill-opacity="1" fill-rule="nonzero"/><path fill="#000000" d="M 150.988281 205.25 L 126.914062 227.882812 C 126.074219 228.675781 125.652344 229.652344 125.652344 230.808594 L 125.652344 282.140625 C 125.652344 282.402344 125.675781 282.664062 125.726562 282.921875 C 125.78125 283.179688 125.855469 283.429688 125.957031 283.675781 C 126.058594 283.917969 126.179688 284.148438 126.328125 284.367188 C 126.472656 284.585938 126.640625 284.789062 126.828125 284.976562 C 127.011719 285.164062 127.214844 285.328125 127.433594 285.476562 C 127.652344 285.621094 127.882812 285.746094 128.128906 285.847656 C 128.371094 285.945312 128.621094 286.023438 128.882812 286.074219 C 129.140625 286.125 129.398438 286.152344 129.664062 286.152344 L 153.738281 286.152344 C 154.003906 286.152344 154.261719 286.125 154.519531 286.074219 C 154.78125 286.023438 155.03125 285.945312 155.273438 285.847656 C 155.519531 285.746094 155.75 285.621094 155.96875 285.476562 C 156.1875 285.328125 156.390625 285.164062 156.574219 284.976562 C 156.761719 284.789062 156.929688 284.585938 157.074219 284.367188 C 157.222656 284.148438 157.34375 283.917969 157.445312 283.675781 C 157.546875 283.429688 157.621094 283.179688 157.675781 282.921875 C 157.726562 282.664062 157.75 282.402344 157.75 282.140625 L 157.75 208.171875 C 157.867188 204.761719 153.402344 202.835938 150.988281 205.25 Z M 150.988281 205.25 " fill-opacity="1" fill-rule="nonzero"/><path fill="#000000" d="M 176.21875 183.65625 C 175.859375 183.8125 175.53125 184.015625 175.230469 184.269531 C 174.929688 184.519531 174.671875 184.8125 174.457031 185.136719 C 174.242188 185.464844 174.082031 185.816406 173.96875 186.191406 C 173.855469 186.566406 173.800781 186.953125 173.800781 187.34375 L 173.800781 282.140625 C 173.800781 282.402344 173.828125 282.664062 173.878906 282.921875 C 173.929688 283.179688 174.003906 283.429688 174.105469 283.675781 C 174.207031 283.917969 174.332031 284.148438 174.476562 284.367188 C 174.625 284.585938 174.789062 284.789062 174.976562 284.976562 C 175.164062 285.164062 175.367188 285.328125 175.585938 285.476562 C 175.804688 285.621094 176.035156 285.746094 176.277344 285.847656 C 176.523438 285.945312 176.773438 286.023438 177.03125 286.074219 C 177.289062 286.125 177.550781 286.152344 177.8125 286.152344 L 201.890625 286.152344 C 202.152344 286.152344 202.414062 286.125 202.671875 286.074219 C 202.929688 286.023438 203.179688 285.945312 203.425781 285.847656 C 203.667969 285.746094 203.898438 285.621094 204.117188 285.476562 C 204.335938 285.328125 204.539062 285.164062 204.726562 284.976562 C 204.914062 284.789062 205.078125 284.585938 205.226562 284.367188 C 205.371094 284.148438 205.496094 283.917969 205.597656 283.675781 C 205.695312 283.429688 205.773438 283.179688 205.824219 282.921875 C 205.875 282.664062 205.902344 282.402344 205.902344 282.140625 L 205.902344 209.914062 C 205.902344 208.753906 205.480469 207.777344 204.632812 206.984375 L 180.558594 184.414062 C 180.273438 184.148438 179.953125 183.925781 179.605469 183.75 C 179.253906 183.574219 178.886719 183.453125 178.5 183.386719 C 178.117188 183.320312 177.730469 183.308594 177.339844 183.355469 C 176.953125 183.402344 176.578125 183.5 176.21875 183.65625 Z M 176.21875 183.65625 " fill-opacity="1" fill-rule="nonzero"/><path fill="#000000" d="M 247.253906 151.507812 L 223.179688 174.6875 C 222.359375 175.476562 221.953125 176.441406 221.953125 177.578125 L 221.953125 282.140625 C 221.953125 282.402344 221.976562 282.664062 222.027344 282.921875 C 222.078125 283.179688 222.15625 283.429688 222.257812 283.675781 C 222.359375 283.917969 222.480469 284.148438 222.628906 284.367188 C 222.773438 284.585938 222.941406 284.789062 223.125 284.976562 C 223.3125 285.164062 223.515625 285.328125 223.734375 285.476562 C 223.953125 285.621094 224.183594 285.746094 224.429688 285.847656 C 224.671875 285.945312 224.921875 286.023438 225.179688 286.074219 C 225.4375 286.125 225.699219 286.152344 225.964844 286.152344 L 250.039062 286.152344 C 250.300781 286.152344 250.5625 286.125 250.820312 286.074219 C 251.078125 286.023438 251.332031 285.945312 251.574219 285.847656 C 251.816406 285.746094 252.050781 285.621094 252.269531 285.476562 C 252.488281 285.328125 252.691406 285.164062 252.875 284.976562 C 253.0625 284.789062 253.230469 284.585938 253.375 284.367188 C 253.519531 284.148438 253.644531 283.917969 253.746094 283.675781 C 253.847656 283.429688 253.921875 283.179688 253.972656 282.921875 C 254.027344 282.664062 254.050781 282.402344 254.050781 282.140625 L 254.050781 154.402344 C 254.167969 150.964844 249.652344 149.054688 247.253906 151.507812 Z M 247.253906 151.507812 " fill-opacity="1" fill-rule="nonzero"/><g clip-path="url(#2492e27d5d)"><path fill="#000000" d="M 300.9375 122.28125 L 291.910156 113.804688 C 291.535156 113.453125 291.109375 113.183594 290.628906 112.996094 C 290.152344 112.808594 289.65625 112.71875 289.144531 112.71875 C 288.632812 112.722656 288.136719 112.820312 287.660156 113.011719 C 287.1875 113.207031 286.761719 113.480469 286.390625 113.835938 L 271.34375 128.328125 C 270.527344 129.121094 270.117188 130.085938 270.117188 131.222656 L 270.117188 282.140625 C 270.117188 282.402344 270.140625 282.664062 270.191406 282.921875 C 270.246094 283.179688 270.320312 283.429688 270.421875 283.675781 C 270.523438 283.917969 270.644531 284.148438 270.792969 284.367188 C 270.9375 284.585938 271.105469 284.789062 271.292969 284.976562 C 271.476562 285.164062 271.679688 285.328125 271.898438 285.476562 C 272.117188 285.621094 272.351562 285.746094 272.59375 285.847656 C 272.835938 285.945312 273.085938 286.023438 273.347656 286.074219 C 273.605469 286.125 273.867188 286.152344 274.128906 286.152344 L 298.203125 286.152344 C 298.46875 286.152344 298.726562 286.125 298.988281 286.074219 C 299.246094 286.023438 299.496094 285.945312 299.738281 285.847656 C 299.984375 285.746094 300.214844 285.621094 300.433594 285.476562 C 300.652344 285.328125 300.855469 285.164062 301.039062 284.976562 C 301.226562 284.789062 301.394531 284.585938 301.539062 284.367188 C 301.6875 284.148438 301.808594 283.917969 301.910156 283.675781 C 302.011719 283.429688 302.085938 283.179688 302.140625 282.921875 C 302.191406 282.664062 302.214844 282.402344 302.214844 282.140625 L 302.214844 125.203125 C 302.210938 124.046875 301.785156 123.070312 300.9375 122.28125 Z M 300.9375 122.28125 " fill-opacity="1" fill-rule="nonzero"/></g></svg>