<svg xmlns="http://www.w3.org/2000/svg" xmlns:xlink="http://www.w3.org/1999/xlink" width="500" zoomAndPan="magnify" viewBox="0 0 375 374.999991" height="500" preserveAspectRatio="xMidYMid meet" version="1.0"><defs><clipPath id="42d9e59b1b"><path d="M 187.5 0 C 83.945312 0 0 83.945312 0 187.5 C 0 291.054688 83.945312 375 187.5 375 C 291.054688 375 375 291.054688 375 187.5 C 375 83.945312 291.054688 0 187.5 0 Z M 187.5 0 " clip-rule="nonzero"/></clipPath><clipPath id="6f05201bf4"><path d="M 33.496094 115 L 212 115 L 212 293.222656 L 33.496094 293.222656 Z M 33.496094 115 " clip-rule="nonzero"/></clipPath><clipPath id="f4a277f7e6"><path d="M 164 88.546875 L 341.746094 88.546875 L 341.746094 267 L 164 267 Z M 164 88.546875 " clip-rule="nonzero"/></clipPath></defs><g clip-path="url(#42d9e59b1b)"><rect x="-37.5" width="450" fill="#ef6401" y="-37.499999" height="449.999989" fill-opacity="1"/></g><g clip-path="url(#6f05201bf4)"><path fill="#150d0a" d="M 165.402344 293.222656 L 55.492188 293.222656 C 43.363281 293.222656 33.496094 283.371094 33.496094 271.242188 L 33.496094 161.316406 C 33.496094 152.253906 38.703125 144.472656 47.0625 141.011719 C 55.4375 137.574219 64.621094 139.375 71.023438 145.785156 L 95.679688 170.425781 L 148.675781 117.417969 C 151.082031 115.007812 154.988281 115.007812 157.402344 117.417969 C 159.8125 119.828125 159.8125 123.734375 157.402344 126.140625 L 100.039062 183.515625 C 97.625 185.925781 93.726562 185.925781 91.3125 183.515625 L 62.296875 154.507812 C 59.445312 151.65625 55.523438 150.886719 51.792969 152.410156 C 48.066406 153.953125 45.832031 157.28125 45.832031 161.316406 L 45.832031 271.242188 C 45.832031 276.558594 50.160156 280.886719 55.492188 280.886719 L 165.402344 280.886719 C 169.441406 280.886719 172.765625 278.660156 174.320312 274.933594 C 175.863281 271.207031 175.078125 267.28125 172.222656 264.421875 L 143.21875 235.417969 C 140.808594 233.007812 140.808594 229.101562 143.21875 226.695312 L 200.578125 169.320312 C 202.992188 166.90625 206.890625 166.90625 209.304688 169.320312 C 211.710938 171.730469 211.710938 175.636719 209.304688 178.042969 L 156.300781 231.054688 L 180.949219 255.703125 C 187.359375 262.113281 189.179688 271.28125 185.722656 279.65625 C 182.25 288.019531 174.464844 293.222656 165.402344 293.222656 " fill-opacity="1" fill-rule="nonzero"/></g><g clip-path="url(#f4a277f7e6)"><path fill="#150d0a" d="M 222.464844 266.160156 C 220.882812 266.160156 219.308594 265.554688 218.097656 264.351562 C 215.691406 261.941406 215.691406 258.035156 218.097656 255.628906 L 275.460938 198.253906 C 276.621094 197.097656 278.183594 196.449219 279.824219 196.449219 C 281.460938 196.449219 283.03125 197.097656 284.1875 198.253906 L 313.191406 227.273438 C 316.046875 230.113281 319.976562 230.902344 323.699219 229.355469 C 327.425781 227.816406 329.652344 224.488281 329.652344 220.453125 L 329.652344 110.523438 C 329.652344 105.210938 325.328125 100.886719 320.011719 100.886719 L 210.101562 100.886719 C 206.058594 100.886719 202.738281 103.113281 201.183594 106.847656 C 199.636719 110.574219 200.421875 114.488281 203.28125 117.347656 L 232.28125 146.347656 C 234.695312 148.761719 234.695312 152.667969 232.28125 155.074219 L 174.910156 212.449219 C 172.5 214.855469 168.59375 214.855469 166.1875 212.449219 C 163.773438 210.042969 163.773438 206.136719 166.1875 203.722656 L 219.199219 150.714844 L 194.554688 126.070312 C 188.140625 119.671875 186.324219 110.5 189.777344 102.125 C 193.25 93.75 201.039062 88.542969 210.101562 88.542969 L 320.011719 88.542969 C 332.136719 88.542969 341.996094 98.398438 341.996094 110.523438 L 341.996094 220.453125 C 341.996094 229.511719 336.796875 237.285156 328.4375 240.753906 C 320.082031 244.214844 310.890625 242.40625 304.46875 235.996094 L 279.824219 211.339844 L 226.824219 264.351562 C 225.617188 265.554688 224.039062 266.160156 222.464844 266.160156 " fill-opacity="1" fill-rule="nonzero"/></g></svg>