<svg xmlns="http://www.w3.org/2000/svg" xmlns:xlink="http://www.w3.org/1999/xlink" width="500" zoomAndPan="magnify" viewBox="0 0 375 374.999991" height="500" preserveAspectRatio="xMidYMid meet" version="1.2"><defs><clipPath id="93708703aa"><path d="M 10.050781 9.726562 L 364.949219 9.726562 L 364.949219 365 L 10.050781 365 Z M 10.050781 9.726562 "/></clipPath><clipPath id="5cd713f75a"><path d="M 187.5 9.726562 C 89.496094 9.726562 10.050781 89.320312 10.050781 187.5 C 10.050781 285.679688 89.496094 365.273438 187.5 365.273438 C 285.503906 365.273438 364.949219 285.679688 364.949219 187.5 C 364.949219 89.320312 285.503906 9.726562 187.5 9.726562 Z M 187.5 9.726562 "/></clipPath><clipPath id="738d2bd5fa"><path d="M 65.535156 285 L 101 285 L 101 311 L 65.535156 311 Z M 65.535156 285 "/></clipPath><clipPath id="d276dc0f89"><path d="M 83 64.304688 L 309.285156 64.304688 L 309.285156 247 L 83 247 Z M 83 64.304688 "/></clipPath></defs><g id="f59d62cf15"><g clip-rule="nonzero" clip-path="url(#93708703aa)"><g clip-rule="nonzero" clip-path="url(#5cd713f75a)"><path style=" stroke:none;fill-rule:nonzero;fill:#ff6c15;fill-opacity:1;" d="M 10.050781 9.726562 L 364.949219 9.726562 L 364.949219 364.628906 L 10.050781 364.628906 Z M 10.050781 9.726562 "/></g></g><g clip-rule="nonzero" clip-path="url(#738d2bd5fa)"><path style=" stroke:none;fill-rule:nonzero;fill:#000000;fill-opacity:1;" d="M 65.535156 285.394531 L 100.515625 285.394531 L 100.515625 310.753906 L 65.535156 310.753906 Z M 65.535156 285.394531 "/></g><path style=" stroke:none;fill-rule:nonzero;fill:#000000;fill-opacity:1;" d="M 116.371094 310.777344 L 151.351562 310.777344 L 151.351562 255.929688 C 139.796875 258.34375 128.136719 260.023438 116.371094 260.964844 Z M 116.371094 310.777344 "/><path style=" stroke:none;fill-rule:nonzero;fill:#000000;fill-opacity:1;" d="M 167.234375 310.777344 L 202.1875 310.777344 L 202.1875 239.332031 C 190.910156 244.636719 179.257812 248.917969 167.234375 252.175781 Z M 167.234375 310.777344 "/><path style=" stroke:none;fill-rule:nonzero;fill:#000000;fill-opacity:1;" d="M 218.070312 230.742188 L 218.070312 310.777344 L 253.046875 310.777344 L 253.046875 203.292969 C 245.632812 210.601562 237.71875 217.320312 229.300781 223.441406 C 225.632812 226.007812 221.886719 228.476562 218.070312 230.742188 Z M 218.070312 230.742188 "/><path style=" stroke:none;fill-rule:nonzero;fill:#000000;fill-opacity:1;" d="M 268.902344 185.839844 L 268.902344 310.777344 L 303.882812 310.777344 L 303.882812 147.964844 L 293.203125 147.964844 C 286.503906 161.492188 278.40625 174.117188 268.902344 185.839844 Z M 268.902344 185.839844 "/><g clip-rule="nonzero" clip-path="url(#d276dc0f89)"><path style=" stroke:none;fill-rule:nonzero;fill:#000000;fill-opacity:1;" d="M 220.355469 209.289062 C 278.152344 167.355469 292.398438 110.617188 292.777344 106.613281 C 292.789062 106.503906 292.789062 106.394531 292.777344 106.285156 L 309.285156 106.285156 L 275.335938 64.527344 L 241.4375 106.285156 L 258.175781 106.285156 C 258.175781 106.511719 258.175781 106.613281 258.175781 106.613281 C 258.175781 106.613281 253.800781 144.640625 212.691406 188.660156 C 171.578125 232.683594 100.363281 242.226562 83.578125 245.855469 C 83.578125 245.855469 162.535156 251.195312 220.355469 209.289062 Z M 220.355469 209.289062 "/></g></g></svg>