<svg xmlns="http://www.w3.org/2000/svg" xmlns:xlink="http://www.w3.org/1999/xlink" width="500" zoomAndPan="magnify" viewBox="0 0 375 374.999991" height="500" preserveAspectRatio="xMidYMid meet" version="1.2"><defs><clipPath id="1ffcdd35f9"><path d="M 10.050781 9.726562 L 364.949219 9.726562 L 364.949219 365 L 10.050781 365 Z M 10.050781 9.726562 "/></clipPath><clipPath id="2fc457e9ad"><path d="M 187.5 9.726562 C 89.496094 9.726562 10.050781 89.320312 10.050781 187.5 C 10.050781 285.679688 89.496094 365.273438 187.5 365.273438 C 285.503906 365.273438 364.949219 285.679688 364.949219 187.5 C 364.949219 89.320312 285.503906 9.726562 187.5 9.726562 Z M 187.5 9.726562 "/></clipPath><clipPath id="3fffa51510"><path d="M 67 57.988281 L 307.738281 57.988281 L 307.738281 360 L 67 360 Z M 67 57.988281 "/></clipPath></defs><g id="38afb93e15"><g clip-rule="nonzero" clip-path="url(#1ffcdd35f9)"><g clip-rule="nonzero" clip-path="url(#2fc457e9ad)"><path style=" stroke:none;fill-rule:nonzero;fill:#ff6c15;fill-opacity:1;" d="M 10.050781 9.726562 L 364.949219 9.726562 L 364.949219 364.628906 L 10.050781 364.628906 Z M 10.050781 9.726562 "/></g></g><g clip-rule="nonzero" clip-path="url(#3fffa51510)"><path style=" stroke:none;fill-rule:nonzero;fill:#000000;fill-opacity:1;" d="M 307.703125 71.152344 L 307.703125 153.300781 L 294.542969 166.460938 L 238.46875 166.460938 L 228.09375 156.085938 L 215.363281 156.085938 L 214.390625 152.871094 C 214.328125 152.734375 214.152344 152.394531 213.792969 151.917969 L 213.601562 152.238281 L 213.601562 182.414062 C 213.601562 185.363281 212.792969 188.28125 211.285156 190.824219 L 212.65625 193.324219 C 214.171875 196.078125 214.117188 199.339844 212.507812 202.046875 C 211.40625 203.910156 209.71875 205.253906 207.742188 205.90625 L 207.742188 320.640625 C 211.132812 321.6875 213.601562 324.847656 213.601562 328.582031 L 213.601562 333.191406 C 213.601562 336.921875 211.132812 340.082031 207.742188 341.128906 L 207.742188 345.515625 C 207.742188 353.269531 201.433594 359.585938 193.675781 359.585938 L 181.21875 359.585938 C 173.460938 359.585938 167.152344 353.269531 167.152344 345.515625 L 167.152344 341.128906 C 163.761719 340.082031 161.292969 336.921875 161.292969 333.191406 L 161.292969 328.582031 C 161.292969 324.800781 163.835938 321.597656 167.296875 320.601562 L 167.296875 205.90625 C 165.324219 205.246094 163.632812 203.902344 162.53125 202.039062 C 160.925781 199.339844 160.871094 196.078125 162.386719 193.3125 L 163.753906 190.816406 C 162.25 188.273438 161.433594 185.363281 161.433594 182.40625 L 161.433594 152.789062 L 160.925781 151.917969 C 160.539062 152.433594 160.359375 152.796875 160.3125 152.898438 L 159.265625 156.039062 L 155.867188 156.085938 L 146.617188 156.085938 L 136.242188 166.460938 L 80.167969 166.460938 L 67.007812 153.300781 L 67.007812 71.152344 L 80.167969 57.988281 L 136.242188 57.988281 L 146.617188 68.359375 L 159.347656 68.359375 L 160.328125 71.589844 C 160.519531 72.003906 161.761719 74.34375 165.957031 76.542969 C 167.410156 71.855469 171.796875 68.433594 176.953125 68.433594 L 197.757812 68.433594 C 202.921875 68.433594 207.300781 71.847656 208.753906 76.539062 C 213.03125 74.289062 214.242188 71.902344 214.402344 71.542969 L 215.429688 68.402344 L 218.84375 68.351562 L 228.09375 68.351562 L 238.46875 57.988281 L 294.542969 57.988281 Z M 307.703125 71.152344 "/></g><path style=" stroke:none;fill-rule:nonzero;fill:#ff6c15;fill-opacity:1;" d="M 201.625 318.085938 L 201.625 323.664062 L 173.414062 323.664062 L 173.414062 313.992188 C 177.511719 315.285156 187.898438 318.1875 198.449219 318.1875 C 199.511719 318.1875 200.570312 318.144531 201.625 318.085938 Z M 174.664062 302.355469 C 174.257812 302.355469 173.828125 302.335938 173.414062 302.328125 L 173.414062 311.128906 C 176.875 312.257812 189.777344 316.121094 201.625 315.371094 L 201.625 296.066406 C 197.539062 298.175781 187.769531 302.355469 174.664062 302.355469 Z M 200.3125 284.265625 C 187.660156 284.265625 177.710938 280.40625 173.414062 278.261719 L 173.414062 299.613281 C 188.171875 299.921875 198.972656 294.460938 201.625 292.972656 L 201.625 284.238281 C 201.1875 284.246094 200.742188 284.265625 200.3125 284.265625 Z M 199.964844 264.78125 C 189.386719 264.78125 178.851562 261.125 176.269531 260.167969 C 175.34375 260.621094 174.390625 261.050781 173.414062 261.4375 L 173.414062 275.222656 C 175.96875 276.742188 187.050781 281.867188 201.625 281.53125 L 201.625 264.75 C 201.074219 264.769531 200.515625 264.78125 199.964844 264.78125 Z M 194.949219 243.585938 C 193.257812 246.035156 187.8125 253.28125 179.46875 258.394531 C 183.929688 259.839844 193.039062 262.371094 201.625 262.03125 L 201.625 244.738281 C 199.441406 244.53125 197.191406 244.125 194.949219 243.585938 Z M 173.414062 235.355469 L 173.414062 258.488281 C 182.9375 254.347656 189.632812 246.230469 192.128906 242.847656 C 184.25 240.601562 176.859375 237.101562 173.414062 235.355469 Z M 173.414062 223.539062 L 173.414062 232.289062 C 176.628906 233.96875 190.339844 240.839844 201.625 242.003906 L 201.625 213.5 C 197.410156 215.539062 186.867188 220.257812 173.414062 223.539062 Z M 173.414062 202.957031 L 173.414062 220.738281 C 187.914062 217.128906 198.816406 211.890625 201.625 210.46875 L 201.625 202.957031 Z M 187.355469 140.449219 C 175.746094 140.449219 168.5 142.640625 164.019531 145.09375 L 166.976562 150.144531 L 207.734375 150.144531 L 210.691406 145.09375 C 206.210938 142.640625 198.964844 140.449219 187.355469 140.449219 Z M 187.355469 140.449219 "/><path style=" stroke:none;fill-rule:nonzero;fill:#ff6c15;fill-opacity:1;" d="M 213.097656 144 L 207.734375 150.144531 L 166.28125 151.441406 L 164.863281 148.703125 L 184.207031 145.296875 L 174.964844 144 L 187.511719 141.960938 L 179.464844 139.125 C 200.277344 137.699219 213.097656 144 213.097656 144 Z M 172.3125 222.996094 L 184.90625 218.042969 L 202.480469 207.59375 L 202.207031 200.230469 L 190.542969 201.714844 L 172.304688 207.917969 L 172.304688 211.839844 L 184.207031 212.703125 L 172.304688 218.910156 L 172.304688 222.996094 Z M 196.078125 218.566406 L 185.96875 222.996094 L 185.261719 227.75 L 176.308594 228.671875 L 185.355469 238.148438 L 178.171875 235.355469 L 172.320312 251.195312 L 172.320312 256.089844 L 190.980469 248.605469 L 195.0625 242.308594 L 195.085938 242.316406 L 189.734375 251.722656 L 176.300781 258.386719 L 183.261719 261.105469 L 178.703125 260.167969 L 183.792969 265.558594 L 175.511719 264.136719 C 175.511719 264.136719 178.035156 271.199219 184.222656 276.375 L 180.828125 279.921875 L 192.496094 282.714844 C 192.496094 282.714844 181.007812 286.835938 171.78125 287.902344 L 171.78125 291.640625 C 171.78125 291.640625 178.238281 294.460938 183.785156 294.285156 C 183.785156 294.285156 183.625 298.894531 178.519531 301.023438 C 178.519531 301.023438 191.789062 299.152344 199.515625 294.054688 L 203.167969 282.933594 L 193.527344 282.734375 L 201.625 268.570312 L 190.550781 262.609375 L 184.765625 261.417969 L 203.167969 259.351562 L 203.167969 256.089844 L 197.136719 251.195312 L 200.855469 243.769531 L 203.167969 244.355469 L 203.167969 211.304688 L 184.214844 220.449219 Z M 180.824219 306.699219 L 184.371094 308.648438 L 179.46875 310.953125 L 191.820312 316.046875 L 176.925781 313.984375 L 182.773438 319.640625 L 175.507812 324.605469 L 192.128906 326.378906 L 196.648438 318.039062 L 196.945312 318.160156 L 203.167969 315.992188 L 203.167969 293.75 L 191.882812 297.691406 Z M 180.824219 306.699219 "/><path style=" stroke:none;fill-rule:nonzero;fill:#fbfbfb;fill-opacity:1;" d="M 173.269531 338.089844 L 201.625 338.089844 L 201.625 345.507812 C 201.625 349.890625 198.0625 353.460938 193.675781 353.460938 L 181.21875 353.460938 C 176.832031 353.460938 173.269531 349.890625 173.269531 345.507812 Z M 205.292969 326.386719 L 169.597656 326.386719 C 168.390625 326.386719 167.410156 327.363281 167.410156 328.574219 L 167.410156 333.183594 C 167.410156 334.386719 168.390625 335.371094 169.597656 335.371094 L 205.292969 335.371094 C 206.503906 335.371094 207.484375 334.386719 207.484375 333.183594 L 207.484375 328.574219 C 207.484375 327.363281 206.503906 326.386719 205.292969 326.386719 Z M 205.292969 192.617188 C 203.042969 194.425781 200.195312 195.511719 197.097656 195.511719 L 177.941406 195.511719 C 174.839844 195.511719 171.992188 194.425781 169.742188 192.617188 L 167.742188 196.253906 C 167.289062 197.097656 167.300781 198.097656 167.792969 198.917969 C 168.28125 199.75 169.144531 200.238281 170.109375 200.238281 L 204.929688 200.238281 C 205.886719 200.238281 206.757812 199.75 207.246094 198.917969 C 207.734375 198.097656 207.75 197.097656 207.285156 196.253906 Z M 167.554688 182.40625 C 167.554688 188.132812 172.214844 192.792969 177.941406 192.792969 L 197.097656 192.792969 C 202.820312 192.792969 207.484375 188.132812 207.484375 182.40625 L 207.484375 152.863281 L 167.554688 152.863281 Z M 239.941406 148.703125 L 232.464844 151.804688 L 239.957031 159.300781 L 243.058594 151.824219 Z M 245.570312 152.863281 L 242.472656 160.339844 L 290.539062 160.339844 L 287.441406 152.863281 Z M 289.953125 151.824219 L 293.046875 159.300781 L 300.546875 151.804688 L 293.066406 148.703125 Z M 245.226562 74.300781 L 241.621094 77.910156 L 241.621094 146.542969 L 245.226562 150.144531 L 287.785156 150.144531 L 291.390625 146.542969 L 291.390625 77.910156 L 287.785156 74.300781 Z M 294.109375 78.25 L 294.109375 146.195312 L 301.585938 149.289062 L 301.585938 75.15625 Z M 293.066406 75.742188 L 300.546875 72.644531 L 293.046875 65.144531 L 289.953125 72.621094 Z M 287.441406 71.582031 L 290.539062 64.105469 L 242.472656 64.105469 L 245.570312 71.582031 Z M 243.058594 72.621094 L 239.957031 65.144531 L 232.464844 72.644531 L 239.941406 75.742188 Z M 238.902344 78.25 L 231.425781 75.15625 L 231.425781 149.289062 L 238.902344 146.195312 Z M 220.25 149.96875 L 228.707031 149.96875 L 228.707031 74.476562 L 220.25 74.476562 Z M 203.152344 82.246094 L 203.152344 79.949219 C 203.152344 76.972656 200.734375 74.554688 197.757812 74.554688 L 176.953125 74.554688 C 173.976562 74.554688 171.558594 76.972656 171.558594 79.949219 L 171.558594 82.246094 C 175.621094 83.292969 180.789062 83.996094 187.355469 83.996094 C 193.921875 83.996094 199.089844 83.292969 203.152344 82.246094 Z M 187.355469 86.714844 C 169.074219 86.714844 160.804688 81.5 157.179688 77.617188 L 157.179688 146.828125 C 160.804688 142.953125 169.074219 137.730469 187.355469 137.730469 C 205.632812 137.730469 213.90625 142.953125 217.53125 146.828125 L 217.53125 77.617188 C 213.90625 81.5 205.632812 86.714844 187.355469 86.714844 Z M 146.003906 149.96875 L 154.460938 149.96875 L 154.460938 74.476562 L 146.003906 74.476562 Z M 131.652344 151.824219 L 134.753906 159.300781 L 142.246094 151.804688 L 134.765625 148.703125 Z M 135.808594 146.195312 L 143.285156 149.296875 L 143.285156 75.15625 L 135.808594 78.25 Z M 134.765625 75.742188 L 142.246094 72.644531 L 134.753906 65.144531 L 131.652344 72.621094 Z M 87.269531 152.863281 L 84.171875 160.339844 L 132.238281 160.339844 L 129.140625 152.863281 Z M 86.925781 74.300781 L 83.320312 77.910156 L 83.320312 146.542969 L 86.925781 150.144531 L 129.484375 150.144531 L 133.089844 146.542969 L 133.089844 77.910156 L 129.484375 74.300781 Z M 129.140625 71.582031 L 132.238281 64.105469 L 84.171875 64.105469 L 87.269531 71.582031 Z M 81.640625 148.703125 L 74.164062 151.804688 L 81.664062 159.300781 L 84.757812 151.824219 Z M 80.601562 78.25 L 73.125 75.15625 L 73.125 149.296875 L 80.601562 146.195312 Z M 84.757812 72.621094 L 81.664062 65.144531 L 74.164062 72.644531 L 81.640625 75.742188 Z M 169.253906 144.53125 L 178.027344 138.914062 C 174.433594 138.828125 161.539062 144 161.539062 144 L 164.019531 148.703125 L 170.3125 146.128906 Z M 180.824219 201.71875 C 180.824219 201.71875 172.976562 201.320312 172.3125 201.71875 C 171.644531 202.121094 172.3125 206.242188 172.3125 206.242188 Z M 178.027344 213.5 L 172.3125 213.5 L 172.019531 217.546875 Z M 179.46875 235.863281 L 173.414062 226.59375 L 182.765625 225.261719 L 181.753906 220.738281 L 172.3125 222.203125 L 172.019531 233.507812 Z M 176.417969 235.863281 L 172.3125 234.171875 L 172.3125 245.730469 Z M 172.3125 275.800781 C 172.332031 275.898438 172.515625 276.066406 172.789062 276.277344 C 172.789062 276.277344 172.3125 284.851562 172.3125 285.78125 C 176.96875 284.585938 184.214844 280.746094 184.214844 280.746094 L 177.980469 278.3125 L 179.46875 275.277344 C 175.636719 271.390625 172.3125 262.621094 172.3125 262.621094 L 179.46875 262.621094 L 177.390625 259.582031 L 171.773438 260.175781 C 171.78125 260.167969 172.175781 275.265625 172.3125 275.800781 Z M 172.3125 325.140625 L 178.960938 318.824219 L 174.140625 312.347656 C 174.855469 312.449219 175.5 312.503906 175.5 312.503906 L 180.019531 308.113281 L 176.824219 305.761719 C 180.246094 304.871094 184.207031 301.023438 184.207031 301.023438 L 178.707031 300.375 L 180.019531 296.058594 C 176.683594 295.972656 172.304688 293.75 172.304688 293.75 L 172.304688 299.621094 C 172.304688 299.621094 172.203125 308.609375 172.265625 311.171875 L 171.769531 311.171875 Z M 172.3125 325.140625 "/><path style=" stroke:none;fill-rule:nonzero;fill:#b5b5b5;fill-opacity:1;" d="M 201.578125 84.21875 C 206.246094 83.453125 208.953125 82.554688 208.953125 82.554688 L 205.558594 138.914062 L 173.414062 139.820312 C 184.304688 136.867188 187.519531 127.773438 187.519531 127.773438 L 169.78125 126.441406 L 182.765625 119.527344 L 176.527344 119.527344 C 175.425781 108.359375 166.96875 96.652344 166.96875 96.652344 L 178.027344 94.523438 C 173.371094 91.867188 166.96875 82.554688 166.96875 82.554688 C 176.375 84.980469 184.921875 85.476562 191.820312 85.199219 L 190.542969 79.277344 L 173.414062 74.300781 L 177.511719 72.976562 L 198.75 73.0625 Z M 217.53125 79.277344 L 223.648438 84.417969 L 217.53125 115.535156 L 223.648438 118.460938 L 217.53125 121.382812 L 224.476562 129.363281 L 218.863281 151.441406 L 228.707031 149.96875 L 230.03125 72.976562 L 218.863281 72.976562 Z M 302.917969 72.976562 L 291.390625 62.601562 L 242.472656 64.105469 L 271.53125 67.84375 L 274.117188 74.117188 L 245.226562 72.976562 L 242.472656 75.15625 L 261.691406 84.410156 L 245.226562 89.996094 L 264.347656 96.378906 L 254.503906 98.773438 L 245.226562 136.011719 L 260.09375 138.90625 L 241.621094 146.535156 L 245.226562 151.4375 L 285.09375 140.445312 L 285.09375 75.992188 L 294.121094 77.394531 L 291.382812 77.910156 L 291.382812 79.78125 L 297.839844 88.398438 L 292.539062 130.960938 L 297.839844 149.296875 L 292.539062 146.828125 L 280.566406 150.144531 L 267.5 155.433594 L 242.464844 156.601562 L 243.050781 151.824219 L 232.457031 151.804688 L 240.132812 161.550781 L 292.539062 161.550781 L 302.910156 151.441406 L 302.910156 75.742188 L 296.183594 77.007812 Z M 84.171875 64.105469 L 116.71875 66.59375 L 97.570312 72.976562 L 126.554688 74.234375 L 86.925781 72.976562 L 83.320312 75.15625 L 102.355469 82.546875 L 89.050781 102.234375 L 99.957031 107.285156 L 89.050781 109.148438 L 101.023438 121.117188 L 88.785156 127.765625 L 102.355469 137.882812 L 83.320312 146.542969 L 86.925781 151.441406 L 122.835938 145.175781 L 126.550781 74.234375 L 128.152344 74.300781 L 132.238281 77.0625 L 144.292969 72.976562 L 133.089844 62.601562 Z M 139.546875 127.5 L 139.546875 141.863281 L 133.089844 145.289062 L 134.71875 146.820312 L 143.285156 147.710938 L 143.285156 75.15625 L 131.652344 78.691406 L 133.089844 80.683594 L 138.527344 82.546875 L 134.714844 96.378906 L 138.527344 107.820312 L 133.089844 114.203125 L 138.527344 115.535156 L 131.652344 121.65625 Z M 133.089844 146.542969 L 120.171875 151.441406 L 114.230469 156.601562 L 84.171875 160.339844 L 84.757812 151.824219 L 74.164062 151.804688 L 81.875 161.550781 L 133.089844 161.550781 L 144.292969 151.441406 L 143.285156 149.296875 Z M 179.46875 150.546875 L 166.28125 151.441406 L 166.976562 154.046875 L 179.46875 156.601562 L 189.734375 161.550781 L 179.46875 164.472656 C 179.46875 164.472656 188.089844 177.777344 189.109375 182.828125 C 189.109375 182.828125 184.683594 192.890625 175.023438 193.914062 L 185.34375 197.722656 L 178.027344 201.535156 L 203.167969 201.714844 L 202.480469 191.0625 L 203.167969 152.855469 Z M 151.300781 86.585938 L 148.65625 118.644531 L 151.300781 131.226562 L 148.65625 134.421875 L 151.300781 138.914062 L 148.65625 143.808594 L 155.828125 151.449219 L 155.828125 72.976562 L 146.011719 74.476562 Z M 166.28125 326.386719 L 184.214844 330.992188 L 175.023438 335.371094 L 182.765625 343.230469 L 172.011719 343.230469 L 183.785156 355.050781 L 193.675781 353.453125 L 201.625 338.085938 L 203.167969 326.378906 L 180.824219 325.140625 Z M 166.28125 326.386719 "/><path style=" stroke:none;fill-rule:nonzero;fill:#000000;fill-opacity:1;" d="M 293.136719 61.386719 L 239.875 61.386719 L 229.5 71.757812 L 218.890625 71.757812 L 217.90625 71.773438 L 217.597656 72.710938 C 217.570312 72.785156 215.660156 78.128906 205.871094 81.4375 L 205.871094 79.949219 C 205.871094 75.476562 202.230469 71.832031 197.757812 71.832031 L 176.953125 71.832031 C 172.480469 71.832031 168.839844 75.476562 168.839844 79.949219 L 168.839844 81.4375 C 159.050781 78.136719 157.140625 72.792969 157.117188 72.722656 L 156.828125 71.757812 L 145.207031 71.757812 L 134.835938 61.386719 L 81.574219 61.386719 L 70.40625 72.5625 L 70.40625 151.890625 L 81.574219 163.058594 L 134.835938 163.058594 L 145.207031 152.6875 L 155.820312 152.6875 L 156.804688 152.671875 L 157.117188 151.734375 C 157.132812 151.6875 158.03125 149.171875 161.714844 146.535156 L 164.835938 151.871094 L 164.835938 182.40625 C 164.835938 185.515625 165.929688 188.363281 167.738281 190.613281 L 165.363281 194.949219 C 164.433594 196.640625 164.46875 198.648438 165.453125 200.304688 C 166.4375 201.972656 168.179688 202.957031 170.109375 202.957031 L 170.695312 202.957031 L 170.695312 323.664062 L 169.597656 323.664062 C 166.894531 323.664062 164.691406 325.867188 164.691406 328.574219 L 164.691406 333.183594 C 164.691406 335.886719 166.894531 338.089844 169.597656 338.089844 L 170.550781 338.089844 L 170.550781 345.507812 C 170.550781 351.394531 175.335938 356.179688 181.21875 356.179688 L 193.675781 356.179688 C 199.558594 356.179688 204.34375 351.394531 204.34375 345.507812 L 204.34375 338.089844 L 205.292969 338.089844 C 208 338.089844 210.203125 335.886719 210.203125 333.183594 L 210.203125 328.574219 C 210.203125 325.867188 208 323.664062 205.292969 323.664062 L 204.34375 323.664062 L 204.34375 202.957031 L 204.929688 202.957031 C 206.859375 202.957031 208.597656 201.972656 209.585938 200.304688 C 210.570312 198.648438 210.605469 196.640625 209.671875 194.949219 L 207.300781 190.613281 C 209.109375 188.363281 210.203125 185.515625 210.203125 182.40625 L 210.203125 151.3125 L 212.996094 146.535156 C 216.679688 149.171875 217.578125 151.679688 217.59375 151.722656 L 217.882812 152.6875 L 229.5 152.6875 L 239.875 163.058594 L 293.136719 163.058594 L 304.304688 151.890625 L 304.304688 72.5625 Z M 142.246094 72.644531 L 134.765625 75.742188 L 131.652344 72.621094 L 134.753906 65.144531 Z M 140.390625 80.417969 L 138.097656 96.558594 L 140.390625 110.566406 L 138.097656 113.226562 L 142.246094 114.644531 L 137.730469 119.078125 L 141.457031 124.222656 L 140.75 144 L 135.8125 146.195312 L 135.820312 146.203125 L 135.808594 146.195312 L 135.808594 78.25 L 135.828125 78.242188 L 135.808594 78.257812 Z M 115.917969 79.277344 L 101.417969 104.363281 L 118.398438 111.558594 L 99.25 112.226562 L 118.398438 123.871094 L 102.660156 128.125 L 111.308594 140.449219 L 86.925781 150.144531 L 86.9375 150.144531 L 86.925781 150.144531 L 83.320312 146.542969 L 83.320312 77.910156 L 86.925781 74.300781 L 87.007812 74.300781 L 86.925781 74.300781 Z M 132.238281 64.105469 L 129.140625 71.582031 L 87.269531 71.582031 L 84.171875 64.105469 Z M 81.664062 65.144531 L 84.757812 72.621094 L 81.640625 75.742188 L 74.164062 72.644531 Z M 73.125 75.15625 L 80.601562 78.25 L 80.601562 146.195312 L 73.125 149.296875 Z M 74.164062 151.804688 L 81.640625 148.703125 L 84.757812 151.824219 L 81.664062 159.300781 Z M 84.171875 160.339844 L 87.269531 152.863281 L 129.140625 152.863281 L 132.238281 160.339844 Z M 134.753906 159.300781 L 131.652344 151.824219 L 134.765625 148.703125 L 142.246094 151.804688 Z M 154.460938 149.96875 L 146.003906 149.96875 L 146.003906 74.476562 L 154.460938 74.476562 Z M 171.558594 79.949219 C 171.558594 76.972656 173.976562 74.554688 176.953125 74.554688 L 182.160156 74.554688 C 182.160156 74.554688 182.15625 74.554688 182.15625 74.554688 L 196.132812 77.304688 L 197.464844 83.34375 C 194.527344 83.75 191.1875 83.996094 187.363281 83.996094 C 180.796875 83.996094 175.628906 83.292969 171.5625 82.246094 L 171.5625 79.949219 Z M 157.179688 146.828125 L 157.179688 77.617188 C 159.996094 80.628906 165.617188 84.449219 176.546875 86.007812 C 176.539062 86.007812 176.535156 86.007812 176.535156 86.007812 C 176.535156 86.007812 189.339844 94.789062 200.242188 96.917969 C 200.242188 96.917969 190.300781 99.3125 182.773438 99.3125 C 182.773438 99.3125 186.90625 107.820312 188.390625 116.066406 L 201.628906 114.734375 L 186.152344 121.921875 L 203.160156 121.921875 C 203.160156 121.921875 197.15625 135.957031 183.140625 137.832031 C 182.066406 137.886719 181.039062 137.957031 180.039062 138.042969 C 180.019531 138.042969 180 138.042969 180 138.042969 C 180.007812 138.042969 180.015625 138.042969 180.019531 138.042969 C 166.777344 139.21875 160.28125 143.515625 157.179688 146.828125 Z M 164.019531 145.09375 C 168.5 142.640625 175.746094 140.449219 187.355469 140.449219 C 198.964844 140.449219 206.210938 142.640625 210.691406 145.09375 L 190.550781 144 L 197.703125 146.835938 L 166.980469 150.152344 Z M 179.46875 258.394531 L 198.148438 256.78125 L 192.121094 252.824219 L 198.75 244.355469 C 199.714844 244.511719 200.671875 244.648438 201.625 244.738281 L 201.625 262.03125 C 193.039062 262.371094 183.929688 259.839844 179.46875 258.394531 Z M 200.347656 281.546875 C 200.292969 281.546875 200.238281 281.546875 200.183594 281.546875 Z M 201.625 202.957031 L 179.46875 208.78125 L 194.113281 209.964844 L 177.511719 219.652344 C 177.511719 219.652344 177.519531 219.652344 177.519531 219.652344 C 176.1875 220.027344 174.8125 220.394531 173.414062 220.738281 L 173.414062 202.957031 Z M 201.625 213.5 L 201.625 220.738281 L 190.339844 223.269531 L 190.339844 227.753906 L 198.15625 232.582031 L 182.773438 230.984375 L 201.628906 242.011719 C 190.347656 240.847656 176.636719 233.976562 173.417969 232.296875 L 173.417969 223.546875 C 186.867188 220.257812 197.410156 215.539062 201.625 213.5 Z M 192.128906 242.847656 C 192.128906 242.847656 192.121094 242.847656 192.128906 242.847656 C 189.632812 246.230469 182.9375 254.347656 173.414062 258.488281 L 173.414062 235.355469 C 175.105469 236.210938 177.757812 237.496094 180.953125 238.847656 L 176.300781 249.867188 C 176.300781 249.863281 184.011719 247.796875 192.128906 242.847656 Z M 176.269531 260.167969 C 177.742188 260.710938 181.800781 262.140625 186.980469 263.261719 C 186.042969 263.097656 185.113281 262.886719 184.214844 262.609375 C 184.214844 262.609375 190.929688 269.234375 197.050781 270.855469 C 197.050781 270.855469 188.230469 270.875 180.824219 267.949219 C 180.824219 267.949219 188.777344 276.195312 194.113281 277.265625 L 189.015625 280.5 C 180.902344 278.984375 175.167969 276.265625 173.417969 275.222656 L 173.417969 261.4375 C 174.390625 261.050781 175.34375 260.621094 176.269531 260.167969 Z M 200.3125 284.265625 C 200.742188 284.265625 201.1875 284.246094 201.625 284.238281 C 201.605469 284.246094 189.328125 288.433594 180.824219 290.03125 C 180.824219 290.03125 187.980469 292.953125 194.113281 291.894531 C 194.113281 291.894531 190.035156 297.554688 184.1875 298.832031 C 183.726562 298.90625 183.257812 298.984375 182.78125 299.050781 C 182.773438 299.050781 182.773438 299.050781 182.765625 299.050781 C 182.765625 299.050781 182.773438 299.050781 182.773438 299.050781 C 179.882812 299.457031 176.75 299.691406 173.414062 299.613281 L 173.414062 278.261719 C 177.710938 280.40625 187.660156 284.265625 200.3125 284.265625 Z M 174.664062 302.355469 C 187.769531 302.355469 197.539062 298.175781 201.625 296.066406 L 201.625 300.105469 L 190.339844 303.597656 L 187.355469 306.792969 L 198.15625 306.792969 L 187.355469 310.253906 L 201.625 315.378906 C 189.777344 316.128906 176.875 312.265625 173.414062 311.136719 L 173.414062 302.335938 C 173.828125 302.335938 174.257812 302.355469 174.664062 302.355469 Z M 180.898438 316.011719 C 180.871094 316.003906 180.84375 316.003906 180.824219 315.996094 L 191.992188 320.890625 L 185.96875 323.671875 L 173.40625 323.671875 L 173.40625 313.992188 C 175.042969 314.503906 177.667969 315.269531 180.898438 316.011719 Z M 166.976562 150.144531 L 166.988281 150.144531 Z M 167.554688 182.40625 L 167.554688 152.863281 L 179.46875 152.863281 L 199.175781 160.339844 L 190.542969 167.140625 C 190.542969 167.140625 194.648438 174.941406 195.1875 185.226562 C 195.1875 185.226562 190.15625 192.617188 179.46875 192.617188 C 179.46875 192.617188 179.816406 192.691406 180.40625 192.792969 L 177.941406 192.792969 C 172.214844 192.792969 167.554688 188.132812 167.554688 182.40625 Z M 170.109375 200.238281 C 169.144531 200.238281 168.28125 199.75 167.792969 198.917969 C 167.300781 198.097656 167.289062 197.097656 167.742188 196.253906 L 169.742188 192.617188 C 171.992188 194.425781 174.839844 195.511719 177.941406 195.511719 L 187.363281 195.511719 L 197.695312 197.730469 L 190.558594 200.238281 Z M 169.597656 335.371094 C 168.390625 335.371094 167.410156 334.386719 167.410156 333.183594 L 167.410156 328.574219 C 167.410156 327.363281 168.390625 326.386719 169.597656 326.386719 L 171.78125 326.386719 L 200.507812 330.878906 L 193.011719 335.371094 Z M 173.269531 345.507812 L 173.269531 338.089844 L 184.214844 338.089844 L 187.445312 343.765625 L 196.511719 345.777344 L 180.816406 348.558594 L 186.132812 353.46875 L 181.210938 353.46875 C 176.832031 353.460938 173.269531 349.890625 173.269531 345.507812 Z M 210.683594 145.109375 L 210.691406 145.085938 Z M 300.546875 72.644531 L 293.066406 75.742188 L 289.953125 72.621094 L 293.046875 65.144531 Z M 300.546875 82.683594 L 297.683594 135.238281 L 301.335938 149.1875 L 294.109375 146.195312 L 294.109375 78.25 L 294.136719 78.242188 L 294.113281 78.257812 Z M 280.574219 85.476562 L 260.09375 90.527344 L 280.574219 95.046875 L 266.503906 101.429688 L 258.496094 133.882812 L 276.847656 137.34375 L 245.226562 150.144531 L 241.621094 146.542969 L 241.621094 77.910156 L 245.226562 74.300781 L 245.308594 74.300781 L 245.226562 74.300781 Z M 245.238281 150.144531 L 245.226562 150.144531 Z M 245.570312 152.863281 L 287.441406 152.863281 L 283.769531 156.601562 L 242.472656 160.339844 Z M 290.539062 64.105469 L 287.441406 71.582031 L 245.570312 71.582031 L 242.472656 64.105469 Z M 239.957031 65.144531 L 243.058594 72.621094 L 239.941406 75.742188 L 232.464844 72.644531 Z M 220.25 74.476562 L 220.269531 74.476562 L 220.25 74.476562 L 226.199219 83.996094 L 224.085938 114.46875 L 227.375 120.585938 L 223.246094 122.15625 L 227.375 129.105469 L 220.25 149.976562 L 220.257812 149.976562 L 220.25 149.976562 Z M 231.425781 75.15625 L 238.902344 78.25 L 238.902344 146.195312 L 231.425781 149.289062 Z M 232.464844 151.804688 L 239.941406 148.703125 L 243.058594 151.824219 L 239.957031 159.300781 Z M 242.472656 160.339844 L 242.492188 160.339844 Z M 293.046875 159.300781 L 289.953125 151.824219 L 293.066406 148.703125 L 300.546875 151.804688 Z M 293.046875 159.300781 "/></g></svg>