<?xml version="1.0" encoding="UTF-8"?>
<svg version="1.1" xmlns="http://www.w3.org/2000/svg" width="184" height="184">
<path d="M0 0 C1.18529297 1.07701172 1.18529297 1.07701172 2.39453125 2.17578125 C3.29816406 2.98660156 4.20179688 3.79742188 5.1328125 4.6328125 C22.64039588 21.17178822 32.41963632 43.91088554 33.51953125 67.90234375 C34.0183956 91.53604255 26.37967588 114.58351256 10.39453125 132.17578125 C9.58371094 133.07941406 8.77289063 133.98304688 7.9375 134.9140625 C-8.09331134 151.88372077 -30.28644097 161.948464 -53.60546875 163.17578125 C-54.36859375 163.21703125 -55.13171875 163.25828125 -55.91796875 163.30078125 C-79.24372397 163.91461691 -102.30507303 155.89571668 -119.60546875 140.17578125 C-120.50910156 139.36496094 -121.41273437 138.55414063 -122.34375 137.71875 C-139.85133338 121.17977428 -149.63057382 98.44067696 -150.73046875 74.44921875 C-151.2293331 50.81551995 -143.59061338 27.76804994 -127.60546875 10.17578125 C-126.79464844 9.27214844 -125.98382813 8.36851563 -125.1484375 7.4375 C-92.90863279 -26.69043383 -36.05343195 -30.79190291 0 0 Z " fill="#D21F2F" transform="translate(150.60546875,20.82421875)"/>
<path d="M0 0 C3.274513 0.25802917 4.0027734 0.68975742 6.6875 2.875 C8.16858025 4.67631381 9.63377172 6.49088309 11.078125 8.32177734 C15.09203193 11.57167358 18.04043152 11.41254823 23.0625 11.3515625 C24.36586304 11.35873795 24.36586304 11.35873795 25.69555664 11.36605835 C27.52785051 11.36945225 29.36020535 11.36028544 31.19238281 11.33935547 C33.99161219 11.31258023 36.78683233 11.33911803 39.5859375 11.37109375 C41.36980049 11.36778956 43.15366099 11.36138313 44.9375 11.3515625 C45.77095947 11.36168365 46.60441895 11.37180481 47.46313477 11.38223267 C51.76304683 11.29582586 53.47153666 11.11537515 56.921875 8.32177734 C57.60765625 7.45246582 58.2934375 6.5831543 59 5.6875 C62.87578706 0.97370492 62.87578706 0.97370492 65.91796875 0.19921875 C69.89056111 -0.06164566 71.6544229 0.44991575 75 2.75 C77.54356454 6.48586042 77.77894903 8.24749051 77 12.6875 C75.83203125 14.328125 75.83203125 14.328125 74.4375 15.875 C71.78618121 18.33522895 71.78618121 18.33522895 71.9375 20.8125 C72.94837431 22.84733302 72.94837431 22.84733302 75.0625 24.4375 C77.40333874 27.15589338 77.64745432 29.15885279 77.44140625 32.71484375 C76.63808488 36.30490829 74.99380345 37.69163103 72 39.6875 C69.16670569 40.384399 66.82994588 40.41224224 64 39.6875 C61.25 37.4375 61.25 37.4375 59 34.6875 C55.47703694 30.80442404 55.47703694 30.80442404 50.6171875 29.58984375 C49.25980469 29.60724609 49.25980469 29.60724609 47.875 29.625 C46.50988281 29.63853516 46.50988281 29.63853516 45.1171875 29.65234375 C44.06917969 29.66974609 44.06917969 29.66974609 43 29.6875 C42.96261719 30.36296875 42.92523438 31.0384375 42.88671875 31.734375 C42.82097656 32.62640625 42.75523438 33.5184375 42.6875 34.4375 C42.62949219 35.31921875 42.57148437 36.2009375 42.51171875 37.109375 C42 39.6875 42 39.6875 40.4453125 41.7265625 C38.62195908 44.20040958 38.76196803 45.31875743 39.1875 48.3125 C39.28417969 49.08851562 39.38085938 49.86453125 39.48046875 50.6640625 C39.87103449 52.89789522 39.87103449 52.89789522 42 54.6875 C42.55257883 57.69598473 42.89134355 60.70402818 43.2421875 63.7421875 C44.40321382 68.25463001 47.13942981 70.00704915 50.6875 72.8125 C53 74.6875 53 74.6875 54 76.6875 C54.25491388 80.5961795 54.23289019 83.39692498 52 86.6875 C48.79447917 88.82451389 46.80610756 89.14963161 42.9921875 89.09375 C39.76263575 88.43517474 38.16915759 86.03742073 36 83.6875 C33.87092681 83.44848289 33.87092681 83.44848289 32 84.6875 C31.443125 85.368125 30.88625 86.04875 30.3125 86.75 C27.24954301 89.31626126 25.11244429 89.38411459 21.1953125 89.203125 C18.68749686 88.61410069 17.6707547 87.94431938 15.9375 86.0625 C13.82576658 82.38399662 13.11995528 80.82371019 14 76.6875 C16.1875 74.125 16.1875 74.125 19 71.6875 C23.05974175 67.81229197 24.92459768 65.98670313 25.11352539 60.22583008 C25.11336745 58.80288731 25.10774109 57.37993829 25.09765625 55.95703125 C25.0962413 55.20661057 25.09482635 54.45618988 25.09336853 53.68302917 C25.0877756 51.2886454 25.07522444 48.89435547 25.0625 46.5 C25.05748408 44.87565239 25.05292134 43.25130332 25.04882812 41.62695312 C25.03780848 37.64709931 25.02054873 33.66731556 25 29.6875 C23.22696346 29.62834871 21.45336148 29.58596749 19.6796875 29.55078125 C18.69210449 29.52540283 17.70452148 29.50002441 16.68701172 29.47387695 C13.75732081 29.46318778 13.75732081 29.46318778 11.125 31.875 C10.42375 32.803125 9.7225 33.73125 9 34.6875 C5.14605824 39.37472647 5.14605824 39.37472647 2.08203125 40.2109375 C-0.1651978 40.38801746 -1.82960647 40.30448687 -4 39.6875 C-7.29420787 36.80506811 -8.76884408 34.94601556 -9.5625 30.625 C-8.87038902 27.01064263 -7.58347796 25.27097796 -5 22.6875 C-4.34 22.6875 -3.68 22.6875 -3 22.6875 C-3 21.0375 -3 19.3875 -3 17.6875 C-3.61875 17.419375 -4.2375 17.15125 -4.875 16.875 C-7 15.6875 -7 15.6875 -9 12.6875 C-9.64039015 8.5707062 -9.14740698 6.93624927 -7 3.3125 C-3.47775176 0.23053279 -3.47775176 0.23053279 0 0 Z " fill="#F28E46" transform="translate(58,50.3125)"/>
<path d="M0 0 C4.75239181 2.49358889 7.67122152 5.20130496 10 10 C13.02448271 11.51224136 16.17216136 11.2042586 19.4921875 11.23828125 C20.60571091 11.25038887 20.60571091 11.25038887 21.74172974 11.26274109 C23.31363593 11.27657717 24.88557212 11.28730146 26.45751953 11.29516602 C28.8589783 11.31238512 31.25906218 11.3562728 33.66015625 11.40039062 C35.18748988 11.41051729 36.71483521 11.41903348 38.2421875 11.42578125 C38.95897675 11.44328934 39.67576599 11.46079742 40.41427612 11.47883606 C43.82105056 11.46404746 45.62968665 11.29619633 48.32861328 9.13745117 C48.8801709 8.43209229 49.43172852 7.7267334 50 7 C54.31691345 2.46724088 56.52471161 0.24347099 62.8125 -0.375 C67.31477252 -0.23246996 70.58378658 1.05946187 74 4 C76.81472718 7.35442413 77.903678 10.21566368 78.4375 14.5625 C77.96361997 18.28584313 76.69321278 20.68719238 75 24 C75.21107343 26.39216557 75.82336154 27.70906606 77.0625 29.75 C78.49907376 33.19777703 78.63606018 36.37380124 78 40 C76.2138958 44.30044831 74.01677464 47.26052753 70.25 50 C65.3673118 51.5023656 60.74553135 52.28548 55.97265625 50.05078125 C52.98515721 48.04858845 51.21977425 46.37192565 49.375 43.25 C48.17666809 40.72789685 48.17666809 40.72789685 45.3125 40.1875 C44.1678125 40.0946875 44.1678125 40.0946875 43 40 C43.061875 41.093125 43.12375 42.18625 43.1875 43.3125 C42.98043393 47.38479942 42.7546726 47.47488345 40 50 C39.5 52.5 39.5 52.5 40 55 C40.48855469 55.40863281 40.97710937 55.81726563 41.48046875 56.23828125 C43.75604728 58.87654839 43.51807905 61.26519683 43.6875 64.6875 C43.78611328 66.45673828 43.78611328 66.45673828 43.88671875 68.26171875 C43.94279297 69.61716797 43.94279297 69.61716797 44 71 C44.76828125 71.26941406 45.5365625 71.53882812 46.328125 71.81640625 C50.17858063 73.52209054 51.51844993 75.62233462 54 79 C55.68720945 84.06162836 55.51486141 87.73429904 53.5 92.6875 C50.91490659 96.72898406 47.52918774 98.61904984 43 100 C38.95821865 100.65502166 35.9055362 100.54753352 32.3125 98.375 C31.549375 97.92125 30.78625 97.4675 30 97 C27.34754398 97.66096786 27.34754398 97.66096786 25 99 C21.26947433 100.24350856 17.87447957 100.52198871 14 100 C9.20123921 97.6006196 6.3295603 94.83831756 4 90 C3.19429723 84.95202549 3.42394872 81.1734378 5.6875 76.5625 C7.97710686 74.02536808 10.01675894 72.61256273 13 71 C14.42267862 68.15464275 14.21971869 65.63781448 14.31640625 62.4609375 C14.37924805 60.50800781 14.37924805 60.50800781 14.44335938 58.515625 C14.48317299 57.13541955 14.52288522 55.75521117 14.5625 54.375 C14.60569407 52.98696585 14.64930865 51.59894472 14.69335938 50.2109375 C14.79972 46.80739744 14.90174714 43.40378222 15 40 C12.56649879 40.28108071 12.56649879 40.28108071 10 41 C8.59886384 42.95309888 7.26660533 44.95708818 6 47 C1.99744551 50.51739637 -1.59801086 51.35968516 -6.94140625 51.28125 C-11.39292699 50.67307259 -14.17169792 47.783529 -17.3125 44.8125 C-19.63729788 40.93783686 -20.37670031 37.51286968 -20 33 C-19.05139814 30.8088081 -17.91621691 28.82163891 -16.7265625 26.75390625 C-16.48679688 26.17511719 -16.24703125 25.59632812 -16 25 C-17.26509754 22.58443323 -17.26509754 22.58443323 -19 20 C-19.78104119 15.40690459 -20.08300204 10.97323673 -17.79296875 6.80078125 C-12.91368371 0.90858135 -7.64586844 -1.45158877 0 0 Z M-14 12 C-14.73836021 16.01996113 -14.36453341 17.44104877 -12.125 20.875 C-11.42375 21.57625 -10.7225 22.2775 -10 23 C-9.34 23 -8.68 23 -8 23 C-8 24.65 -8 26.3 -8 28 C-8.61875 28.268125 -9.2375 28.53625 -9.875 28.8125 C-12.2995233 29.95556848 -12.2995233 29.95556848 -14 33 C-14.64039015 37.1167938 -14.14740698 38.75125073 -12 42.375 C-8.83252551 45.1847046 -8.83252551 45.1847046 -5 45.6875 C-1.725487 45.42947083 -0.9972266 44.99774258 1.6875 42.8125 C3.20426667 40.96778379 4.68530647 39.09297673 6.125 37.1875 C9.48410221 34.63166136 10.58098702 34.75795488 14.6796875 34.86328125 C16.17218018 34.8928894 16.17218018 34.8928894 17.69482422 34.9230957 C18.45553223 34.94847412 19.21624023 34.97385254 20 35 C20.07445407 39.73222455 20.1287447 44.46410411 20.16479492 49.19677734 C20.17983176 50.80491072 20.20026672 52.41300344 20.22631836 54.02099609 C20.26292822 56.33962064 20.27977722 58.65770049 20.29296875 60.9765625 C20.30845261 61.68930328 20.32393646 62.40204407 20.33988953 63.13638306 C20.34145649 67.84055269 19.52237305 71.02706921 17 75 C15.04402816 76.39712274 13.04563599 77.73779907 11 79 C8.63913878 82.54129184 8.42730422 83.82750218 9 88 C11.01345145 91.55054808 11.01345145 91.55054808 14 94 C17.16368658 94.80665426 19.83494364 94.79989606 23 94 C25.87640616 91.62499209 25.87640616 91.62499209 28 89 C28.99 89 29.98 89 31 89 C31.721875 89.825 32.44375 90.65 33.1875 91.5 C36.0372554 94.03311591 36.51138954 94.41068673 40.0625 94.5625 C43.98194641 94.33170112 43.98194641 94.33170112 46.4375 92.125 C49.04191134 88.58300058 49.43241556 86.41063875 49 82 C47.23462457 79.22583862 45.95692408 77.43496549 42.9375 76.0625 C39.85196524 74.37043255 39.23716706 72.24019944 38 69 C37.68851235 66.7022729 37.49806475 64.41287707 37.31640625 62.1015625 C36.8926929 59.28726891 35.48796017 57.39367505 34 55 C33.625 51.9375 33.625 51.9375 34 49 C34.48855469 48.38769531 34.97710937 47.77539062 35.48046875 47.14453125 C37.30867183 44.56436803 37.48168689 42.87835921 37.6875 39.75 C37.75324219 38.85796875 37.81898437 37.9659375 37.88671875 37.046875 C37.92410156 36.37140625 37.96148437 35.6959375 38 35 C48.94941349 34.42595308 48.94941349 34.42595308 53 38 C54.37843192 39.96918846 55.71810412 41.96664791 57 44 C60.23176757 45.61588379 63.50615283 45.57451407 67 45 C69.9838283 43.01078114 71.60276841 41.61497432 72.4765625 38.0625 C72.63564365 35.85210931 72.57090418 34.14415921 72 32 C69.52093031 29.2704415 69.52093031 29.2704415 67 27 C66.90468229 23.94983327 68.0336578 22.96226246 70.0625 20.6875 C72.6105431 17.15311764 72.68650177 15.27156655 72 11 C70.01216563 8.08036827 68.5685303 6.38897022 65.0625 5.51953125 C61.09886331 5.24177641 59.46013465 5.62547179 56.3125 8.1875 C54.83141975 9.98881381 53.36622828 11.80338309 51.921875 13.63427734 C47.90796807 16.88417358 44.95956848 16.72504823 39.9375 16.6640625 C38.63413696 16.67123795 38.63413696 16.67123795 37.30444336 16.67855835 C35.47214949 16.68195225 33.63979465 16.67278544 31.80761719 16.65185547 C29.00838781 16.62508023 26.21316767 16.65161803 23.4140625 16.68359375 C21.63019951 16.68028956 19.84633901 16.67388313 18.0625 16.6640625 C16.81231079 16.67924423 16.81231079 16.67924423 15.53686523 16.69473267 C11.23695317 16.60832586 9.52846334 16.42787515 6.078125 13.63427734 C5.39234375 12.76496582 4.7065625 11.8956543 4 11 C1.12310518 7.40499431 1.12310518 7.40499431 -2.91796875 5.4765625 C-8.65333937 5.0246196 -11.03069529 6.98929831 -14 12 Z " fill="#182545" transform="translate(63,45)"/>
<path d="M0 0 C2.125 0.375 2.125 0.375 4 1 C4.625 2.875 4.625 2.875 5 5 C4.34 5.66 3.68 6.32 3 7 C0.875 6.625 0.875 6.625 -1 6 C-1.625 4.125 -1.625 4.125 -2 2 C-1.34 1.34 -0.68 0.68 0 0 Z " fill="#262E46" transform="translate(57,56)"/>
<path d="M0 0 C2.625 0.375 2.625 0.375 5 1 C4.67 2.65 4.34 4.3 4 6 C2.35 6 0.7 6 -1 6 C-1.625 4.125 -1.625 4.125 -2 2 C-1.34 1.34 -0.68 0.68 0 0 Z " fill="#252D46" transform="translate(57,78)"/>
<path d="M0 0 C1.67542976 0.28604898 3.34385343 0.61781233 5 1 C4.67 2.65 4.34 4.3 4 6 C3.01 6.33 2.02 6.66 1 7 C0.34 6.67 -0.32 6.34 -1 6 C-1.042721 4.33388095 -1.04063832 2.66617115 -1 1 C-0.67 0.67 -0.34 0.34 0 0 Z " fill="#212B46" transform="translate(124,56)"/>
<path d="M0 0 C1.67542976 0.28604898 3.34385343 0.61781233 5 1 C5 2.65 5 4.3 5 6 C3.35 6 1.7 6 0 6 C-0.38218767 4.34385343 -0.71395102 2.67542976 -1 1 C-0.67 0.67 -0.34 0.34 0 0 Z " fill="#1A2846" transform="translate(79,127)"/>
<path d="M0 0 C1.65 0.33 3.3 0.66 5 1 C4.67 2.65 4.34 4.3 4 6 C2.35 5.67 0.7 5.34 -1 5 C-0.67 3.35 -0.34 1.7 0 0 Z " fill="#162646" transform="translate(101,127)"/>
<path d="M0 0 C1.65 0.33 3.3 0.66 5 1 C4.67 2.65 4.34 4.3 4 6 C2.35 5.67 0.7 5.34 -1 5 C-0.67 3.35 -0.34 1.7 0 0 Z " fill="#152646" transform="translate(124,78)"/>
</svg>
