<?xml version="1.0" encoding="UTF-8"?>
<svg version="1.1" xmlns="http://www.w3.org/2000/svg" width="256" height="256">
<path d="M0 0 C33.09568517 0.10708539 62.86795487 13.3419219 86.33886719 36.44970703 C109.35458609 59.72774245 120.41999022 90.71115339 120.52636719 123.01220703 C120.53039551 123.76147461 120.53442383 124.51074219 120.53857422 125.28271484 C120.46227084 144.98693932 114.61133152 164.1509102 104.52636719 181.01220703 C104.14867187 181.65416016 103.77097656 182.29611328 103.38183594 182.95751953 C102.14082829 185.00788 100.8473843 187.01243527 99.52636719 189.01220703 C98.99785156 189.82173828 98.46933594 190.63126953 97.92480469 191.46533203 C82.71280653 213.60364425 60.06592195 229.18827341 34.52636719 237.01220703 C33.30691406 237.39376953 32.08746094 237.77533203 30.83105469 238.16845703 C19.85441963 241.37651598 8.91749341 241.97469267 -2.47363281 242.01220703 C-3.59753418 242.01824951 -3.59753418 242.01824951 -4.74414062 242.02441406 C-36.06516936 241.90312534 -65.27213111 227.24812196 -87.28613281 205.57470703 C-110.64743444 181.94715019 -121.36798632 150.73776259 -121.47363281 118.01220703 C-121.47766113 117.27969727 -121.48168945 116.5471875 -121.48583984 115.79248047 C-121.40725833 96.49840656 -115.32515262 77.48320229 -105.47363281 61.01220703 C-105.0959375 60.37025391 -104.71824219 59.72830078 -104.32910156 59.06689453 C-103.08809391 57.01653406 -101.79464992 55.01197879 -100.47363281 53.01220703 C-99.68085937 51.79791016 -99.68085937 51.79791016 -98.87207031 50.55908203 C-83.67415926 28.44127106 -61.00871835 12.80068628 -35.47363281 5.01220703 C-34.84875977 4.82142578 -34.22388672 4.63064453 -33.58007812 4.43408203 C-22.37911087 1.1002597 -11.64742396 0.0574784 0 0 Z " fill="#DF2F1B" transform="translate(128.4736328125,6.98779296875)"/>
<path d="M0 0 C0.886875 -0.01417969 1.77375 -0.02835938 2.6875 -0.04296875 C5 0.1875 5 0.1875 7 2.1875 C7.99 2.455625 8.98 2.72375 10 3 C13 4.1875 13 4.1875 14.16796875 6.421875 C15.93816493 12.30590738 15.80784525 18.2015471 13.5 23.875 C13.005 24.638125 12.51 25.40125 12 26.1875 C12.969375 25.61 13.93875 25.0325 14.9375 24.4375 C19.15570962 22.02587713 23.53582062 20.09347269 28 18.1875 C29.06605469 17.66285156 30.13210937 17.13820313 31.23046875 16.59765625 C35.4107857 14.8170678 39.31420951 14.67213436 43.8125 14.6875 C44.55564453 14.65914062 45.29878906 14.63078125 46.06445312 14.6015625 C56.05487882 14.56714243 63.09851536 19.7742093 70.02088642 26.56572151 C71.54085634 28.08490316 73.0481381 29.61595473 74.5546875 31.1484375 C75.62852635 32.22399168 76.70326101 33.29865215 77.77883911 34.37246704 C80.01706346 36.61233458 82.24659696 38.86038627 84.46972656 41.11523438 C87.30717194 43.99244988 90.16204448 46.85157975 93.02317619 49.70522118 C95.23902919 51.91799331 97.44718402 54.13831796 99.65295792 56.36113358 C100.70273685 57.41789747 101.75442895 58.47276467 102.80813217 59.52561569 C112.61240758 69.3419624 117.23262434 76.007421 117.25317383 90.04272461 C117.17372651 95.64662066 116.30465155 100.12141912 114 105.1875 C113.71382812 105.8784375 113.42765625 106.569375 113.1328125 107.28125 C112.44694288 108.92733708 111.7274636 110.55936717 111 112.1875 C110.34 112.1875 109.68 112.1875 109 112.1875 C107.59817629 114.80423759 106.39504441 117.2246669 106 120.1875 C106.66 120.8475 107.32 121.5075 108 122.1875 C110.33954855 121.90102467 112.67212073 121.55700465 115 121.1875 C118.00230457 121.09695431 120.99725175 121.12621942 124 121.1875 C124 121.8475 124 122.5075 124 123.1875 C124.7425 123.435 125.485 123.6825 126.25 123.9375 C129.24840999 125.30041363 130.87959545 126.68845178 133 129.1875 C134.42946502 133.47589505 134.44721654 137.35391219 133.375 141.75 C131.43954222 145.18103878 129.2294207 147.89847495 126 150.1875 C122.125 151.0625 122.125 151.0625 119 151.1875 C118.8453125 152.2703125 118.8453125 152.2703125 118.6875 153.375 C117.3400536 158.88728074 114.6000452 161.96746836 110 165.1875 C106.27485929 166.42921357 102.86280639 166.86788067 99 166.1875 C96.67622075 164.75069899 94.9980422 163.09261 93 161.1875 C92.01 160.8575 91.02 160.5275 90 160.1875 C88.57402389 157.33554778 88.8679748 154.86288825 88.875 151.6875 C88.87242187 150.5221875 88.86984375 149.356875 88.8671875 148.15625 C89 145.1875 89 145.1875 90 143.1875 C90.66 143.1875 91.32 143.1875 92 143.1875 C91.01 140.7125 91.01 140.7125 90 138.1875 C85.02242866 138.5703901 81.62977899 140.32137118 77.44140625 142.8359375 C68.50297269 147.78425432 60.10442279 148.63512504 50 147.1875 C42.67446447 144.5740657 37.7895955 138.05720929 33 132.1875 C31.88625 130.8571875 31.88625 130.8571875 30.75 129.5 C28.71078206 126.80531915 26.87427384 123.99891076 25 121.1875 C21.78281109 116.46082435 18.32738553 114.46630391 13.375 111.9375 C6.34771179 108.16703149 0.57333769 103.95228822 -5 98.1875 C-5.59296875 97.59195313 -6.1859375 96.99640625 -6.796875 96.3828125 C-13.45089388 89.23468331 -15.6334928 82.04260364 -15.54296875 72.34521484 C-15.04336766 61.20046758 -9.51148774 51.63847038 -4 42.1875 C-4.804375 42.6825 -5.60875 43.1775 -6.4375 43.6875 C-10.8481742 45.54462598 -14.28368878 46.05441049 -19 45.1875 C-23.36327274 43.24080908 -26.3410116 41.1759826 -29 37.1875 C-29.30078125 34.2265625 -29.30078125 34.2265625 -29.3125 30.8125 C-29.32925781 29.69101563 -29.34601562 28.56953125 -29.36328125 27.4140625 C-28.86664233 23.00305442 -27.50308619 20.41481836 -24.0625 17.60546875 C-23.0415625 16.99638672 -23.0415625 16.99638672 -22 16.375 C-21.319375 15.95605469 -20.63875 15.53710938 -19.9375 15.10546875 C-18 14.1875 -18 14.1875 -15 14.1875 C-15 12.8675 -15 11.5475 -15 10.1875 C-14.34 10.1875 -13.68 10.1875 -13 10.1875 C-12.9071875 9.3521875 -12.9071875 9.3521875 -12.8125 8.5 C-10.654564 2.35818216 -6.05174463 0.0439807 0 0 Z " fill="#A04721" transform="translate(76,44.8125)"/>
<path d="M0 0 C0.886875 -0.01417969 1.77375 -0.02835938 2.6875 -0.04296875 C5 0.1875 5 0.1875 7 2.1875 C7.99 2.455625 8.98 2.72375 10 3 C13 4.1875 13 4.1875 14.16796875 6.421875 C15.93816493 12.30590738 15.80784525 18.2015471 13.5 23.875 C13.005 24.638125 12.51 25.40125 12 26.1875 C12.969375 25.61 13.93875 25.0325 14.9375 24.4375 C19.15570962 22.02587713 23.53582062 20.09347269 28 18.1875 C29.06605469 17.66285156 30.13210937 17.13820313 31.23046875 16.59765625 C35.4107857 14.8170678 39.31420951 14.67213436 43.8125 14.6875 C44.55564453 14.65914062 45.29878906 14.63078125 46.06445312 14.6015625 C56.05487882 14.56714243 63.09851536 19.7742093 70.02088642 26.56572151 C71.54085634 28.08490316 73.0481381 29.61595473 74.5546875 31.1484375 C75.62852635 32.22399168 76.70326101 33.29865215 77.77883911 34.37246704 C80.01706346 36.61233458 82.24659696 38.86038627 84.46972656 41.11523438 C87.30717194 43.99244988 90.16204448 46.85157975 93.02317619 49.70522118 C95.23902919 51.91799331 97.44718402 54.13831796 99.65295792 56.36113358 C100.70273685 57.41789747 101.75442895 58.47276467 102.80813217 59.52561569 C112.61240758 69.3419624 117.23262434 76.007421 117.25317383 90.04272461 C117.17372651 95.64662066 116.30465155 100.12141912 114 105.1875 C113.71382812 105.8784375 113.42765625 106.569375 113.1328125 107.28125 C112.44694288 108.92733708 111.7274636 110.55936717 111 112.1875 C110.34 112.1875 109.68 112.1875 109 112.1875 C107.59817629 114.80423759 106.39504441 117.2246669 106 120.1875 C106.66 120.8475 107.32 121.5075 108 122.1875 C110.33954855 121.90102467 112.67212073 121.55700465 115 121.1875 C118.00230457 121.09695431 120.99725175 121.12621942 124 121.1875 C124 121.8475 124 122.5075 124 123.1875 C124.7425 123.435 125.485 123.6825 126.25 123.9375 C129.24840999 125.30041363 130.87959545 126.68845178 133 129.1875 C134.42946502 133.47589505 134.44721654 137.35391219 133.375 141.75 C131.43954222 145.18103878 129.2294207 147.89847495 126 150.1875 C122.125 151.0625 122.125 151.0625 119 151.1875 C118.8453125 152.2703125 118.8453125 152.2703125 118.6875 153.375 C117.3400536 158.88728074 114.6000452 161.96746836 110 165.1875 C106.27485929 166.42921357 102.86280639 166.86788067 99 166.1875 C96.67622075 164.75069899 94.9980422 163.09261 93 161.1875 C92.01 160.8575 91.02 160.5275 90 160.1875 C88.57402389 157.33554778 88.8679748 154.86288825 88.875 151.6875 C88.87242187 150.5221875 88.86984375 149.356875 88.8671875 148.15625 C89 145.1875 89 145.1875 90 143.1875 C90.66 143.1875 91.32 143.1875 92 143.1875 C91.01 140.7125 91.01 140.7125 90 138.1875 C86.87709365 138.67328543 84.00419641 139.1861012 81 140.1875 C81 139.5275 81 138.8675 81 138.1875 C80.34 137.8575 79.68 137.5275 79 137.1875 C79.66386719 136.66800781 80.32773438 136.14851562 81.01171875 135.61328125 C85.58383332 132.00231193 90.02795016 128.46509213 94 124.1875 C94.66515625 123.5275 95.3303125 122.8675 96.015625 122.1875 C105.1848756 112.70637013 111.9849847 101.41855757 112.4375 88.0625 C112.49808594 86.82242188 112.55867187 85.58234375 112.62109375 84.3046875 C111.59918503 72.42607811 99.93630212 63.60988552 91.98535156 55.81616211 C89.73276386 53.6081046 87.49421738 51.38654573 85.2578125 49.16210938 C83.83411262 47.75181704 82.40966065 46.34228344 80.984375 44.93359375 C80.31355896 44.27016464 79.64274292 43.60673553 78.95159912 42.92320251 C78.33045227 42.3148909 77.70930542 41.70657928 77.06933594 41.07983398 C76.52339783 40.54374008 75.97745972 40.00764618 75.41497803 39.45530701 C74.00565352 38.0804148 74.00565352 38.0804148 72 37.1875 C72.02320313 37.8165625 72.04640625 38.445625 72.0703125 39.09375 C72.2173798 46.06894185 71.98196555 52.21455168 68 58.1875 C67.505 56.2075 67.505 56.2075 67 54.1875 C66.01 55.1775 66.01 55.1775 65 56.1875 C65.15984375 55.3625 65.3196875 54.5375 65.484375 53.6875 C66.05125194 49.83960803 66.22082371 46.06794605 66.25 42.1875 C66.270625 41.50171875 66.29125 40.8159375 66.3125 40.109375 C66.35683701 34.30122609 64.75140151 30.52270201 61.3125 25.9375 C60 24.1875 60 24.1875 60 22.1875 C54.40700771 18.96077368 48.42696665 19.04561476 42.125 19.125 C41.09246094 19.13176758 41.09246094 19.13176758 40.0390625 19.13867188 C38.35933665 19.15033664 36.67965625 19.16826729 35 19.1875 C35 19.8475 35 20.5075 35 21.1875 C34.39671875 21.36925781 33.7934375 21.55101563 33.171875 21.73828125 C28.84432889 23.0993643 25.60100854 24.38671558 22 27.1875 C20.68 27.1875 19.36 27.1875 18 27.1875 C18.33911719 32.58254614 21.49047049 35.5436327 24.9375 39.375 C25.48857422 40.00341797 26.03964844 40.63183594 26.60742188 41.27929688 C28.68768533 43.64265815 30.77322417 45.96072417 33 48.1875 C33.31404687 52.42713281 33.32617985 55.55284398 31 59.1875 C30.34 59.1875 29.68 59.1875 29 59.1875 C29 59.8475 29 60.5075 29 61.1875 C28.34 61.1875 27.68 61.1875 27 61.1875 C27 61.8475 27 62.5075 27 63.1875 C23.10135148 63.74444979 19.49152214 64.25151579 16.16015625 61.875 C15.02403616 60.67739577 13.91287103 59.45575509 12.82421875 58.21484375 C10.80226113 55.96774309 8.65993749 54.0907242 6.3125 52.1875 C5.22388672 51.2903125 5.22388672 51.2903125 4.11328125 50.375 C2.10895708 48.97786044 2.10895708 48.97786044 -0.00048828 49.41308594 C-3.47405572 50.75840412 -4.59760259 54.26963686 -6.1875 57.4375 C-6.54263672 58.10652344 -6.89777344 58.77554688 -7.26367188 59.46484375 C-9.12732717 63.06484581 -10.25460577 66.18194719 -11 70.1875 C-11.99 70.6825 -11.99 70.6825 -13 71.1875 C-13.4683265 73.77355332 -13.4683265 73.77355332 -13.625 76.75 C-13.69976562 77.76191406 -13.77453125 78.77382812 -13.8515625 79.81640625 C-13.90054688 80.59886719 -13.94953125 81.38132812 -14 82.1875 C-14.33 82.1875 -14.66 82.1875 -15 82.1875 C-15.90062375 66.59670217 -11.89091131 55.71865032 -4 42.1875 C-4.804375 42.6825 -5.60875 43.1775 -6.4375 43.6875 C-10.8481742 45.54462598 -14.28368878 46.05441049 -19 45.1875 C-23.36327274 43.24080908 -26.3410116 41.1759826 -29 37.1875 C-29.30078125 34.2265625 -29.30078125 34.2265625 -29.3125 30.8125 C-29.32925781 29.69101563 -29.34601562 28.56953125 -29.36328125 27.4140625 C-28.86664233 23.00305442 -27.50308619 20.41481836 -24.0625 17.60546875 C-23.0415625 16.99638672 -23.0415625 16.99638672 -22 16.375 C-21.319375 15.95605469 -20.63875 15.53710938 -19.9375 15.10546875 C-18 14.1875 -18 14.1875 -15 14.1875 C-15 12.8675 -15 11.5475 -15 10.1875 C-14.34 10.1875 -13.68 10.1875 -13 10.1875 C-12.9071875 9.3521875 -12.9071875 9.3521875 -12.8125 8.5 C-10.654564 2.35818216 -6.05174463 0.0439807 0 0 Z " fill="#301F19" transform="translate(76,44.8125)"/>
<path d="M0 0 C33.09568517 0.10708539 62.86795487 13.3419219 86.33886719 36.44970703 C109.35458609 59.72774245 120.41999022 90.71115339 120.52636719 123.01220703 C120.53039551 123.76147461 120.53442383 124.51074219 120.53857422 125.28271484 C120.46227084 144.98693932 114.61133152 164.1509102 104.52636719 181.01220703 C104.14867187 181.65416016 103.77097656 182.29611328 103.38183594 182.95751953 C102.14082829 185.00788 100.8473843 187.01243527 99.52636719 189.01220703 C98.99785156 189.82173828 98.46933594 190.63126953 97.92480469 191.46533203 C82.71280653 213.60364425 60.06592195 229.18827341 34.52636719 237.01220703 C33.30691406 237.39376953 32.08746094 237.77533203 30.83105469 238.16845703 C19.85441963 241.37651598 8.91749341 241.97469267 -2.47363281 242.01220703 C-3.59753418 242.01824951 -3.59753418 242.01824951 -4.74414062 242.02441406 C-36.06516936 241.90312534 -65.27213111 227.24812196 -87.28613281 205.57470703 C-110.64743444 181.94715019 -121.36798632 150.73776259 -121.47363281 118.01220703 C-121.47766113 117.27969727 -121.48168945 116.5471875 -121.48583984 115.79248047 C-121.40725833 96.49840656 -115.32515262 77.48320229 -105.47363281 61.01220703 C-105.0959375 60.37025391 -104.71824219 59.72830078 -104.32910156 59.06689453 C-103.08809391 57.01653406 -101.79464992 55.01197879 -100.47363281 53.01220703 C-99.68085937 51.79791016 -99.68085937 51.79791016 -98.87207031 50.55908203 C-83.67415926 28.44127106 -61.00871835 12.80068628 -35.47363281 5.01220703 C-34.84875977 4.82142578 -34.22388672 4.63064453 -33.58007812 4.43408203 C-22.37911087 1.1002597 -11.64742396 0.0574784 0 0 Z M-40.47363281 13.01220703 C-42.65448429 13.94458081 -44.84234738 14.86068636 -47.03613281 15.76220703 C-48.06867188 16.19017578 -49.10121094 16.61814453 -50.16503906 17.05908203 C-50.926875 17.37361328 -51.68871094 17.68814453 -52.47363281 18.01220703 C-52.47363281 18.67220703 -52.47363281 19.33220703 -52.47363281 20.01220703 C-53.19292969 20.11662109 -53.91222656 20.22103516 -54.65332031 20.32861328 C-71.36183703 24.37846152 -89.27623665 45.79013958 -98.34863281 59.57470703 C-100.92073789 63.80332006 -102.87779515 68.05141191 -104.57128906 72.69580078 C-105.41862616 74.87099947 -106.4307189 76.74723468 -107.59863281 78.76220703 C-110.54082374 84.36858659 -110.81128944 90.80709541 -111.47363281 97.01220703 C-112.13363281 97.01220703 -112.79363281 97.01220703 -113.47363281 97.01220703 C-114.36302445 101.59179769 -114.63400512 106.03285835 -114.64160156 110.68408203 C-114.64492996 111.40654114 -114.64825836 112.12900024 -114.65168762 112.87335205 C-114.65672736 114.39619312 -114.65909687 115.91904513 -114.65893555 117.44189453 C-114.66111326 119.74156452 -114.67927603 122.04074723 -114.69824219 124.34033203 C-114.74715588 136.34095244 -112.88525272 146.4734808 -109.03613281 157.82470703 C-108.73642578 158.73929688 -108.43671875 159.65388672 -108.12792969 160.59619141 C-106.62541874 165.07765031 -105.10231306 169.05237925 -102.47363281 173.01220703 C-101.85488281 174.10533203 -101.23613281 175.19845703 -100.59863281 176.32470703 C-87.18914206 199.77383074 -66.31239769 220.37822512 -40.23535156 229.04736328 C-37.47363281 230.01220703 -37.47363281 230.01220703 -34.51660156 231.55908203 C-24.09907058 236.53382083 -10.60980329 235.21749507 0.71386719 235.26220703 C1.73694977 235.27010757 1.73694977 235.27010757 2.78070068 235.27816772 C17.54550814 235.75544552 17.54550814 235.75544552 31.52636719 232.01220703 C31.52636719 231.35220703 31.52636719 230.69220703 31.52636719 230.01220703 C32.10902344 229.93744141 32.69167969 229.86267578 33.29199219 229.78564453 C39.77673747 228.74563821 44.9492948 226.53368782 50.74121094 223.47705078 C53.94233633 221.79342943 57.18133474 220.3806294 60.52636719 219.01220703 C60.52636719 218.35220703 60.52636719 217.69220703 60.52636719 217.01220703 C61.55890625 216.68349609 61.55890625 216.68349609 62.61230469 216.34814453 C66.29470667 214.65996561 69.1282679 212.27928552 72.15136719 209.63720703 C72.7652832 209.10192383 73.37919922 208.56664062 74.01171875 208.01513672 C85.03797465 198.24771647 93.21285672 187.74103796 100.52636719 175.01220703 C101.0175 174.18591797 101.50863281 173.35962891 102.01464844 172.50830078 C116.31664999 146.46654551 118.27774244 114.3824534 110.52636719 86.01220703 C108.77048088 81.33156905 106.22259925 77.20560972 103.52636719 73.01220703 C102.78386719 71.21783203 102.78386719 71.21783203 102.02636719 69.38720703 C97.39063878 58.95681812 90.04475279 50.45350823 82.52636719 42.01220703 C81.95402344 41.35478516 81.38167969 40.69736328 80.79199219 40.02001953 C62.89912073 20.74367863 34.76041224 7.88881643 8.61450195 6.90234375 C-16.66037489 5.93285393 -16.66037489 5.93285393 -40.47363281 13.01220703 Z " fill="#080000" transform="translate(128.4736328125,6.98779296875)"/>
<path d="M0 0 C4.53846447 3.79964467 8.1176299 8.35288969 10 14 C11.0846405 32.56403927 5.29465265 44.71468673 -6.6875 58.8125 C-15.83061262 68.45329371 -29.24400433 77.06269181 -42.734375 78.23828125 C-49.39277026 78.40215367 -54.57146959 78.1060346 -60 74 C-65.2283523 68.99896737 -67.39524267 64.10268184 -68 57 C-68.11214844 56.1440625 -68.22429687 55.288125 -68.33984375 54.40625 C-69.0805926 44.73752816 -65.04126833 37.9162085 -60 30 C-59.34 29.34 -58.68 28.68 -58 28 C-53.98087546 28.23797448 -51.47475204 30.81583311 -48.5 33.3125 C-47.5615625 34.09238281 -46.623125 34.87226562 -45.65625 35.67578125 C-43 38 -43 38 -40.953125 40.24609375 C-38.62061649 42.34068639 -37.33929232 42.56827692 -34.25 42.75 C-33.05117187 42.83507812 -33.05117187 42.83507812 -31.828125 42.921875 C-31.22484375 42.94765625 -30.6215625 42.9734375 -30 43 C-30 42.34 -30 41.68 -30 41 C-29.34 41 -28.68 41 -28 41 C-28 40.34 -28 39.68 -28 39 C-27.34 39 -26.68 39 -26 39 C-24.80568365 35.2677614 -24.65803369 31.89759189 -25 28 C-26.9601927 25.01787495 -26.9601927 25.01787495 -29.6875 22.4375 C-30.595 21.49648437 -31.5025 20.55546875 -32.4375 19.5859375 C-33.7059375 18.30589844 -33.7059375 18.30589844 -35 17 C-39.90095132 11.86667599 -39.90095132 11.86667599 -40.25 8.8125 C-38.24344309 5.90299249 -35.1916999 5.17323356 -32 4 C-30.74762014 3.44281876 -29.49750462 2.88051274 -28.25 2.3125 C-25 1 -25 1 -22 1 C-22 0.34 -22 -0.32 -22 -1 C-14.53114895 -2.53207201 -7.16830617 -2.89489288 0 0 Z " fill="#CE753F" transform="translate(133,65)"/>
<path d="M0 0 C0.33 0 0.66 0 1 0 C1.17835515 4.54805635 0.99785435 7.8794254 -1 12 C-1.66 12 -2.32 12 -3 12 C-3.37125 12.99 -3.37125 12.99 -3.75 14 C-4.1625 14.99 -4.575 15.98 -5 17 C-5.22171875 17.59296875 -5.4434375 18.1859375 -5.671875 18.796875 C-10.48284346 30.14349873 -22.65809856 37.12012862 -33 43 C-33.66 43 -34.32 43 -35 43 C-35.33 43.99 -35.66 44.98 -36 46 C-36.99 46 -37.98 46 -39 46 C-36.9900579 49.4987881 -34.80171355 52.62670261 -32.25 55.75 C-29.63810459 58.96610437 -27.07068765 62.20252253 -24.5625 65.5 C-23.37780414 67.00221569 -22.19016878 68.50211665 -21 70 C-20.33484375 70.87269531 -19.6696875 71.74539062 -18.984375 72.64453125 C-12.48685541 80.6261965 -6.25411024 83.27570727 3.87890625 84.44921875 C7.25514916 84.71155044 10.6154743 84.8998661 14 85 C14 85.99 14 86.98 14 88 C12.3970947 88.81498562 10.79262722 89.62689927 9.1875 90.4375 C8.29417969 90.88996094 7.40085937 91.34242188 6.48046875 91.80859375 C-0.6128145 95.21560381 -9.27411086 94.95500574 -17 94 C-24.3226153 91.42133709 -29.22207044 84.85541254 -34 79 C-35.11375 77.6696875 -35.11375 77.6696875 -36.25 76.3125 C-38.28921794 73.61781915 -40.12572616 70.81141076 -42 68 C-45.21718891 63.27332435 -48.67261447 61.27880391 -53.625 58.75 C-64.85463953 52.72477363 -75.9807944 44.08381002 -81 32 C-81.29296875 28.3515625 -81.29296875 28.3515625 -81.1875 24.625 C-81.16042969 23.37976563 -81.13335937 22.13453125 -81.10546875 20.8515625 C-81.07066406 19.91054687 -81.03585938 18.96953125 -81 18 C-80.01 17.67 -79.02 17.34 -78 17 C-77.91363281 17.9178125 -77.82726562 18.835625 -77.73828125 19.78125 C-76.89579429 27.13948472 -76.15438767 33.40903851 -71 39 C-64.17279786 44.32521767 -58.39439449 44.53691084 -50 44 C-36.39412816 41.89056251 -22.62104376 32.22741514 -14.1484375 21.69921875 C-12.34304234 19.18073372 -10.65952518 16.61708201 -9 14 C-7.78793632 12.10221065 -6.57438398 10.2053877 -5.35961914 8.30932617 C-4.54491907 7.03290366 -3.7353873 5.7531657 -2.93139648 4.4699707 C-1.97984994 2.96351216 -0.99328555 1.47927076 0 0 Z " fill="#2C1C16" transform="translate(143,98)"/>
<path d="M0 0 C0.33 0 0.66 0 1 0 C0.38210766 7.53828658 0.38210766 7.53828658 -1.5 9.8125 C-1.995 10.204375 -2.49 10.59625 -3 11 C-3.33 11.99 -3.66 12.98 -4 14 C-10.1258277 17.06291385 -15.02861335 18.16127759 -21.83984375 17.9375 C-24.11012951 17.95351428 -24.11012951 17.95351428 -26.75390625 18.46484375 C-53.4437626 22.8649765 -83.27730932 21.32972899 -109.9375 17.125 C-110.9879248 16.96354492 -112.03834961 16.80208984 -113.12060547 16.63574219 C-114.59037842 16.38679199 -114.59037842 16.38679199 -116.08984375 16.1328125 C-116.96503662 15.98730957 -117.84022949 15.84180664 -118.74194336 15.69189453 C-121.255806 14.9216181 -122.33357755 13.99616063 -124 12 C-121.48234505 8.92382091 -119.12892636 8.26435928 -115.3125 7.375 C-114.31863281 7.13523438 -113.32476562 6.89546875 -112.30078125 6.6484375 C-104.12444979 5.0421996 -96.23229421 4.85307871 -87.91796875 4.8671875 C-86.66800613 4.86623077 -85.41804352 4.86527405 -84.13020325 4.86428833 C-80.82187127 4.86343696 -77.5135869 4.86743564 -74.20526123 4.87304688 C-72.19371018 4.87499399 -70.18220293 4.87305813 -68.1706543 4.86962891 C-64.2739056 4.8634098 -60.37722024 4.86421174 -56.48046875 4.8671875 C-55.29366013 4.86516327 -54.1068515 4.86313904 -52.88407898 4.86105347 C-35.27002651 4.90999116 -35.27002651 4.90999116 -29 7 C-29 7.66 -29 8.32 -29 9 C-28.443125 9.0825 -27.88625 9.165 -27.3125 9.25 C-25 10 -25 10 -22.75 12.0625 C-19.17392557 14.58200699 -16.19081066 14.69025117 -12 14 C-7.56871411 12.24420748 -4.10322167 10.37442359 -2.05078125 5.95703125 C-1.80714844 5.24933594 -1.56351562 4.54164063 -1.3125 3.8125 C-1.06113281 3.09707031 -0.80976563 2.38164062 -0.55078125 1.64453125 C-0.36902344 1.10183594 -0.18726563 0.55914062 0 0 Z " fill="#C6301F" transform="translate(195,196)"/>
<path d="M0 0 C1.8871875 0.0309375 1.8871875 0.0309375 3.8125 0.0625 C3.8125 0.7225 3.8125 1.3825 3.8125 2.0625 C4.43125 2.330625 5.05 2.59875 5.6875 2.875 C7.8125 4.0625 7.8125 4.0625 9.8125 7.0625 C10.11328125 9.21875 10.11328125 9.21875 10.125 11.5625 C10.14175781 12.3359375 10.15851563 13.109375 10.17578125 13.90625 C9.72769431 16.5658628 8.76666475 17.28370901 6.8125 19.0625 C6.09052838 21.66861077 6.09052838 21.66861077 5.8125 24.0625 C6.37324219 24.12308594 6.93398437 24.18367188 7.51171875 24.24609375 C10.82055907 25.42019838 12.32837928 27.49564053 14.625 30.125 C15.49640625 31.11371094 16.3678125 32.10242188 17.265625 33.12109375 C18.10609375 34.09175781 18.9465625 35.06242187 19.8125 36.0625 C21.16664809 37.60418299 22.52081199 39.14585208 23.875 40.6875 C24.42285156 41.31914063 24.97070312 41.95078125 25.53515625 42.6015625 C26.27082299 43.44296727 27.02219387 44.27219387 27.8125 45.0625 C27.85313832 46.72867115 27.855221 48.39638095 27.8125 50.0625 C27.173125 50.330625 26.53375 50.59875 25.875 50.875 C23.48118314 51.94917752 23.48118314 51.94917752 22.8125 55.0625 C20.625 55.375 20.625 55.375 17.8125 55.0625 C16.09851011 53.44454011 14.43985491 51.7675723 12.8125 50.0625 C10.83791309 48.18059166 8.82491911 46.34131241 6.8125 44.5 C6.30460937 44.03142578 5.79671875 43.56285156 5.2734375 43.08007812 C2.8918648 40.89696982 0.49804073 38.82024673 -2.0625 36.84765625 C-2.76375 36.25855469 -3.465 35.66945312 -4.1875 35.0625 C-4.1875 34.4025 -4.1875 33.7425 -4.1875 33.0625 C-7.1594385 34.18701727 -9.52190687 35.28543791 -12.1875 37.0625 C-16.33761825 37.52362425 -18.45186615 37.53657515 -22 35.25 C-25.29242241 31.95757759 -26.51995192 29.78110993 -26.6875 25.1875 C-26.62344125 22.44898834 -26.54384272 20.65465776 -25.125 18.296875 C-22.24045765 15.56910126 -19.63858763 14.78403993 -15.8125 14.75 C-14.018125 14.9046875 -14.018125 14.9046875 -12.1875 15.0625 C-12.290625 13.86625 -12.39375 12.67 -12.5 11.4375 C-12.51201741 8.0545977 -12.01471114 6.25799784 -9.875 3.625 C-6.55487543 0.45929983 -4.41793513 -0.07242517 0 0 Z " fill="#F6F5F5" transform="translate(77.1875,48.9375)"/>
<path d="M0 0 C2.05772937 0.97730937 3.1912981 2.24989185 4.79296875 3.8515625 C6.89629766 4.56603893 6.89629766 4.56603893 8.79296875 4.8515625 C9.12296875 3.8615625 9.45296875 2.8715625 9.79296875 1.8515625 C19.32465511 1.47777088 19.32465511 1.47777088 23.79296875 3.8515625 C25.65548556 5.71407931 25.09510914 8.6019174 25.16796875 11.1015625 C25.10622817 17.3579416 25.10622817 17.3579416 22.73046875 21.1015625 C19.34078641 23.12094773 16.70894568 23.62121092 12.79296875 23.8515625 C12.55513672 24.86476562 12.55513672 24.86476562 12.3125 25.8984375 C11.24821853 29.96740313 10.31104379 33.17649503 7.73046875 36.5390625 C3.37757702 38.48397157 -0.64553669 38.09021224 -5.20703125 36.8515625 C-8.26347751 34.98580139 -9.0505344 34.32105306 -10.20703125 30.8515625 C-10.375 28.9140625 -10.375 28.9140625 -10.39453125 26.8515625 C-10.40871094 26.1709375 -10.42289063 25.4903125 -10.4375 24.7890625 C-10.20703125 22.8515625 -10.20703125 22.8515625 -8.20703125 19.8515625 C-7.54703125 19.8515625 -6.88703125 19.8515625 -6.20703125 19.8515625 C-6.20703125 18.5315625 -6.20703125 17.2115625 -6.20703125 15.8515625 C-6.84640625 15.6246875 -7.48578125 15.3978125 -8.14453125 15.1640625 C-10.20703125 13.8515625 -10.20703125 13.8515625 -11.09765625 11.57421875 C-11.20703125 8.8515625 -11.20703125 8.8515625 -9.4765625 6.359375 C-8.26033203 5.17988281 -8.26033203 5.17988281 -7.01953125 3.9765625 C-6.22160156 3.17476562 -5.42367187 2.37296875 -4.6015625 1.546875 C-2.20703125 -0.1484375 -2.20703125 -0.1484375 0 0 Z " fill="#F7F7F7" transform="translate(179.20703125,168.1484375)"/>
<path d="M0 0 C0.66 0.33 1.32 0.66 2 1 C0.68 1.33 -0.64 1.66 -2 2 C0.0099421 5.4987881 2.19828645 8.62670261 4.75 11.75 C7.36189541 14.96610437 9.92931235 18.20252253 12.4375 21.5 C13.62219586 23.00221569 14.80983122 24.50211665 16 26 C16.66515625 26.87269531 17.3303125 27.74539062 18.015625 28.64453125 C24.89542843 37.09580058 32.10073188 39.59017872 42.75 40.75 C44.16573159 40.84794369 45.58227165 40.93726866 47 41 C41.26808374 44.82127751 37.34961141 46.38977177 30.375 46.25 C29.08335937 46.23453125 27.79171875 46.2190625 26.4609375 46.203125 C20.17582966 45.83424734 18.38254415 44.60167136 14 40 C13.236875 39.443125 12.47375 38.88625 11.6875 38.3125 C11.130625 37.879375 10.57375 37.44625 10 37 C10 36.34 10 35.68 10 35 C9.34 35 8.68 35 8 35 C6.15012132 32.65860766 4.40487859 30.3108039 2.6875 27.875 C0.80879371 25.237143 -1.08199821 22.6094529 -3 20 C-3.41991211 19.42765625 -3.83982422 18.8553125 -4.27246094 18.265625 C-7.02219464 14.72433433 -9.48580986 12.91479824 -13.625 11.25 C-16.70423031 9.98456289 -19.21549237 8.85633842 -22 7 C-22 6.34 -22 5.68 -22 5 C-20.67935547 4.92652344 -20.67935547 4.92652344 -19.33203125 4.8515625 C-18.17058594 4.77679688 -17.00914063 4.70203125 -15.8125 4.625 C-14.08966797 4.52058594 -14.08966797 4.52058594 -12.33203125 4.4140625 C-8.33045628 3.91679762 -5.32696949 2.72035487 -1.8125 0.8125 C-1.214375 0.544375 -0.61625 0.27625 0 0 Z " fill="#5B2912" transform="translate(106,142)"/>
<path d="M0 0 C1.53005699 4.84877214 0.05289353 8.52558191 -2 13 C-12.3649869 31.50422924 -26.23732277 45.37119683 -46.9140625 51.57421875 C-53.88148697 52.99640839 -61.09931568 52.91838457 -67.31640625 49.2734375 C-71.11030466 46.40380669 -74.48309904 42.55070287 -76 38 C-76.0777346 35.66796188 -76.08967728 33.33160941 -76 31 C-71.28935185 35.58333333 -71.28935185 35.58333333 -69.4375 38.25 C-67.59865151 40.48859816 -66.85104529 40.50796477 -64 41 C-54.44738492 41.79021633 -45.7884561 41.52501437 -36.6875 38.3125 C-35.98923096 38.06878662 -35.29096191 37.82507324 -34.5715332 37.57397461 C-30.05316216 35.82483867 -27.28755113 33.6478307 -24 30 C-22.61875457 28.71332633 -21.22412898 27.44076441 -19.8125 26.1875 C-19.13832031 25.58292969 -18.46414062 24.97835937 -17.76953125 24.35546875 C-16 23 -16 23 -14 23 C-13.73832031 22.43667969 -13.47664063 21.87335938 -13.20703125 21.29296875 C-11.88830527 18.78781616 -10.35083009 16.60280596 -8.6875 14.3125 C-5.42208281 9.71495655 -2.61616812 4.99121475 0 0 Z " fill="#A04923" transform="translate(142,91)"/>
<path d="M0 0 C0.66 0 1.32 0 2 0 C3.625 2 3.625 2 5 4 C6.4540625 3.7525 6.4540625 3.7525 7.9375 3.5 C12.29487763 2.86603727 16.60630704 2.9103328 21 3 C21 3.66 21 4.32 21 5 C21.7425 5.2475 22.485 5.495 23.25 5.75 C26.24840999 7.11291363 27.87959545 8.50095178 30 11 C31.42946502 15.28839505 31.44721654 19.16641219 30.375 23.5625 C28.43954222 26.99353878 26.2294207 29.71097495 23 32 C19.125 32.875 19.125 32.875 16 33 C15.8453125 34.0828125 15.8453125 34.0828125 15.6875 35.1875 C14.3400536 40.69978074 11.6000452 43.77996836 7 47 C3.27485929 48.24171357 -0.13719361 48.68038067 -4 48 C-6.32377925 46.56319899 -8.0019578 44.90511 -10 43 C-10.99 42.67 -11.98 42.34 -13 42 C-14.42597611 39.14804778 -14.1320252 36.67538825 -14.125 33.5 C-14.12886719 31.75203125 -14.12886719 31.75203125 -14.1328125 29.96875 C-14 27 -14 27 -13 25 C-12.34 25 -11.68 25 -11 25 C-11.66 23.35 -12.32 21.7 -13 20 C-16.12290635 20.48578543 -18.99580359 20.9986012 -22 22 C-22 21.34 -22 20.68 -22 20 C-22.66 19.67 -23.32 19.34 -24 19 C-23.00419922 18.22076172 -23.00419922 18.22076172 -21.98828125 17.42578125 C-17.40663619 13.80728493 -13.07599851 10.18922069 -9 6 C-3.48895028 1 -3.48895028 1 -1 1 C-0.67 0.67 -0.34 0.34 0 0 Z M-6.75 9.1875 C-7.56984375 9.96480469 -8.3896875 10.74210938 -9.234375 11.54296875 C-11.28417037 13.86435465 -11.28417037 13.86435465 -10.89453125 16.71875 C-10.19580247 19.1600727 -10.19580247 19.1600727 -7.9375 20.3125 C-7.298125 20.539375 -6.65875 20.76625 -6 21 C-6 22.32 -6 23.64 -6 25 C-6.99 25.33 -7.98 25.66 -9 26 C-10.57170996 29.14341993 -10.23175783 32.55771451 -10 36 C-8.84350315 39.46949056 -8.05644626 40.13423889 -5 42 C-0.43850544 43.23864974 3.58460827 43.63240907 7.9375 41.6875 C10.89994097 37.82734965 11.89904002 33.69026855 13 29 C14.5778125 28.9071875 14.5778125 28.9071875 16.1875 28.8125 C19.99921543 28.21373069 19.99921543 28.21373069 22.9375 26.25 C26.13763026 21.2073705 25.75514432 15.82653457 25 10 C22.33684806 7.33684806 20.34655932 7.05573507 16.640625 6.90234375 C15.45726562 6.91974609 15.45726562 6.91974609 14.25 6.9375 C13.05117187 6.95103516 13.05117187 6.95103516 11.828125 6.96484375 C10.92320312 6.98224609 10.92320312 6.98224609 10 7 C9.67 7.99 9.34 8.98 9 10 C5.54081981 8.78461236 3.55967074 7.55967074 1 5 C-3.03183815 5 -3.90770743 6.41309658 -6.75 9.1875 Z " fill="#3C1F1A" transform="translate(179,163)"/>
<path d="M0 0 C1.3609623 2.7219246 0.70366248 4.1831957 0.0625 7.125 C-0.13214844 8.03507812 -0.32679687 8.94515625 -0.52734375 9.8828125 C-0.68332031 10.58148438 -0.83929688 11.28015625 -1 12 C-1.61488281 12.18175781 -2.22976562 12.36351563 -2.86328125 12.55078125 C-3.67152344 12.80214844 -4.47976562 13.05351563 -5.3125 13.3125 C-6.51326172 13.67794922 -6.51326172 13.67794922 -7.73828125 14.05078125 C-10.15143168 15.06355423 -11.37126886 15.97035042 -13 18 C-13.33 18.99 -13.66 19.98 -14 21 C-12.67741528 21.68774405 -11.34013497 22.34711373 -10 23 C-8.865625 23.556875 -7.73125 24.11375 -6.5625 24.6875 C-1.76613284 26.45458264 0.48851718 25.53346453 5.1875 23.875 C11.47714277 24.0812178 14.78208131 28.6588775 19 33 C23.02132203 37.12185508 27.26536264 40.68033682 31.79296875 44.23046875 C34 46 34 46 36 48 C35.34 48 34.68 48 34 48 C33.67 48.99 33.34 49.98 33 51 C30.8125 51.3125 30.8125 51.3125 28 51 C26.28601011 49.38204011 24.62735491 47.7050723 23 46 C21.02541309 44.11809166 19.01241911 42.27881241 17 40.4375 C16.49210937 39.96892578 15.98421875 39.50035156 15.4609375 39.01757812 C13.0793648 36.83446982 10.68554073 34.75774673 8.125 32.78515625 C7.42375 32.19605469 6.7225 31.60695313 6 31 C6 30.34 6 29.68 6 29 C3.0280615 30.12451727 0.66559313 31.22293791 -2 33 C-6.15011825 33.46112425 -8.26436615 33.47407515 -11.8125 31.1875 C-15.10492241 27.89507759 -16.33245192 25.71860993 -16.5 21.125 C-16.43594125 18.38648834 -16.35634272 16.59215776 -14.9375 14.234375 C-12.05295765 11.50660126 -9.45108763 10.72153993 -5.625 10.6875 C-3.830625 10.8421875 -3.830625 10.8421875 -2 11 C-2.061875 9.1128125 -2.061875 9.1128125 -2.125 7.1875 C-2.2390374 3.70935927 -2.05925681 3.08888522 0 0 Z " fill="#E0E0DF" transform="translate(67,53)"/>
<path d="M0 0 C2.39294323 2.15701925 3.61375878 4.02230493 4.8125 7 C5.87461118 9.56778604 6.91433675 11.87046608 8.44921875 14.19140625 C19.32486774 30.81991743 19.2661658 57.45487303 15.75 76.5 C14.25932873 83.40230251 12.65944929 90.44289628 10 97 C9.01 97.495 9.01 97.495 8 98 C8.26554688 96.98164063 8.53109375 95.96328125 8.8046875 94.9140625 C13.19931382 77.52247424 14.99316082 60.62375484 13.125 42.75 C13.04668945 41.99267578 12.96837891 41.23535156 12.88769531 40.45507812 C12.35268149 35.79369334 11.41094734 31.49275338 10 27 C9.71640625 26.04738281 9.4328125 25.09476563 9.140625 24.11328125 C7.05187645 17.54471672 4.43107008 11.57078161 1.171875 5.49609375 C0 3 0 3 0 0 Z " fill="#8C1002" transform="translate(226,70)"/>
<path d="M0 0 C1.23556641 0.01740234 1.23556641 0.01740234 2.49609375 0.03515625 C3.32238281 0.04417969 4.14867187 0.05320313 5 0.0625 C5.63808594 0.07410156 6.27617187 0.08570313 6.93359375 0.09765625 C6.93359375 0.75765625 6.93359375 1.41765625 6.93359375 2.09765625 C7.67609375 2.34515625 8.41859375 2.59265625 9.18359375 2.84765625 C12.18200374 4.21056988 13.8131892 5.59860803 15.93359375 8.09765625 C17.36305877 12.3860513 17.38081029 16.26406844 16.30859375 20.66015625 C14.37313597 24.09119503 12.16301445 26.8086312 8.93359375 29.09765625 C5.05859375 29.97265625 5.05859375 29.97265625 1.93359375 30.09765625 C1.60359375 31.41765625 1.27359375 32.73765625 0.93359375 34.09765625 C-0.06640625 33.09765625 -0.06640625 33.09765625 -0.12890625 30.03515625 C-0.09796875 28.58109375 -0.09796875 28.58109375 -0.06640625 27.09765625 C1.00609375 26.85015625 2.07859375 26.60265625 3.18359375 26.34765625 C6.97018022 25.08546076 8.50566253 24.17926126 10.93359375 21.09765625 C12.46061903 16.51658041 12.62659704 12.69156382 10.68359375 8.22265625 C8.6610719 5.76673686 7.97449246 5.62270351 4.93359375 5.09765625 C3.43569633 5.00799338 1.93416354 4.96751731 0.43359375 4.97265625 C-0.31921875 4.97007812 -1.07203125 4.9675 -1.84765625 4.96484375 C-4.03994125 5.09607208 -5.95959762 5.49434287 -8.06640625 6.09765625 C-8.72640625 5.10765625 -9.38640625 4.11765625 -10.06640625 3.09765625 C-8.93203125 2.78828125 -7.79765625 2.47890625 -6.62890625 2.16015625 C-3.9174895 1.3514881 -2.58036823 0.12194557 0 0 Z " fill="#391813" transform="translate(193.06640625,165.90234375)"/>
<path d="M0 0 C0 2.83967231 -0.40267181 5.23735711 -1 8 C-0.01 8.66 0.98 9.32 2 10 C2.1875 13.125 2.1875 13.125 2 16 C1.34 16.33 0.68 16.66 0 17 C-0.65555119 19.52733235 -0.65555119 19.52733235 -1 22 C5.88805363 24.52111767 10.73741278 25.66001994 18 24 C17.72869436 27.25566769 17.14773876 28.81890087 15.0625 31.375 C10.66710245 33.70725176 6.74746097 33.28914794 2 32 C-1.05644626 30.13423889 -1.84350315 29.46949056 -3 26 C-3.16796875 24.0625 -3.16796875 24.0625 -3.1875 22 C-3.20167969 21.319375 -3.21585938 20.63875 -3.23046875 19.9375 C-3 18 -3 18 -1 15 C-0.34 15 0.32 15 1 15 C1 13.68 1 12.36 1 11 C0.360625 10.773125 -0.27875 10.54625 -0.9375 10.3125 C-3 9 -3 9 -4 6.625 C-4 4 -4 4 -2.0625 1.6875 C-1.381875 1.130625 -0.70125 0.57375 0 0 Z " fill="#DBDBDA" transform="translate(172,173)"/>
<path d="M0 0 C0.99 0.33 1.98 0.66 3 1 C-1.36200187 3.44697666 -5.02693484 4.50269348 -10 5 C-10 5.66 -10 6.32 -10 7 C-17.39781563 8.94679359 -24.43545279 10.12006549 -32.12109375 10.16796875 C-32.77889328 10.1721582 -33.43669281 10.17634766 -34.11442566 10.18066406 C-36.22217932 10.19036081 -38.32972793 10.19046954 -40.4375 10.1875 C-41.15387634 10.18722809 -41.87025269 10.18695618 -42.6083374 10.18667603 C-69.45499348 10.1396189 -69.45499348 10.1396189 -79 5 C-80.28554227 4.42364064 -81.57608164 3.85804571 -82.875 3.3125 C-83.90625 2.879375 -84.9375 2.44625 -86 2 C-82.06133226 0.44153435 -79.83342188 1.68986089 -76.0625 3.3125 C-62.2611185 8.63896206 -47.26648388 8.24155533 -32.6875 7.8125 C-30.97977417 7.76778564 -30.97977417 7.76778564 -29.23754883 7.72216797 C-22.81550739 7.44848382 -17.88369351 6.57533222 -12 4 C-10.21490747 3.43704629 -8.42409475 2.89145938 -6.625 2.375 C-4.28209572 1.70041765 -2.18022515 1.09011257 0 0 Z " fill="#9F1202" transform="translate(170,232)"/>
<path d="M0 0 C3.6109795 2.71138008 6.37480376 5.48724489 9.125 9.0625 C11.74428232 12.49173861 11.74428232 12.49173861 14.72265625 15.59375 C16 17 16 17 16.3125 20.4375 C16.03296827 23.62416175 15.69249046 25.35548366 14 28 C13.34 28 12.68 28 12 28 C12 28.66 12 29.32 12 30 C11.34 30 10.68 30 10 30 C10 30.66 10 31.32 10 32 C8.54257537 32.08096803 7.08387193 32.13917774 5.625 32.1875 C4.81289062 32.22230469 4.00078125 32.25710937 3.1640625 32.29296875 C2.44992188 32.19628906 1.73578125 32.09960938 1 32 C0.34 31.01 -0.32 30.02 -1 29 C1.97 29.33 4.94 29.66 8 30 C7.67 29.01 7.34 28.02 7 27 C7.66 26.443125 8.32 25.88625 9 25.3125 C11.11781607 23.18431206 11.11781607 23.18431206 11.6875 20.6875 C10.74297281 16.99525734 8.64245342 15.39253822 5.890625 12.84765625 C3.14466561 10.16410503 1.14096899 7.17901456 -1 4 C-0.34 4 0.32 4 1 4 C0.67 2.68 0.34 1.36 0 0 Z " fill="#392B22" transform="translate(93,76)"/>
<path d="M0 0 C2 2 2 2 2.3125 5.25 C1.90470602 10.14352774 0.61058099 13.33388173 -2.8125 16.875 C-5.65201828 18.33532369 -7.85295141 18.21457149 -11 18 C-10.773125 19.216875 -10.54625 20.43375 -10.3125 21.6875 C-9.9220829 24.79983913 -9.93350276 25.8503812 -11.25 28.8125 C-11.8275 29.534375 -12.405 30.25625 -13 31 C-13.40347656 31.5465625 -13.80695313 32.093125 -14.22265625 32.65625 C-16.90364871 34.68319815 -18.92236114 34.07369922 -22.1875 33.6875 C-23.27417969 33.56761719 -24.36085937 33.44773438 -25.48046875 33.32421875 C-26.31191406 33.21722656 -27.14335937 33.11023438 -28 33 C-28 32.34 -28 31.68 -28 31 C-28.66 30.67 -29.32 30.34 -30 30 C-29.33613281 30.05800781 -28.67226562 30.11601562 -27.98828125 30.17578125 C-22.19871132 30.4853948 -22.19871132 30.4853948 -17.0625 28.0625 C-14.48215314 24.23107587 -13.18886507 20.4364965 -12 16 C-10.9275 15.9175 -9.855 15.835 -8.75 15.75 C-5.10309992 15.22964856 -5.10309992 15.22964856 -2.625 13.625 C-0.02365376 9.42282531 -0.16743488 4.85561141 0 0 Z " fill="#676260" transform="translate(204,175)"/>
<path d="M0 0 C0.33 0 0.66 0 1 0 C0.87147485 7.58298379 -1.57551697 12.48468863 -5.40625 18.984375 C-6.88416949 21.7808305 -7.4270126 23.93672121 -8 27 C-8.66 27.33 -9.32 27.66 -10 28 C-10.4683265 30.58605332 -10.4683265 30.58605332 -10.625 33.5625 C-10.69976562 34.57441406 -10.77453125 35.58632812 -10.8515625 36.62890625 C-10.90054688 37.41136719 -10.94953125 38.19382813 -11 39 C-11.33 39 -11.66 39 -12 39 C-12.81424036 24.90459472 -10.49193805 13.7051038 -2 2 C-1.34 2 -0.68 2 0 2 C0 1.34 0 0.68 0 0 Z " fill="#3C211A" transform="translate(73,88)"/>
<path d="M0 0 C4.49457587 1.46761661 7.75984913 3.97830424 11.3125 7 C12.13717773 7.67675781 12.13717773 7.67675781 12.97851562 8.3671875 C14.36189971 9.52888643 15.68650591 10.75982695 17 12 C17 12.66 17 13.32 17 14 C18.98 14 20.96 14 23 14 C23 14.99 23 15.98 23 17 C17.71247778 17.50357354 15.00968217 16.18242143 11 13 C10.06800781 12.29746094 9.13601562 11.59492187 8.17578125 10.87109375 C2.21360784 6.23724067 2.21360784 6.23724067 0 4 C0 2.68 0 1.36 0 0 Z " fill="#332922" transform="translate(78,90)"/>
<path d="M0 0 C0.78568359 -0.01611328 1.57136719 -0.03222656 2.38085938 -0.04882812 C7.33275827 -0.05297197 10.79063654 0.53612406 15.0625 3.3125 C15.9375 5.5 15.9375 5.5 16.0625 7.3125 C15.52625 7.003125 14.99 6.69375 14.4375 6.375 C5.78919633 2.50602204 -4.82638395 4.35881309 -13.9375 5.3125 C-13.9375 4.3225 -13.9375 3.3325 -13.9375 2.3125 C-9.29825299 -0.03045976 -5.07628249 -0.02071952 0 0 Z " fill="#301D18" transform="translate(119.9375,59.6875)"/>
<path d="M0 0 C0 8.72220434 -10.54890212 17.48001948 -16.37255859 23.40429688 C-27.71820805 34.52868404 -27.71820805 34.52868404 -35 37 C-35 37.66 -35 38.32 -35 39 C-36.45381897 39.69699552 -37.91322953 40.38233866 -39.375 41.0625 C-40.18710938 41.44535156 -40.99921875 41.82820313 -41.8359375 42.22265625 C-42.55007812 42.47917969 -43.26421875 42.73570312 -44 43 C-44.66 42.67 -45.32 42.34 -46 42 C-45.07960937 41.48953125 -44.15921875 40.9790625 -43.2109375 40.453125 C-25.50738328 30.38598203 -11.19658835 17.09148089 0 0 Z " fill="#B21403" transform="translate(224,187)"/>
<path d="M0 0 C1.14017578 -0.00926514 2.28035156 -0.01853027 3.45507812 -0.02807617 C10.2461572 -0.00283236 16.52940015 0.61182838 23.125 2.25 C19.53579297 3.25106807 16.72495288 3.1760195 13 2.8125 C3.7268597 1.91692777 -5.24913403 2.23401162 -14.5 3.1875 C-15.83417969 3.31801758 -15.83417969 3.31801758 -17.1953125 3.45117188 C-22.43334411 3.97112354 -27.65480185 4.57465968 -32.875 5.25 C-31.06851152 2.89511323 -29.94672724 2.26842444 -27.03125 1.51953125 C-18.01365204 0.3923315 -9.08868511 0.04638346 0 0 Z " fill="#B71503" transform="translate(126.875,13.75)"/>
<path d="M0 0 C4 0 4 0 6.5625 2.25 C8.50431234 4.44076264 10.31702936 6.60841014 12 9 C11.34 9 10.68 9 10 9 C9.67 9.66 9.34 10.32 9 11 C7.35636866 11.72159424 5.68949614 12.39351421 4 13 C4.020625 12.236875 4.04125 11.47375 4.0625 10.6875 C4.12942841 7.89814214 4.12942841 7.89814214 3 5 C1.02 5.66 -0.96 6.32 -3 7 C-3 6.34 -3 5.68 -3 5 C-5.64 5 -8.28 5 -11 5 C-11 4.67 -11 4.34 -11 4 C-10.37351563 3.87882812 -9.74703125 3.75765625 -9.1015625 3.6328125 C-8.28429688 3.46523437 -7.46703125 3.29765625 -6.625 3.125 C-5.81289063 2.96257812 -5.00078125 2.80015625 -4.1640625 2.6328125 C-1.81326077 2.13341068 -1.81326077 2.13341068 0 0 Z " fill="#43342D" transform="translate(69,82)"/>
<path d="M0 0 C0.66 0.33 1.32 0.66 2 1 C1.25556641 1.61875 1.25556641 1.61875 0.49609375 2.25 C-3.80660394 5.90770126 -7.6068586 9.70346698 -11.265625 14 C-13.05603862 16.06462111 -14.90399642 18.04417814 -16.8125 20 C-17.37582031 20.5775 -17.93914063 21.155 -18.51953125 21.75 C-20 23 -20 23 -22 23 C-22.268125 23.61875 -22.53625 24.2375 -22.8125 24.875 C-24 27 -24 27 -27 29 C-25.4585799 25.43082939 -23.30524541 22.91782231 -20.6875 20.0625 C-19.92824219 19.22847656 -19.16898438 18.39445312 -18.38671875 17.53515625 C-14.16176095 13.04743512 -9.76026157 8.81951347 -5.1875 4.6875 C-4.21167969 3.80449219 -3.23585938 2.92148437 -2.23046875 2.01171875 C-1.49441406 1.34785156 -0.75835937 0.68398438 0 0 Z " fill="#9E1202" transform="translate(61,34)"/>
<path d="M0 0 C0.66 0.33 1.32 0.66 2 1 C2.28571429 8.42857143 2.28571429 8.42857143 0 12 C-0.66 12 -1.32 12 -2 12 C-2 12.66 -2 13.32 -2 14 C-2.66 14 -3.32 14 -4 14 C-4 14.66 -4 15.32 -4 16 C-5.45742463 16.08096803 -6.91612807 16.13917774 -8.375 16.1875 C-9.18710938 16.22230469 -9.99921875 16.25710937 -10.8359375 16.29296875 C-11.55007812 16.19628906 -12.26421875 16.09960938 -13 16 C-13.66 15.01 -14.32 14.02 -15 13 C-12.03 13.33 -9.06 13.66 -6 14 C-6.33 13.01 -6.66 12.02 -7 11 C-6.401875 10.484375 -5.80375 9.96875 -5.1875 9.4375 C-2.4926464 6.43466313 -1.44279381 3.75126391 0 0 Z " fill="#523727" transform="translate(107,92)"/>
<path d="M0 0 C0.33 0 0.66 0 1 0 C1.33 4.62 1.66 9.24 2 14 C2.66 9.71 3.32 5.42 4 1 C4.99 1.33 5.98 1.66 7 2 C6.01 2.495 6.01 2.495 5 3 C5.02320313 3.6290625 5.04640625 4.258125 5.0703125 4.90625 C5.2173798 11.88144185 4.98196555 18.02705168 1 24 C0.67 22.68 0.34 21.36 0 20 C-0.66 20.66 -1.32 21.32 -2 22 C-1.84660156 21.18273437 -1.69320312 20.36546875 -1.53515625 19.5234375 C-0.9322218 15.55375228 -0.65842036 11.63053967 -0.4375 7.625 C-0.39431641 6.88894531 -0.35113281 6.15289062 -0.30664062 5.39453125 C-0.20156201 3.59651932 -0.10037907 1.79828042 0 0 Z " fill="#4C2A1A" transform="translate(143,79)"/>
<path d="M0 0 C0.33 0 0.66 0 1 0 C1.17835515 4.54805635 0.99785435 7.8794254 -1 12 C-1.66 12 -2.32 12 -3 12 C-3.4021875 13.1446875 -3.4021875 13.1446875 -3.8125 14.3125 C-4.94424112 16.87380884 -5.91223401 18.19692938 -8 20 C-7.20796135 12.23802124 -4.55316279 6.22265581 0 0 Z " fill="#261A14" transform="translate(143,98)"/>
<path d="M0 0 C0.66 0 1.32 0 2 0 C2.61875 0.99 2.61875 0.99 3.25 2 C4.90933823 4.3664015 4.90933823 4.3664015 8.1875 4.25 C9.115625 4.1675 10.04375 4.085 11 4 C10.67 4.66 10.34 5.32 10 6 C7.4375 6.625 7.4375 6.625 5 7 C6.32 7.99 7.64 8.98 9 10 C4.34204276 9.37054632 4.34204276 9.37054632 2.5 7.375 C2.005 6.92125 1.51 6.4675 1 6 C-1.65466049 6.23043864 -1.65466049 6.23043864 -4 7 C-4.33 6.34 -4.66 5.68 -5 5 C-6.32 5.99 -7.64 6.98 -9 8 C-7.61122646 4.64379729 -6.08322035 2.92701272 -3 1 C-2.34 1 -1.68 1 -1 1 C-0.67 0.67 -0.34 0.34 0 0 Z " fill="#3A2923" transform="translate(179,163)"/>
<path d="M0 0 C0.33 0 0.66 0 1 0 C0.38210766 7.53828658 0.38210766 7.53828658 -1.5 9.8125 C-2.2425 10.4003125 -2.2425 10.4003125 -3 11 C-3.33 11.99 -3.66 12.98 -4 14 C-7.31641105 16.33319272 -10.46919687 16.2987371 -14.4375 16.3125 C-16.10619141 16.33763672 -16.10619141 16.33763672 -17.80859375 16.36328125 C-21.32210104 15.96333489 -23.19562052 15.11863705 -26 13 C-26.8125 10.8125 -26.8125 10.8125 -27 9 C-21.125 12.875 -21.125 12.875 -20 14 C-13.75412679 14.42344903 -9.38889566 13.91445027 -4.4375 9.65625 C-2.80622604 7.7767387 -2.1197451 6.15735482 -1.3125 3.8125 C-1.06113281 3.09707031 -0.80976563 2.38164062 -0.55078125 1.64453125 C-0.36902344 1.10183594 -0.18726563 0.55914062 0 0 Z " fill="#9D2011" transform="translate(195,196)"/>
<path d="M0 0 C3.09612802 2.25172947 5.58126174 4.62502984 8 7.5625 C11.26339916 11.38780894 14.86143522 14.63276199 18.6875 17.875 C19.24630859 18.35138916 19.80511719 18.82777832 20.38085938 19.31860352 C23.11559581 21.60096214 25.70731707 23.60601745 29 25 C29 25.66 29 26.32 29 27 C22.4496715 24.68811935 17.75510732 20.97627511 13 16 C11.48000943 14.49914601 9.95909938 12.99922292 8.4375 11.5 C0 3.0484375 0 3.0484375 0 0 Z " fill="#AA1302" transform="translate(38,197)"/>
<path d="M0 0 C-1.07378906 0.45890625 -2.14757812 0.9178125 -3.25390625 1.390625 C-4.69019704 2.01020142 -6.12638974 2.63000526 -7.5625 3.25 C-8.26697266 3.55035156 -8.97144531 3.85070312 -9.69726562 4.16015625 C-13.20738291 5.68066788 -16.55271726 7.27299566 -19.83984375 9.234375 C-23 11 -23 11 -26 11 C-26.33 11.99 -26.66 12.98 -27 14 C-28.32 13.67 -29.64 13.34 -31 13 C-29.59138651 11.98868775 -28.17274547 10.99133233 -26.75 10 C-25.56664063 9.1646875 -25.56664063 9.1646875 -24.359375 8.3125 C-22 7 -22 7 -18 7 C-18 6.34 -18 5.68 -18 5 C-16.73542969 4.47599609 -16.73542969 4.47599609 -15.4453125 3.94140625 C-14.34960938 3.48636719 -13.25390625 3.03132813 -12.125 2.5625 C-10.48917969 1.88380859 -10.48917969 1.88380859 -8.8203125 1.19140625 C-3.50843558 -1.05253067 -3.50843558 -1.05253067 0 0 Z " fill="#9D1202" transform="translate(94,20)"/>
<path d="M0 0 C2.31 0 4.62 0 7 0 C6.51578947 5.44736842 6.51578947 5.44736842 4.25 7.875 C1.63695229 9.18152386 -0.11533524 9.24038873 -3 9 C-2.34 8.67 -1.68 8.34 -1 8 C-0.53476937 6.10466658 -0.53476937 6.10466658 -0.375 3.9375 C-0.25125 2.638125 -0.1275 1.33875 0 0 Z " fill="#E8E7E7" transform="translate(197,182)"/>
<path d="M0 0 C1.3609623 2.7219246 0.70366248 4.1831957 0.0625 7.125 C-0.13214844 8.03507812 -0.32679687 8.94515625 -0.52734375 9.8828125 C-0.68332031 10.58148438 -0.83929688 11.28015625 -1 12 C-1.60328125 12.18175781 -2.2065625 12.36351563 -2.828125 12.55078125 C-9.04405774 14.24466853 -9.04405774 14.24466853 -14 18 C-14.62222803 20.70347352 -14.81720001 23.21230011 -15 26 C-15.33 26 -15.66 26 -16 26 C-16.89108911 17.50165017 -16.89108911 17.50165017 -14.9453125 14.22265625 C-12.0434503 11.51686582 -9.45275879 10.72155479 -5.625 10.6875 C-3.830625 10.8421875 -3.830625 10.8421875 -2 11 C-2.061875 9.1128125 -2.061875 9.1128125 -2.125 7.1875 C-2.2390374 3.70935927 -2.05925681 3.08888522 0 0 Z " fill="#B8B7B6" transform="translate(67,53)"/>
<path d="M0 0 C0 0.66 0 1.32 0 2 C1.65 2 3.3 2 5 2 C0.35825067 5.09449956 -4.82477762 6.96127603 -10 9 C-9.67 7.68 -9.34 6.36 -9 5 C-9.66 4.67 -10.32 4.34 -11 4 C-9.5437455 3.32880451 -8.08492133 2.66318193 -6.625 2 C-5.81289062 1.62875 -5.00078125 1.2575 -4.1640625 0.875 C-2 0 -2 0 0 0 Z " fill="#46291D" transform="translate(106,63)"/>
<path d="M0 0 C0.33 0.66 0.66 1.32 1 2 C1.66 2 2.32 2 3 2 C3.4726477 10.19256018 3.4726477 10.19256018 1.5 13.5625 C1.005 14.036875 0.51 14.51125 0 15 C-0.33 14.34 -0.66 13.68 -1 13 C-1.33 14.32 -1.66 15.64 -2 17 C-2.66 17 -3.32 17 -4 17 C-3.67 14.69 -3.34 12.38 -3 10 C-2.01 9.67 -1.02 9.34 0 9 C0 6.03 0 3.06 0 0 Z " fill="#453E3C" transform="translate(87,56)"/>
<path d="M0 0 C3.465 1.485 3.465 1.485 7 3 C7 3.66 7 4.32 7 5 C9.97 5 12.94 5 16 5 C16.33 5.66 16.66 6.32 17 7 C13.26784596 8.24405135 9.86960943 8.66315341 6 8 C3.42188757 6.59425027 2.04837454 5.20200263 0 3 C0 2.01 0 1.02 0 0 Z " fill="#2A1915" transform="translate(169,203)"/>
<path d="M0 0 C1.98896417 3.97792835 0.31825573 8.93391345 -1 13 C-2.84779982 15.30362312 -4.46482423 16.40173701 -7 18 C-5.66666667 15.33333333 -4.33333333 12.66666667 -3 10 C-5.475 11.485 -5.475 11.485 -8 13 C-6.53181332 9.89257577 -4.79975 7.09528261 -2.875 4.25 C-2.33617187 3.45078125 -1.79734375 2.6515625 -1.2421875 1.828125 C-0.62730469 0.92320313 -0.62730469 0.92320313 0 0 Z " fill="#4D2919" transform="translate(136,109)"/>
<path d="M0 0 C0.33 0 0.66 0 1 0 C1.66 2.31 2.32 4.62 3 7 C3.33 7 3.66 7 4 7 C3.88512252 8.58409994 3.75765492 10.16728963 3.625 11.75 C3.55539063 12.63171875 3.48578125 13.5134375 3.4140625 14.421875 C3.00149945 16.99066382 2.28839043 18.75841015 1 21 C0 19 0 19 0.9375 15.875 C1.288125 14.92625 1.63875 13.9775 2 13 C1.34 13 0.68 13 0 13 C-0.33 13.66 -0.66 14.32 -1 15 C-0.67 10.05 -0.34 5.1 0 0 Z " fill="#432319" transform="translate(189,129)"/>
<path d="M0 0 C0.639375 0.165 1.27875 0.33 1.9375 0.5 C5.97586652 1.15932515 9.91807258 1.08003779 14 1 C13.67 2.32 13.34 3.64 13 5 C7.49633208 5.32374517 3.56327794 5.53286034 -1 2 C-0.67 1.34 -0.34 0.68 0 0 Z " fill="#301A16" transform="translate(53,85)"/>
<path d="M0 0 C5.38328888 0.68815505 10.26856173 2.30741635 15.375 4.0625 C16.20644531 4.34416016 17.03789063 4.62582031 17.89453125 4.91601562 C19.93108441 5.60657101 21.96573881 6.30272179 24 7 C17.62923295 8.83611627 12.67453581 7.0737069 7 4 C4.6812275 2.96265441 2.34228755 1.98376077 0 1 C0 0.67 0 0.34 0 0 Z " fill="#780D01" transform="translate(84,233)"/>
<path d="M0 0 C0.33 1.32 0.66 2.64 1 4 C-1.31 5.98 -3.62 7.96 -6 10 C-6 9.34 -6 8.68 -6 8 C-7.32 8.99 -8.64 9.98 -10 11 C-10.66 10.67 -11.32 10.34 -12 10 C-8.05692685 6.59100304 -4.09529452 3.22659568 0 0 Z " fill="#2F221B" transform="translate(174,167)"/>
<path d="M0 0 C0 0.33 0 0.66 0 1 C-3.74760669 1.70100082 -7.49836085 2.38343987 -11.25 3.0625 C-12.31347656 3.26166016 -13.37695312 3.46082031 -14.47265625 3.66601562 C-16.00986328 3.94155273 -16.00986328 3.94155273 -17.578125 4.22265625 C-18.52075195 4.39547119 -19.46337891 4.56828613 -20.43457031 4.74633789 C-22.95177234 4.99523139 -24.61780887 4.78671127 -27 4 C-23.46274682 1.64183121 -20.42332134 1.33553279 -16.3125 0.875 C-15.62994141 0.78863281 -14.94738281 0.70226563 -14.24414062 0.61328125 C-9.46834599 0.04505639 -4.80836821 -0.07555236 0 0 Z " fill="#7F0E01" transform="translate(121,14)"/>
<path d="M0 0 C0.33 0.99 0.66 1.98 1 3 C-0.9375 6.1875 -0.9375 6.1875 -3 9 C-6.3 8.67 -9.6 8.34 -13 8 C-13 7.34 -13 6.68 -13 6 C-13.66 5.67 -14.32 5.34 -15 5 C-14.00419922 5.08701172 -14.00419922 5.08701172 -12.98828125 5.17578125 C-7.88251083 5.58310864 -7.88251083 5.58310864 -3.22265625 3.88671875 C-1.70538271 2.38431777 -1.70538271 2.38431777 0 0 Z " fill="#676564" transform="translate(189,200)"/>
<path d="M0 0 C0.74507812 0.00451172 1.49015625 0.00902344 2.2578125 0.01367188 C4.0885764 0.02540754 5.91929873 0.0433415 7.75 0.0625 C7.75 0.3925 7.75 0.7225 7.75 1.0625 C-5.8832574 3.17411731 -5.8832574 3.17411731 -12.25 4.0625 C-12.25 3.0725 -12.25 2.0825 -12.25 1.0625 C-8.15996141 -0.08732602 -4.21822949 -0.04844256 0 0 Z " fill="#1F1714" transform="translate(118.25,60.9375)"/>
<path d="M0 0 C0.88171875 0.04640625 1.7634375 0.0928125 2.671875 0.140625 C3.56390625 0.17671875 4.4559375 0.2128125 5.375 0.25 C6.38820313 0.31960937 6.38820313 0.31960937 7.421875 0.390625 C7.421875 1.380625 7.421875 2.370625 7.421875 3.390625 C2.801875 3.720625 -1.818125 4.050625 -6.578125 4.390625 C-2.578125 0.390625 -2.578125 0.390625 0 0 Z " fill="#3D1711" transform="translate(73.578125,44.609375)"/>
<path d="M0 0 C1.33708769 4.01126306 0.21306194 5.57263102 -1.375 9.4375 C-3.50873298 14.6165309 -3.50873298 14.6165309 -5 20 C-5.66 20 -6.32 20 -7 20 C-6.70544888 12.34167083 -3.62827658 6.65738822 0 0 Z " fill="#A01202" transform="translate(25,78)"/>
<path d="M0 0 C0.33 0 0.66 0 1 0 C1.061875 1.216875 1.12375 2.43375 1.1875 3.6875 C1.72095429 8.18603248 3.54288599 10.06145309 7 13 C7.33 13.66 7.66 14.32 8 15 C6.02 15 4.04 15 2 15 C1.67 13.35 1.34 11.7 1 10 C0.01 10 -0.98 10 -2 10 C-1.85950482 8.52031676 -1.71245174 7.04125484 -1.5625 5.5625 C-1.48128906 4.73878906 -1.40007813 3.91507812 -1.31640625 3.06640625 C-1 1 -1 1 0 0 Z " fill="#3A3634" transform="translate(50,71)"/>
<path d="M0 0 C1.32 0.33 2.64 0.66 4 1 C6.03605164 4.60470778 6.22335994 7.73056252 6.125 11.8125 C6.10695313 12.78832031 6.08890625 13.76414062 6.0703125 14.76953125 C6.03550781 15.87361328 6.03550781 15.87361328 6 17 C5.67 17 5.34 17 5 17 C5 14.69 5 12.38 5 10 C4.34 10 3.68 10 3 10 C2.01 6.7 1.02 3.4 0 0 Z " fill="#581F18" transform="translate(85,48)"/>
<path d="M0 0 C0 0.66 0 1.32 0 2 C-0.60328125 2.13277344 -1.2065625 2.26554688 -1.828125 2.40234375 C-2.62734375 2.57894531 -3.4265625 2.75554687 -4.25 2.9375 C-5.03890625 3.11152344 -5.8278125 3.28554687 -6.640625 3.46484375 C-8.76878703 3.947556 -10.88532842 4.46163178 -13 5 C-13.66 4.01 -14.32 3.02 -15 2 C-9.75614911 0.2520497 -5.52677733 -0.19392201 0 0 Z " fill="#1B1715" transform="translate(198,167)"/>
<path d="M0 0 C2.97 0 5.94 0 9 0 C9 0.66 9 1.32 9 2 C9.99 2.33 10.98 2.66 12 3 C11.67 3.99 11.34 4.98 11 6 C7.37 5.34 3.74 4.68 0 4 C0 3.67 0 3.34 0 3 C2.31 3 4.62 3 7 3 C7 2.34 7 1.68 7 1 C4.69 1 2.38 1 0 1 C0 0.67 0 0.34 0 0 Z " fill="#3F2A26" transform="translate(191,166)"/>
<path d="M0 0 C0.66 0 1.32 0 2 0 C1.68817931 1.41681634 1.37551263 2.83344651 1.0625 4.25 C0.88847656 5.03890625 0.71445313 5.8278125 0.53515625 6.640625 C0.052444 8.76878703 -0.46163178 10.88532842 -1 13 C-1.99 12.67 -2.98 12.34 -4 12 C-3.52309796 10.37433394 -3.04340334 8.74948689 -2.5625 7.125 C-2.29566406 6.22007812 -2.02882812 5.31515625 -1.75390625 4.3828125 C-1 2 -1 2 0 0 Z " fill="#231815" transform="translate(189,142)"/>
<path d="M0 0 C0.66 0.33 1.32 0.66 2 1 C1.75 3.375 1.75 3.375 1 6 C-1.0625 7.3125 -1.0625 7.3125 -3 8 C-3 7.34 -3 6.68 -3 6 C-5.31 6.66 -7.62 7.32 -10 8 C-7.92141021 5.81907964 -5.78143382 4.03609531 -3.3125 2.3125 C-2.68988281 1.87550781 -2.06726563 1.43851563 -1.42578125 0.98828125 C-0.95527344 0.66214844 -0.48476562 0.33601562 0 0 Z " fill="#3E2317" transform="translate(119,129)"/>
<path d="M0 0 C0.33 0 0.66 0 1 0 C2.44395508 7.98524554 2.44395508 7.98524554 0.6875 12 C-1 14 -1 14 -3 15 C-3 14.34 -3 13.68 -3 13 C-3.66 12.67 -4.32 12.34 -5 12 C-4.52949219 11.60167969 -4.05898437 11.20335937 -3.57421875 10.79296875 C-1.68239447 8.6382607 -1.33939211 7.10908118 -0.8125 4.3125 C-0.65394531 3.50425781 -0.49539062 2.69601563 -0.33203125 1.86328125 C-0.22246094 1.24839844 -0.11289063 0.63351563 0 0 Z " fill="#291F1C" transform="translate(206,178)"/>
<path d="M0 0 C3.63 0.66 7.26 1.32 11 2 C11 2.99 11 3.98 11 5 C6.37390802 5.3227506 3.71973879 4.84450614 0 2 C0 1.34 0 0.68 0 0 Z " fill="#221C18" transform="translate(90,102)"/>
<path d="M0 0 C0.66 0.33 1.32 0.66 2 1 C-1.75 4 -1.75 4 -4 4 C-4 4.66 -4 5.32 -4 6 C-5.45381897 6.69699552 -6.91322953 7.38233866 -8.375 8.0625 C-9.18710938 8.44535156 -9.99921875 8.82820312 -10.8359375 9.22265625 C-11.55007812 9.47917969 -12.26421875 9.73570312 -13 10 C-13.66 9.67 -14.32 9.34 -15 9 C-12.54732365 7.46931512 -10.08866106 5.95031377 -7.625 4.4375 C-6.92632812 3.99986328 -6.22765625 3.56222656 -5.5078125 3.11132812 C-3.70814097 2.01249022 -1.85677657 0.99932133 0 0 Z " fill="#9F1202" transform="translate(193,220)"/>
<path d="M0 0 C0.66 0.33 1.32 0.66 2 1 C1.67 1.66 1.34 2.32 1 3 C2.65 3 4.3 3 6 3 C3.06279492 4.52299523 0.0831351 5.80100302 -3 7 C-3 6.34 -3 5.68 -3 5 C-3.66 4.67 -4.32 4.34 -5 4 C-3.35 2.68 -1.7 1.36 0 0 Z " fill="#3C2118" transform="translate(160,178)"/>
<path d="M0 0 C2.86724686 0.57344937 3.8614515 0.8614515 6 3 C6.1953125 5.1640625 6.1953125 5.1640625 6.125 7.625 C6.10695313 8.44226563 6.08890625 9.25953125 6.0703125 10.1015625 C6.03550781 11.04128906 6.03550781 11.04128906 6 12 C5.71382813 11.41605469 5.42765625 10.83210938 5.1328125 10.23046875 C4.10811084 8.21286652 3.01825944 6.26450964 1.875 4.3125 C0 1 0 1 0 0 Z " fill="#251E18" transform="translate(101,88)"/>
<path d="M0 0 C0.33 0 0.66 0 1 0 C1.33 3.63 1.66 7.26 2 11 C2.99 11.33 3.98 11.66 5 12 C5 13.65 5 15.3 5 17 C2 16 2 16 0 13 C-0.1953125 9.86328125 -0.1953125 9.86328125 -0.125 6.3125 C-0.09792969 4.54326172 -0.09792969 4.54326172 -0.0703125 2.73828125 C-0.04710937 1.83464844 -0.02390625 0.93101563 0 0 Z " fill="#491B14" transform="translate(47,69)"/>
<path d="M0 0 C2.375 0.25 2.375 0.25 5 1 C6.3125 3.0625 6.3125 3.0625 7 5 C6.01 4.67 5.02 4.34 4 4 C4.66 5.98 5.32 7.96 6 10 C2.79851787 7.86567858 2.47793261 7.31580104 1.3125 3.875 C1.06113281 3.15054688 0.80976563 2.42609375 0.55078125 1.6796875 C0.36902344 1.12539062 0.18726563 0.57109375 0 0 Z " fill="#41231A" transform="translate(181,111)"/>
<path d="M0 0 C0.33 1.32 0.66 2.64 1 4 C0.01 4.33 -0.98 4.66 -2 5 C-2.103125 5.721875 -2.20625 6.44375 -2.3125 7.1875 C-3.05986932 10.24491993 -4.28045189 12.38329635 -6 15 C-6.33 14.34 -6.66 13.68 -7 13 C-5.23261426 8.16294429 -2.96621084 4.19360843 0 0 Z " fill="#951102" transform="translate(33,63)"/>
<path d="M0 0 C3.7602985 0.58107632 6.53035032 1.65199496 9.8125 3.5625 C10.60269531 4.01753906 11.39289063 4.47257813 12.20703125 4.94140625 C12.79871094 5.29074219 13.39039062 5.64007813 14 6 C12.328125 6.6796875 12.328125 6.6796875 10 7 C7.421875 5.8203125 7.421875 5.8203125 4.75 4.125 C3.85796875 3.57070312 2.9659375 3.01640625 2.046875 2.4453125 C1.37140625 1.96835938 0.6959375 1.49140625 0 1 C0 0.67 0 0.34 0 0 Z " fill="#971102" transform="translate(70,226)"/>
<path d="M0 0 C0 0.99 0 1.98 0 3 C-5.41538462 6.07692308 -5.41538462 6.07692308 -8.375 5.6875 C-8.91125 5.460625 -9.4475 5.23375 -10 5 C-8.28489314 1.56978628 -3.75681361 0 0 0 Z " fill="#1F1714" transform="translate(157,183)"/>
<path d="M0 0 C-0.98093954 2.45234885 -1.68703828 3.7809268 -3.875 5.3125 C-6.35009306 6.1132654 -7.58287634 5.86325845 -10 5 C-4.03225806 0 -4.03225806 0 0 0 Z " fill="#1E1813" transform="translate(116,135)"/>
<path d="M0 0 C0.66 0 1.32 0 2 0 C2 0.99 2 1.98 2 3 C2.66 3 3.32 3 4 3 C4 4.65 4 6.3 4 8 C3.34 7.34 2.68 6.68 2 6 C-1.58343976 5.83322718 -1.58343976 5.83322718 -5 6 C-4.34 5.34 -3.68 4.68 -3 4 C-2.01 4 -1.02 4 0 4 C0 2.68 0 1.36 0 0 Z " fill="#581F17" transform="translate(61,55)"/>
<path d="M0 0 C0.66 0.33 1.32 0.66 2 1 C1.34 1.66 0.68 2.32 0 3 C0.33 3.66 0.66 4.32 1 5 C-0.32 5.33 -1.64 5.66 -3 6 C-3 5.34 -3 4.68 -3 4 C-5.31 4.33 -7.62 4.66 -10 5 C-6.76527494 2.84351662 -3.62848922 1.38542316 0 0 Z " fill="#402417" transform="translate(107,137)"/>
<path d="M0 0 C0.33 0 0.66 0 1 0 C1.02578125 0.62648437 1.0515625 1.25296875 1.078125 1.8984375 C1.13484375 2.71570313 1.1915625 3.53296875 1.25 4.375 C1.29640625 5.18710938 1.3428125 5.99921875 1.390625 6.8359375 C1.7922092 9.18838927 1.7922092 9.18838927 4.046875 10.2890625 C4.69140625 10.52367187 5.3359375 10.75828125 6 11 C4 12 4 12 1 12 C-1.83022097 8.00439392 -0.76210446 4.57262677 0 0 Z " fill="#464240" transform="translate(168,193)"/>
<path d="M0 0 C2.64 0 5.28 0 8 0 C7.34 1.65 6.68 3.3 6 5 C3.5625 4.1875 3.5625 4.1875 1 3 C0.67 2.01 0.34 1.02 0 0 Z " fill="#482312" transform="translate(84,147)"/>
<path d="M0 0 C1.53166168 4.08443115 0.63081652 7.79455657 0 12 C-0.66 12 -1.32 12 -2 12 C-2.05422947 10.5629191 -2.09289723 9.12524538 -2.125 7.6875 C-2.14820313 6.88699219 -2.17140625 6.08648437 -2.1953125 5.26171875 C-2 3 -2 3 0 0 Z " fill="#1D1815" transform="translate(168,189)"/>
<path d="M0 0 C-1.32 1.32 -2.64 2.64 -4 4 C-4.66 3.67 -5.32 3.34 -6 3 C-6 2.67 -6 2.34 -6 2 C-8.64 2 -11.28 2 -14 2 C-14 1.67 -14 1.34 -14 1 C-12.23103898 0.63659714 -10.45973374 0.28459117 -8.6875 -0.0625 C-7.70136719 -0.25972656 -6.71523437 -0.45695312 -5.69921875 -0.66015625 C-3 -1 -3 -1 0 0 Z " fill="#322A27" transform="translate(72,85)"/>
<path d="M0 0 C0.66 0.33 1.32 0.66 2 1 C1.125 6.75 1.125 6.75 0 9 C-0.66 9 -1.32 9 -2 9 C-2.25 3.375 -2.25 3.375 0 0 Z " fill="#2F1A16" transform="translate(65,49)"/>
<path d="M0 0 C1.66666667 0 3.33333333 0 5 0 C5 1.32 5 2.64 5 4 C3 5.75 3 5.75 1 7 C0.34 6.67 -0.32 6.34 -1 6 C-0.67 4.02 -0.34 2.04 0 0 Z " fill="#372C2A" transform="translate(168,184)"/>
<path d="M0 0 C0.33 0.66 0.66 1.32 1 2 C2.65 1.67 4.3 1.34 6 1 C3.6875 3.5 3.6875 3.5 1 6 C0.01 6 -0.98 6 -2 6 C-1.49396008 3.83125748 -1.00016187 2.00032373 0 0 Z " fill="#B73B2C" transform="translate(90,65)"/>
<path d="M0 0 C0.66 0.33 1.32 0.66 2 1 C0.6875 2.5 0.6875 2.5 -1 4 C-1.99 4 -2.98 4 -4 4 C-4.33 4.99 -4.66 5.98 -5 7 C-6.32 6.67 -7.64 6.34 -9 6 C-6.03 4.02 -3.06 2.04 0 0 Z " fill="#890F01" transform="translate(72,27)"/>
<path d="M0 0 C-0.33 0.99 -0.66 1.98 -1 3 C-5.455 3.495 -5.455 3.495 -10 4 C-6.41473576 0.41473576 -4.91253954 0 0 0 Z " fill="#1A1613" transform="translate(104,141)"/>
<path d="M0 0 C0.99 0 1.98 0 3 0 C2.32902328 4.19360449 0.1441606 7.40334352 -2 11 C-2.33 10.01 -2.66 9.02 -3 8 C-2.03114628 6.31503702 -1.03013277 4.64821244 0 3 C0 2.01 0 1.02 0 0 Z " fill="#B93C2D" transform="translate(69,87)"/>
<path d="M0 0 C0.33 0 0.66 0 1 0 C2.25 7.625 2.25 7.625 0 11 C0 10.34 0 9.68 0 9 C-0.66 9 -1.32 9 -2 9 C-1.34 6.03 -0.68 3.06 0 0 Z " fill="#2B2421" transform="translate(192,193)"/>
<path d="M0 0 C1.33332095 2.6666419 0.67102033 4.16680303 0 7 C-1.32 7.33 -2.64 7.66 -4 8 C-2.87548273 5.0280615 -1.77706209 2.66559313 0 0 Z " fill="#AF552A" transform="translate(139,97)"/>
<path d="M0 0 C2.31 1.98 4.62 3.96 7 6 C5 7 5 7 1 7 C0.67 4.69 0.34 2.38 0 0 Z " fill="#555351" transform="translate(51,79)"/>
<path d="M0 0 C0 0.66 0 1.32 0 2 C-1.98 2.99 -3.96 3.98 -6 5 C-6.33 4.01 -6.66 3.02 -7 2 C-4 0 -4 0 0 0 Z " fill="#282624" transform="translate(73,48)"/>
</svg>
