<svg xmlns="http://www.w3.org/2000/svg" xmlns:xlink="http://www.w3.org/1999/xlink" width="500" zoomAndPan="magnify" viewBox="0 0 375 374.999991" height="500" preserveAspectRatio="xMidYMid meet" version="1.0"><defs><clipPath id="5d32b5a6a4"><path d="M 9.003906 100 L 216 100 L 216 306.550781 L 9.003906 306.550781 Z M 9.003906 100 " clip-rule="nonzero"/></clipPath><clipPath id="89488c930f"><path d="M 160 69.085938 L 366.753906 69.085938 L 366.753906 276 L 160 276 Z M 160 69.085938 " clip-rule="nonzero"/></clipPath><clipPath id="ba24bbec7b"><path d="M 243.621094 243.621094 L 252.097656 243.621094 L 252.097656 252.097656 L 243.621094 252.097656 Z M 243.621094 243.621094 " clip-rule="nonzero"/></clipPath><clipPath id="9a6c5dfbf4"><path d="M 247.859375 243.621094 C 245.519531 243.621094 243.621094 245.519531 243.621094 247.859375 C 243.621094 250.199219 245.519531 252.097656 247.859375 252.097656 C 250.199219 252.097656 252.097656 250.199219 252.097656 247.859375 C 252.097656 245.519531 250.199219 243.621094 247.859375 243.621094 Z M 247.859375 243.621094 " clip-rule="nonzero"/></clipPath></defs><g clip-path="url(#5d32b5a6a4)"><path fill="#ef6401" d="M 162.042969 306.554688 L 34.523438 306.554688 C 20.453125 306.554688 9.003906 295.121094 9.003906 281.054688 L 9.003906 153.515625 C 9.003906 143 15.046875 133.972656 24.746094 129.957031 C 34.460938 125.96875 45.113281 128.054688 52.542969 135.496094 L 81.148438 164.085938 L 142.636719 102.585938 C 145.429688 99.785156 149.960938 99.785156 152.761719 102.585938 C 155.554688 105.378906 155.554688 109.910156 152.761719 112.703125 L 86.207031 179.269531 C 83.410156 182.070312 78.882812 182.070312 76.082031 179.269531 L 42.417969 145.613281 C 39.109375 142.304688 34.558594 141.414062 30.230469 143.179688 C 25.90625 144.972656 23.316406 148.835938 23.316406 153.515625 L 23.316406 281.054688 C 23.316406 287.222656 28.335938 292.238281 34.523438 292.238281 L 162.042969 292.238281 C 166.730469 292.238281 170.582031 289.65625 172.386719 285.332031 C 174.179688 281.011719 173.269531 276.457031 169.953125 273.140625 L 136.304688 239.484375 C 133.507812 236.691406 133.507812 232.160156 136.304688 229.367188 L 202.851562 162.800781 C 205.652344 160.003906 210.179688 160.003906 212.976562 162.800781 C 215.773438 165.59375 215.773438 170.128906 212.976562 172.921875 L 151.484375 234.425781 L 180.078125 263.019531 C 187.519531 270.460938 189.628906 281.09375 185.617188 290.8125 C 181.589844 300.519531 172.554688 306.554688 162.042969 306.554688 " fill-opacity="1" fill-rule="nonzero"/></g><g clip-path="url(#89488c930f)"><path fill="#ef6401" d="M 228.246094 275.15625 C 226.414062 275.15625 224.582031 274.453125 223.179688 273.054688 C 220.386719 270.261719 220.386719 265.730469 223.179688 262.9375 L 289.734375 196.371094 C 291.078125 195.027344 292.894531 194.273438 294.792969 194.273438 C 296.695312 194.273438 298.515625 195.027344 299.859375 196.371094 L 333.507812 230.039062 C 336.824219 233.335938 341.378906 234.246094 345.699219 232.453125 C 350.023438 230.667969 352.605469 226.808594 352.605469 222.125 L 352.605469 94.582031 C 352.605469 88.417969 347.589844 83.402344 341.421875 83.402344 L 213.902344 83.402344 C 209.214844 83.402344 205.359375 85.984375 203.554688 90.320312 C 201.761719 94.640625 202.671875 99.1875 205.988281 102.5 L 239.636719 136.148438 C 242.4375 138.949219 242.4375 143.480469 239.636719 146.273438 L 173.070312 212.839844 C 170.277344 215.632812 165.746094 215.632812 162.953125 212.839844 C 160.152344 210.046875 160.152344 205.515625 162.953125 202.714844 L 224.457031 141.214844 L 195.863281 112.621094 C 188.421875 105.199219 186.3125 94.558594 190.324219 84.839844 C 194.351562 75.125 203.386719 69.082031 213.902344 69.082031 L 341.421875 69.082031 C 355.488281 69.082031 366.929688 80.519531 366.929688 94.582031 L 366.929688 222.125 C 366.929688 232.632812 360.898438 241.65625 351.199219 245.679688 C 341.503906 249.695312 330.839844 247.597656 323.386719 240.15625 L 294.792969 211.550781 L 233.304688 273.054688 C 231.902344 274.453125 230.074219 275.15625 228.246094 275.15625 " fill-opacity="1" fill-rule="nonzero"/></g><g clip-path="url(#ba24bbec7b)"><g clip-path="url(#9a6c5dfbf4)"><path fill="#ef6401" d="M 243.621094 243.621094 L 252.097656 243.621094 L 252.097656 252.097656 L 243.621094 252.097656 Z M 243.621094 243.621094 " fill-opacity="1" fill-rule="nonzero"/></g></g></svg>