<svg xmlns="http://www.w3.org/2000/svg" xmlns:xlink="http://www.w3.org/1999/xlink" width="2400" zoomAndPan="magnify" viewBox="0 0 1800 314.999992" height="420" preserveAspectRatio="xMidYMid meet" version="1.0"><defs><g/><clipPath id="f07dc64cd3"><path d="M 0 65 L 219 65 L 219 283.25 L 0 283.25 Z M 0 65 " clip-rule="nonzero"/></clipPath><clipPath id="1ff594c43a"><path d="M 160 31.808594 L 378.75 31.808594 L 378.75 251 L 160 251 Z M 160 31.808594 " clip-rule="nonzero"/></clipPath></defs><g clip-path="url(#f07dc64cd3)"><path fill="#ef6401" d="M 162.042969 283.25 L 27.019531 283.25 C 12.125 283.25 0 271.148438 0 256.25 L 0 121.207031 C 0 110.074219 6.398438 100.515625 16.667969 96.261719 C 26.957031 92.042969 38.238281 94.25 46.101562 102.128906 L 76.390625 132.398438 L 141.496094 67.28125 C 144.457031 64.316406 149.253906 64.316406 152.21875 67.28125 C 155.175781 70.238281 155.175781 75.035156 152.21875 77.996094 L 81.75 148.476562 C 78.785156 151.441406 73.992188 151.441406 71.027344 148.476562 L 35.378906 112.84375 C 31.875 109.339844 27.058594 108.390625 22.476562 110.265625 C 17.898438 112.164062 15.15625 116.25 15.15625 121.207031 L 15.15625 256.25 C 15.15625 262.78125 20.46875 268.09375 27.019531 268.09375 L 162.042969 268.09375 C 167.007812 268.09375 171.089844 265.359375 173 260.78125 C 174.898438 256.207031 173.933594 251.382812 170.421875 247.871094 L 134.792969 212.238281 C 131.832031 209.277344 131.832031 204.480469 134.792969 201.523438 L 205.257812 131.039062 C 208.222656 128.074219 213.015625 128.074219 215.976562 131.039062 C 218.9375 133.996094 218.9375 138.796875 215.976562 141.753906 L 150.867188 206.878906 L 181.144531 237.15625 C 189.019531 245.035156 191.253906 256.292969 187.007812 266.582031 C 182.742188 276.859375 173.175781 283.25 162.042969 283.25 " fill-opacity="1" fill-rule="nonzero"/></g><g clip-path="url(#1ff594c43a)"><path fill="#ef6401" d="M 232.144531 250.003906 C 230.203125 250.003906 228.265625 249.261719 226.78125 247.78125 C 223.824219 244.824219 223.824219 240.027344 226.78125 237.066406 L 297.25 166.585938 C 298.671875 165.164062 300.597656 164.363281 302.609375 164.363281 C 304.621094 164.363281 306.550781 165.164062 307.972656 166.585938 L 343.601562 202.234375 C 347.109375 205.722656 351.933594 206.6875 356.511719 204.789062 C 361.085938 202.898438 363.824219 198.8125 363.824219 193.855469 L 363.824219 58.804688 C 363.824219 52.28125 358.511719 46.96875 351.980469 46.96875 L 216.957031 46.96875 C 211.992188 46.96875 207.910156 49.703125 206 54.292969 C 204.101562 58.871094 205.066406 63.679688 208.578125 67.191406 L 244.207031 102.820312 C 247.167969 105.785156 247.167969 110.582031 244.207031 113.539062 L 173.722656 184.023438 C 170.765625 186.980469 165.964844 186.980469 163.007812 184.023438 C 160.042969 181.0625 160.042969 176.265625 163.007812 173.300781 L 228.132812 108.183594 L 197.855469 77.90625 C 189.980469 70.046875 187.746094 58.78125 191.992188 48.492188 C 196.257812 38.203125 205.824219 31.804688 216.957031 31.804688 L 351.980469 31.804688 C 366.875 31.804688 378.988281 43.914062 378.988281 58.804688 L 378.988281 193.855469 C 378.988281 204.980469 372.601562 214.535156 362.332031 218.792969 C 352.066406 223.046875 340.773438 220.824219 332.886719 212.949219 L 302.609375 182.65625 L 237.503906 247.78125 C 236.015625 249.261719 234.082031 250.003906 232.144531 250.003906 " fill-opacity="1" fill-rule="nonzero"/></g><g fill="#212529" fill-opacity="1"><g transform="translate(414.52733, 213.749986)"><g><path d="M 54.1875 -104.9375 C 61.707031 -104.9375 68.132812 -103.5625 73.46875 -100.8125 C 78.800781 -98.0625 82.832031 -94.207031 85.5625 -89.25 C 88.289062 -84.300781 89.65625 -78.550781 89.65625 -72 C 89.65625 -65.4375 88.289062 -59.691406 85.5625 -54.765625 C 82.832031 -49.835938 78.800781 -46 73.46875 -43.25 C 68.132812 -40.5 61.707031 -39.125 54.1875 -39.125 L 34.375 -39.125 L 34.375 0 L 13.640625 0 L 13.640625 -104.9375 Z M 51.46875 -55.5625 C 63 -55.5625 68.765625 -61.039062 68.765625 -72 C 68.765625 -83 63 -88.5 51.46875 -88.5 L 34.375 -88.5 L 34.375 -55.5625 Z M 51.46875 -55.5625 "/></g></g><g transform="translate(510.421855, 213.749986)"><g><path d="M 46.015625 1.5 C 38.253906 1.5 31.441406 -0.0859375 25.578125 -3.265625 C 19.722656 -6.453125 15.179688 -11.117188 11.953125 -17.265625 C 8.722656 -23.410156 7.109375 -30.835938 7.109375 -39.546875 C 7.109375 -48.253906 8.722656 -55.691406 11.953125 -61.859375 C 15.179688 -68.035156 19.722656 -72.710938 25.578125 -75.890625 C 31.441406 -79.078125 38.253906 -80.671875 46.015625 -80.671875 C 53.765625 -80.671875 60.566406 -79.078125 66.421875 -75.890625 C 72.285156 -72.710938 76.84375 -68.035156 80.09375 -61.859375 C 83.351562 -55.691406 84.984375 -48.253906 84.984375 -39.546875 C 84.984375 -30.835938 83.351562 -23.410156 80.09375 -17.265625 C 76.84375 -11.117188 72.285156 -6.453125 66.421875 -3.265625 C 60.566406 -0.0859375 53.765625 1.5 46.015625 1.5 Z M 46.015625 -15.359375 C 58.304688 -15.359375 64.453125 -23.421875 64.453125 -39.546875 C 64.453125 -47.921875 62.875 -54.054688 59.71875 -57.953125 C 56.5625 -61.859375 51.992188 -63.8125 46.015625 -63.8125 C 33.710938 -63.8125 27.5625 -55.722656 27.5625 -39.546875 C 27.5625 -23.421875 33.710938 -15.359375 46.015625 -15.359375 Z M 46.015625 -15.359375 "/></g></g><g transform="translate(602.440403, 213.749986)"><g><path d="M 37.03125 1.5 C 31.625 1.5 26.671875 0.867188 22.171875 -0.390625 C 17.679688 -1.660156 13.84375 -3.40625 10.65625 -5.625 C 7.476562 -7.851562 5.125 -10.40625 3.59375 -13.28125 L 14.640625 -25.1875 L 16.15625 -25.1875 C 18.78125 -21.644531 21.882812 -18.988281 25.46875 -17.21875 C 29.0625 -15.457031 32.96875 -14.578125 37.1875 -14.578125 C 41.0625 -14.578125 43.976562 -15.269531 45.9375 -16.65625 C 47.894531 -18.039062 48.875 -20.023438 48.875 -22.609375 C 48.875 -24.617188 48.164062 -26.304688 46.75 -27.671875 C 45.34375 -29.035156 43.0625 -30.097656 39.90625 -30.859375 L 29.421875 -33.375 C 21.578125 -35.238281 15.847656 -38.097656 12.234375 -41.953125 C 8.617188 -45.804688 6.8125 -50.695312 6.8125 -56.625 C 6.8125 -61.5625 8.066406 -65.847656 10.578125 -69.484375 C 13.097656 -73.117188 16.640625 -75.890625 21.203125 -77.796875 C 25.773438 -79.710938 31.101562 -80.671875 37.1875 -80.671875 C 44.3125 -80.671875 50.21875 -79.640625 54.90625 -77.578125 C 59.59375 -75.523438 63.253906 -72.78125 65.890625 -69.34375 L 55.265625 -57.859375 L 53.828125 -57.859375 C 51.628906 -60.335938 49.15625 -62.148438 46.40625 -63.296875 C 43.65625 -64.453125 40.582031 -65.03125 37.1875 -65.03125 C 29.332031 -65.03125 25.40625 -62.585938 25.40625 -57.703125 C 25.40625 -55.648438 26.132812 -53.976562 27.59375 -52.6875 C 29.050781 -51.394531 31.625 -50.34375 35.3125 -49.53125 L 45.078125 -47.375 C 53.117188 -45.65625 58.992188 -42.890625 62.703125 -39.078125 C 66.410156 -35.273438 68.265625 -30.171875 68.265625 -23.765625 C 68.265625 -18.734375 67.019531 -14.300781 64.53125 -10.46875 C 62.039062 -6.644531 58.453125 -3.691406 53.765625 -1.609375 C 49.078125 0.460938 43.5 1.5 37.03125 1.5 Z M 37.03125 1.5 "/></g></g><g transform="translate(675.437956, 213.749986)"><g><path d="M 21.3125 -88.640625 C 17.726562 -88.640625 14.8125 -89.726562 12.5625 -91.90625 C 10.3125 -94.082031 9.1875 -96.894531 9.1875 -100.34375 C 9.1875 -103.738281 10.3125 -106.523438 12.5625 -108.703125 C 14.8125 -110.878906 17.726562 -111.96875 21.3125 -111.96875 C 23.707031 -111.96875 25.835938 -111.460938 27.703125 -110.453125 C 29.566406 -109.453125 31.015625 -108.078125 32.046875 -106.328125 C 33.078125 -104.585938 33.59375 -102.59375 33.59375 -100.34375 C 33.59375 -98.09375 33.078125 -96.082031 32.046875 -94.3125 C 31.015625 -92.539062 29.566406 -91.148438 27.703125 -90.140625 C 25.835938 -89.140625 23.707031 -88.640625 21.3125 -88.640625 Z M 11.40625 0 L 11.40625 -79.171875 L 31.296875 -79.171875 L 31.296875 0 Z M 11.40625 0 "/></g></g><g transform="translate(718.073695, 213.749986)"><g><path d="M 54.625 -18.875 L 59.796875 -4.15625 C 57.640625 -2.382812 54.929688 -1 51.671875 0 C 48.421875 1 44.738281 1.5 40.625 1.5 C 32.0625 1.5 25.550781 -0.828125 21.09375 -5.484375 C 16.644531 -10.148438 14.421875 -16.9375 14.421875 -25.84375 L 14.421875 -63.453125 L 2.375 -63.453125 L 2.375 -79.25 L 14.421875 -79.25 L 14.421875 -94.671875 L 34.3125 -97.90625 L 34.3125 -79.25 L 56.78125 -79.25 L 56.78125 -63.453125 L 34.3125 -63.453125 L 34.3125 -27.28125 C 34.3125 -23.351562 35.125 -20.488281 36.75 -18.6875 C 38.375 -16.894531 40.742188 -16 43.859375 -16 C 47.398438 -16 50.484375 -16.957031 53.109375 -18.875 Z M 54.625 -18.875 "/></g></g><g transform="translate(779.586875, 213.749986)"><g><path d="M 21.3125 -88.640625 C 17.726562 -88.640625 14.8125 -89.726562 12.5625 -91.90625 C 10.3125 -94.082031 9.1875 -96.894531 9.1875 -100.34375 C 9.1875 -103.738281 10.3125 -106.523438 12.5625 -108.703125 C 14.8125 -110.878906 17.726562 -111.96875 21.3125 -111.96875 C 23.707031 -111.96875 25.835938 -111.460938 27.703125 -110.453125 C 29.566406 -109.453125 31.015625 -108.078125 32.046875 -106.328125 C 33.078125 -104.585938 33.59375 -102.59375 33.59375 -100.34375 C 33.59375 -98.09375 33.078125 -96.082031 32.046875 -94.3125 C 31.015625 -92.539062 29.566406 -91.148438 27.703125 -90.140625 C 25.835938 -89.140625 23.707031 -88.640625 21.3125 -88.640625 Z M 11.40625 0 L 11.40625 -79.171875 L 31.296875 -79.171875 L 31.296875 0 Z M 11.40625 0 "/></g></g><g transform="translate(822.222613, 213.749986)"><g><path d="M 46.015625 1.5 C 38.253906 1.5 31.441406 -0.0859375 25.578125 -3.265625 C 19.722656 -6.453125 15.179688 -11.117188 11.953125 -17.265625 C 8.722656 -23.410156 7.109375 -30.835938 7.109375 -39.546875 C 7.109375 -48.253906 8.722656 -55.691406 11.953125 -61.859375 C 15.179688 -68.035156 19.722656 -72.710938 25.578125 -75.890625 C 31.441406 -79.078125 38.253906 -80.671875 46.015625 -80.671875 C 53.765625 -80.671875 60.566406 -79.078125 66.421875 -75.890625 C 72.285156 -72.710938 76.84375 -68.035156 80.09375 -61.859375 C 83.351562 -55.691406 84.984375 -48.253906 84.984375 -39.546875 C 84.984375 -30.835938 83.351562 -23.410156 80.09375 -17.265625 C 76.84375 -11.117188 72.285156 -6.453125 66.421875 -3.265625 C 60.566406 -0.0859375 53.765625 1.5 46.015625 1.5 Z M 46.015625 -15.359375 C 58.304688 -15.359375 64.453125 -23.421875 64.453125 -39.546875 C 64.453125 -47.921875 62.875 -54.054688 59.71875 -57.953125 C 56.5625 -61.859375 51.992188 -63.8125 46.015625 -63.8125 C 33.710938 -63.8125 27.5625 -55.722656 27.5625 -39.546875 C 27.5625 -23.421875 33.710938 -15.359375 46.015625 -15.359375 Z M 46.015625 -15.359375 "/></g></g><g transform="translate(914.241162, 213.749986)"><g><path d="M 11.40625 0 L 11.40625 -79.171875 L 30.5 -79.171875 L 30.5 -67.546875 L 32.015625 -67.1875 C 36.941406 -76.175781 44.929688 -80.671875 55.984375 -80.671875 C 65.128906 -80.671875 71.84375 -78.179688 76.125 -73.203125 C 80.40625 -68.234375 82.546875 -60.988281 82.546875 -51.46875 L 82.546875 0 L 62.65625 0 L 62.65625 -49.03125 C 62.65625 -54.289062 61.601562 -58.078125 59.5 -60.390625 C 57.394531 -62.710938 54.023438 -63.875 49.390625 -63.875 C 43.691406 -63.875 39.25 -62.03125 36.0625 -58.34375 C 32.882812 -54.664062 31.296875 -48.878906 31.296875 -40.984375 L 31.296875 0 Z M 11.40625 0 "/></g></g><g transform="translate(1006.977484, 213.749986)"><g><path d="M 37.03125 1.5 C 31.625 1.5 26.671875 0.867188 22.171875 -0.390625 C 17.679688 -1.660156 13.84375 -3.40625 10.65625 -5.625 C 7.476562 -7.851562 5.125 -10.40625 3.59375 -13.28125 L 14.640625 -25.1875 L 16.15625 -25.1875 C 18.78125 -21.644531 21.882812 -18.988281 25.46875 -17.21875 C 29.0625 -15.457031 32.96875 -14.578125 37.1875 -14.578125 C 41.0625 -14.578125 43.976562 -15.269531 45.9375 -16.65625 C 47.894531 -18.039062 48.875 -20.023438 48.875 -22.609375 C 48.875 -24.617188 48.164062 -26.304688 46.75 -27.671875 C 45.34375 -29.035156 43.0625 -30.097656 39.90625 -30.859375 L 29.421875 -33.375 C 21.578125 -35.238281 15.847656 -38.097656 12.234375 -41.953125 C 8.617188 -45.804688 6.8125 -50.695312 6.8125 -56.625 C 6.8125 -61.5625 8.066406 -65.847656 10.578125 -69.484375 C 13.097656 -73.117188 16.640625 -75.890625 21.203125 -77.796875 C 25.773438 -79.710938 31.101562 -80.671875 37.1875 -80.671875 C 44.3125 -80.671875 50.21875 -79.640625 54.90625 -77.578125 C 59.59375 -75.523438 63.253906 -72.78125 65.890625 -69.34375 L 55.265625 -57.859375 L 53.828125 -57.859375 C 51.628906 -60.335938 49.15625 -62.148438 46.40625 -63.296875 C 43.65625 -64.453125 40.582031 -65.03125 37.1875 -65.03125 C 29.332031 -65.03125 25.40625 -62.585938 25.40625 -57.703125 C 25.40625 -55.648438 26.132812 -53.976562 27.59375 -52.6875 C 29.050781 -51.394531 31.625 -50.34375 35.3125 -49.53125 L 45.078125 -47.375 C 53.117188 -45.65625 58.992188 -42.890625 62.703125 -39.078125 C 66.410156 -35.273438 68.265625 -30.171875 68.265625 -23.765625 C 68.265625 -18.734375 67.019531 -14.300781 64.53125 -10.46875 C 62.039062 -6.644531 58.453125 -3.691406 53.765625 -1.609375 C 49.078125 0.460938 43.5 1.5 37.03125 1.5 Z M 37.03125 1.5 "/></g></g><g transform="translate(1079.975038, 213.749986)"><g/></g><g transform="translate(1114.643492, 213.749986)"><g><path d="M 34.375 -46.078125 L 34.375 -17.375 L 84.484375 -17.375 L 84.484375 0 L 13.640625 0 L 13.640625 -104.9375 L 83.328125 -104.9375 L 83.328125 -87.5625 L 34.375 -87.5625 L 34.375 -63.015625 L 77.15625 -63.015625 L 77.15625 -46.078125 Z M 34.375 -46.078125 "/></g></g><g transform="translate(1204.867607, 213.749986)"><g><path d="M 22.328125 0 L 1.359375 0 L 23.96875 -41.0625 L 2.578125 -79.171875 L 23.828125 -79.171875 L 37.546875 -53.109375 L 39.1875 -53.109375 L 52.96875 -79.171875 L 73.578125 -79.171875 L 52.828125 -41.0625 L 74.796875 0 L 53.625 0 L 38.6875 -28.921875 L 37.03125 -28.921875 Z M 22.328125 0 "/></g></g><g transform="translate(1281.023364, 213.749986)"><g><path d="M 46.15625 1.5 C 38.5 1.5 31.726562 -0.0859375 25.84375 -3.265625 C 19.957031 -6.453125 15.363281 -11.128906 12.0625 -17.296875 C 8.757812 -23.472656 7.109375 -30.890625 7.109375 -39.546875 C 7.109375 -48.253906 8.757812 -55.691406 12.0625 -61.859375 C 15.363281 -68.035156 19.929688 -72.710938 25.765625 -75.890625 C 31.609375 -79.078125 38.285156 -80.671875 45.796875 -80.671875 C 62.492188 -80.671875 73.1875 -74.617188 77.875 -62.515625 L 64.234375 -52.75 L 62.734375 -52.75 C 61.109375 -56.488281 58.988281 -59.265625 56.375 -61.078125 C 53.769531 -62.898438 50.242188 -63.8125 45.796875 -63.8125 C 40.054688 -63.8125 35.582031 -61.820312 32.375 -57.84375 C 29.164062 -53.875 27.5625 -47.773438 27.5625 -39.546875 C 27.5625 -31.410156 29.1875 -25.34375 32.4375 -21.34375 C 35.695312 -17.351562 40.269531 -15.359375 46.15625 -15.359375 C 50.457031 -15.359375 54.101562 -16.519531 57.09375 -18.84375 C 60.082031 -21.164062 62.222656 -24.503906 63.515625 -28.859375 L 65.03125 -29 L 79.171875 -21.25 C 77.160156 -14.550781 73.4375 -9.082031 68 -4.84375 C 62.570312 -0.613281 55.289062 1.5 46.15625 1.5 Z M 46.15625 1.5 "/></g></g><g transform="translate(1362.634198, 213.749986)"><g><path d="M 11.40625 0 L 11.40625 -110.96875 L 31.296875 -110.96875 L 31.296875 -68.828125 L 32.796875 -68.546875 C 35.429688 -72.421875 38.660156 -75.410156 42.484375 -77.515625 C 46.316406 -79.617188 50.9375 -80.671875 56.34375 -80.671875 C 73.8125 -80.671875 82.546875 -70.769531 82.546875 -50.96875 L 82.546875 0 L 62.65625 0 L 62.65625 -48.453125 C 62.65625 -53.859375 61.578125 -57.78125 59.421875 -60.21875 C 57.273438 -62.65625 53.929688 -63.875 49.390625 -63.875 C 43.835938 -63.875 39.429688 -62.019531 36.171875 -58.3125 C 32.921875 -54.601562 31.296875 -48.828125 31.296875 -40.984375 L 31.296875 0 Z M 11.40625 0 "/></g></g><g transform="translate(1455.370521, 213.749986)"><g><path d="M 30.859375 1.5 C 25.785156 1.5 21.382812 0.566406 17.65625 -1.296875 C 13.925781 -3.160156 11.054688 -5.898438 9.046875 -9.515625 C 7.035156 -13.128906 6.03125 -17.46875 6.03125 -22.53125 C 6.03125 -27.226562 7.035156 -31.164062 9.046875 -34.34375 C 11.054688 -37.53125 14.164062 -40.140625 18.375 -42.171875 C 22.582031 -44.203125 28.085938 -45.769531 34.890625 -46.875 C 39.617188 -47.632812 43.21875 -48.46875 45.6875 -49.375 C 48.15625 -50.289062 49.816406 -51.320312 50.671875 -52.46875 C 51.535156 -53.613281 51.96875 -55.070312 51.96875 -56.84375 C 51.96875 -59.382812 51.082031 -61.320312 49.3125 -62.65625 C 47.539062 -64 44.597656 -64.671875 40.484375 -64.671875 C 36.078125 -64.671875 31.890625 -63.6875 27.921875 -61.71875 C 23.953125 -59.757812 20.503906 -57.179688 17.578125 -53.984375 L 16.15625 -53.984375 L 7.828125 -66.53125 C 11.847656 -70.988281 16.75 -74.457031 22.53125 -76.9375 C 28.320312 -79.425781 34.640625 -80.671875 41.484375 -80.671875 C 51.960938 -80.671875 59.546875 -78.445312 64.234375 -74 C 68.929688 -69.550781 71.28125 -63.234375 71.28125 -55.046875 L 71.28125 -20.671875 C 71.28125 -17.128906 72.832031 -15.359375 75.9375 -15.359375 C 77.132812 -15.359375 78.304688 -15.570312 79.453125 -16 L 80.46875 -15.71875 L 81.890625 -1.859375 C 80.796875 -1.148438 79.265625 -0.566406 77.296875 -0.109375 C 75.335938 0.347656 73.1875 0.578125 70.84375 0.578125 C 66.101562 0.578125 62.40625 -0.328125 59.75 -2.140625 C 57.09375 -3.960938 55.191406 -6.8125 54.046875 -10.6875 L 52.546875 -10.84375 C 48.671875 -2.613281 41.441406 1.5 30.859375 1.5 Z M 37.1875 -13.34375 C 41.78125 -13.34375 45.453125 -14.882812 48.203125 -17.96875 C 50.953125 -21.0625 52.328125 -25.359375 52.328125 -30.859375 L 52.328125 -38.90625 L 50.96875 -39.1875 C 49.769531 -38.226562 48.203125 -37.425781 46.265625 -36.78125 C 44.328125 -36.132812 41.539062 -35.503906 37.90625 -34.890625 C 33.59375 -34.171875 30.488281 -32.9375 28.59375 -31.1875 C 26.707031 -29.4375 25.765625 -26.960938 25.765625 -23.765625 C 25.765625 -20.359375 26.769531 -17.769531 28.78125 -16 C 30.789062 -14.226562 33.59375 -13.34375 37.1875 -13.34375 Z M 37.1875 -13.34375 "/></g></g><g transform="translate(1538.847565, 213.749986)"><g><path d="M 11.40625 0 L 11.40625 -79.171875 L 30.5 -79.171875 L 30.5 -67.546875 L 32.015625 -67.1875 C 36.941406 -76.175781 44.929688 -80.671875 55.984375 -80.671875 C 65.128906 -80.671875 71.84375 -78.179688 76.125 -73.203125 C 80.40625 -68.234375 82.546875 -60.988281 82.546875 -51.46875 L 82.546875 0 L 62.65625 0 L 62.65625 -49.03125 C 62.65625 -54.289062 61.601562 -58.078125 59.5 -60.390625 C 57.394531 -62.710938 54.023438 -63.875 49.390625 -63.875 C 43.691406 -63.875 39.25 -62.03125 36.0625 -58.34375 C 32.882812 -54.664062 31.296875 -48.878906 31.296875 -40.984375 L 31.296875 0 Z M 11.40625 0 "/></g></g><g transform="translate(1631.583888, 213.749986)"><g><path d="M 41.0625 33.59375 C 28 33.59375 18.351562 31.675781 12.125 27.84375 C 5.90625 24.019531 2.796875 18.6875 2.796875 11.84375 C 2.796875 7.675781 4.125 4.265625 6.78125 1.609375 C 9.4375 -1.046875 13.253906 -2.828125 18.234375 -3.734375 L 18.234375 -5.234375 C 15.554688 -6.867188 13.628906 -8.675781 12.453125 -10.65625 C 11.273438 -12.644531 10.6875 -14.953125 10.6875 -17.578125 C 10.6875 -23.941406 14.828125 -28.226562 23.109375 -30.4375 L 23.109375 -31.9375 C 18.847656 -34.382812 15.640625 -37.410156 13.484375 -41.015625 C 11.335938 -44.628906 10.265625 -49 10.265625 -54.125 C 10.265625 -59.382812 11.472656 -64.007812 13.890625 -68 C 16.304688 -72 19.847656 -75.109375 24.515625 -77.328125 C 29.179688 -79.554688 34.765625 -80.671875 41.265625 -80.671875 C 47.867188 -80.671875 53.132812 -79.523438 57.0625 -77.234375 C 59.5 -80.773438 60.910156 -84.863281 61.296875 -89.5 L 62.8125 -90.4375 L 77.09375 -86.921875 C 76.65625 -83.140625 75.550781 -79.96875 73.78125 -77.40625 C 72.007812 -74.851562 69.257812 -72.570312 65.53125 -70.5625 L 65.53125 -68.984375 C 69.976562 -65.054688 72.203125 -59.578125 72.203125 -52.546875 C 72.203125 -47.660156 70.984375 -43.28125 68.546875 -39.40625 C 66.109375 -35.53125 62.554688 -32.46875 57.890625 -30.21875 C 53.222656 -27.96875 47.679688 -26.84375 41.265625 -26.84375 L 38.25 -26.921875 C 36.34375 -27.015625 35.003906 -27.0625 34.234375 -27.0625 C 32.421875 -27.0625 31 -26.570312 29.96875 -25.59375 C 28.9375 -24.613281 28.421875 -23.359375 28.421875 -21.828125 C 28.421875 -20.148438 29.085938 -18.84375 30.421875 -17.90625 C 31.765625 -16.976562 33.726562 -16.460938 36.3125 -16.359375 L 54.046875 -15.71875 C 71.554688 -15.195312 80.3125 -7.660156 80.3125 6.890625 C 80.3125 12.015625 79.007812 16.570312 76.40625 20.5625 C 73.800781 24.5625 69.578125 27.734375 63.734375 30.078125 C 57.898438 32.421875 50.34375 33.59375 41.0625 33.59375 Z M 41.265625 -40.765625 C 45.097656 -40.765625 48.085938 -41.890625 50.234375 -44.140625 C 52.390625 -46.390625 53.46875 -49.597656 53.46875 -53.765625 C 53.46875 -57.921875 52.390625 -61.113281 50.234375 -63.34375 C 48.085938 -65.570312 45.097656 -66.6875 41.265625 -66.6875 C 37.390625 -66.6875 34.398438 -65.570312 32.296875 -63.34375 C 30.191406 -61.113281 29.140625 -57.921875 29.140625 -53.765625 C 29.140625 -49.546875 30.191406 -46.320312 32.296875 -44.09375 C 34.398438 -41.875 37.390625 -40.765625 41.265625 -40.765625 Z M 41.0625 19.171875 C 47.851562 19.171875 52.789062 18.210938 55.875 16.296875 C 58.96875 14.378906 60.515625 11.890625 60.515625 8.828125 C 60.515625 6.335938 59.722656 4.503906 58.140625 3.328125 C 56.554688 2.160156 54.046875 1.53125 50.609375 1.4375 L 34.953125 0.71875 C 34.429688 0.71875 33.941406 0.691406 33.484375 0.640625 C 33.023438 0.597656 32.582031 0.578125 32.15625 0.578125 C 28.800781 0.578125 26.25 1.289062 24.5 2.71875 C 22.757812 4.15625 21.890625 6.144531 21.890625 8.6875 C 21.890625 12.03125 23.492188 14.613281 26.703125 16.4375 C 29.910156 18.257812 34.695312 19.171875 41.0625 19.171875 Z M 41.0625 19.171875 "/></g></g><g transform="translate(1713.912495, 213.749986)"><g><path d="M 78.234375 -35.09375 L 27.34375 -35.09375 C 27.914062 -28.207031 29.875 -23.195312 33.21875 -20.0625 C 36.570312 -16.925781 41.144531 -15.359375 46.9375 -15.359375 C 51.488281 -15.359375 55.175781 -16.207031 58 -17.90625 C 60.820312 -19.601562 63.09375 -22.175781 64.8125 -25.625 L 66.328125 -25.625 L 79.53125 -17.15625 C 76.945312 -11.601562 73.046875 -7.101562 67.828125 -3.65625 C 62.609375 -0.21875 55.644531 1.5 46.9375 1.5 C 38.757812 1.5 31.691406 -0.0507812 25.734375 -3.15625 C 19.773438 -6.269531 15.179688 -10.898438 11.953125 -17.046875 C 8.722656 -23.191406 7.109375 -30.691406 7.109375 -39.546875 C 7.109375 -48.546875 8.804688 -56.128906 12.203125 -62.296875 C 15.597656 -68.472656 20.191406 -73.078125 25.984375 -76.109375 C 31.773438 -79.148438 38.28125 -80.671875 45.5 -80.671875 C 56.695312 -80.671875 65.273438 -77.703125 71.234375 -71.765625 C 77.191406 -65.835938 80.171875 -57.132812 80.171875 -45.65625 C 80.171875 -41.488281 80.03125 -38.253906 79.75 -35.953125 Z M 61.15625 -47.953125 C 60.96875 -53.972656 59.566406 -58.359375 56.953125 -61.109375 C 54.347656 -63.867188 50.53125 -65.25 45.5 -65.25 C 35.457031 -65.25 29.550781 -59.484375 27.78125 -47.953125 Z M 61.15625 -47.953125 "/></g></g></g></svg>