<svg version="1.2" xmlns="http://www.w3.org/2000/svg" viewBox="0 0 3163 621" width="1024" height="201">
	<title>Color logo - no background-svg</title>
	<style>
		.s0 { fill: #f76b8a } 
		.s1 { fill: #000000 } 
	</style>
	<g id="Layer">
		<g id="SvgjsG1372">
			<path id="Layer" fill-rule="evenodd" class="s0" d="m398 98.6c27.8 11.5 53.1 28.4 74.3 49.7 21.3 21.3 38.2 46.5 49.7 74.3 11.5 27.8 17.5 57.6 17.5 87.7 0 92.7-55.9 176.2-141.5 211.7-85.6 35.5-184.2 15.9-249.7-49.7-65.5-65.5-85.1-164-49.7-249.7 35.5-85.6 119-141.4 211.7-141.4 30.1 0 59.9 5.9 87.7 17.4zm-87.6 396.5c1.8 0 3.5 0 5.2 0 27.4-2.8 47.8-26.6 46.4-54.1-1.4-27.5-24.1-49.1-51.6-49.1-27.6 0-50.3 21.6-51.7 49.1-1.4 27.5 19 51.3 46.4 54.1 1.7 0 3.5 0 5.3 0zm105.1-172.4c-20.2-39.4-60.8-64.3-105.2-64.3-44.3 0-84.9 24.9-105.2 64.3-20.2 39.5-16.7 86.9 9.1 123 0-0.8 0-1.5 0-2.3 0-25.5 10.2-50 28.2-68 18-18 42.4-28.1 67.9-28.1 25.5 0 49.9 10.1 68 28.1 18 18 28.1 42.5 28.1 68 0 0.7 0 1.5 0 2.3 25.9-36.1 29.4-83.5 9.1-123zm54.6-105.5c-33.1-56.8-93.9-91.8-159.6-91.8-65.8 0-126.6 35-159.7 91.8-33.1 56.8-33.5 126.9-1.1 184.1-7.1-46.8 6.5-94.5 37.4-130.4 30.9-36 76-56.7 123.4-56.7 47.4 0 92.4 20.7 123.3 56.7 30.9 35.9 44.6 83.6 37.4 130.4 32.5-57.2 32-127.3-1.1-184.1z"/>
		</g>
	</g>
	<g id="SvgjsG1373">
		<path id="Layer" fill-rule="evenodd" class="s1" d="m837.2 162.4l86 229.8h-52.5l-17.4-51.2h-85.9l-18.1 51.2h-51.2l87.3-229.8zm-26.7 56.6l-30 84.4h59.6l-29-84.4zm223.8 2.3q36.4 0 48.6 27.7 19-27.7 50.5-27.7 31.3 0 45.9 15.8 14.7 15.7 14.7 43.4v111.7h-45.8v-96.2q0-21.9-6.6-30.3-6.6-8.4-21.4-8.4-30.6 0-30.6 41.9v93h-45.7v-98.2q0-21.2-6.7-28.9-6.8-7.8-21-7.8-13.2 0-22 10.5-8.9 10.5-8.9 27.5v96.9h-45.7v-166.4h43.2v22.5h0.6q19-27 50.9-27zm289.4 0q34.4 0 55.1 24.1 20.6 24.2 20.6 65.4 0 37.6-19.8 61.8-19.8 24.1-53.3 24.1-32.9 0-49.9-25.1h-0.7v79.2h-45.7v-225h43.5v21.2h0.6q16.4-25.7 49.6-25.7zm-49.6 88.2q0 24.5 10.3 38.6 10.3 14.2 29.6 14.2 20 0 29.8-14.2 9.8-14.1 9.8-38.6 0-25.1-10.6-39.4-10.6-14.4-29.6-14.4-19 0-29.1 14.2-10.2 14.2-10.2 39.6zm229.6-88.2q23.5 0 41.8 10.9 18.4 11 28.8 31.7 10.5 20.8 10.5 47.8 0 2.6-0.3 8.4h-120.1q0.6 20 10.5 31.1 9.8 11.1 30.1 11.1 12.5 0 23-6.3 10.4-6.3 13.3-15.3h40.3q-17.7 56-77.9 56-22.9-0.3-42.4-9.9-19.4-9.7-31-30.1-11.6-20.5-11.6-47.5 0-25.5 11.7-46.4 11.8-20.9 31.3-31.2 19.4-10.3 42-10.3zm35.1 69.8q-3.3-18.6-12-27-8.6-8.4-24.7-8.4-16.8 0-26.4 9.5-9.7 9.5-11.3 25.9zm235-128.7v229.8h-43.5v-21.2h-0.6q-14.8 25.7-50.5 25.7-34.5 0-54.6-25.1-20.1-25.1-20.1-64 0-38 20.4-62.2 20.5-24.1 53.3-24.1 15.1 0 28.5 6.3 13.3 6.2 20.7 18.5h0.7v-83.7zm-123.6 146.4q0 22.9 10.7 38.2 10.8 15.3 29.5 15.3 19.6 0 29.5-14.3 9.8-14.4 9.8-39.5 0-25.1-10.3-38.9-10.3-13.9-29.3-13.9-19.7 0-29.8 14.5-10.1 14.5-10.1 38.6zm414-146.4v42.5h-111.1v53.1h96.3v39.3h-96.3v94.9h-50.5v-229.8zm71.4 0v37.6h-45.7v-37.6zm0 63.4v166.4h-45.7v-166.4zm131.7-4.5q31.9 0 46.2 16.1 14.3 16.1 14.3 51.2v103.6h-45.7v-94.3q0-20.6-6.6-30.6-6.6-10-22.7-10-18.7 0-27 11.3-8.4 11.3-8.4 37v86.6h-45.7v-166.4h43.4v23.2h1q17.1-27.7 51.2-27.7zm171.9 0q72.8 0.3 72.8 47.3v88.2q0 24.5 5.8 35.4h-46.4q-2.6-7.7-3.2-16.1-20.3 20.6-56 20.6-26.1 0-41.4-13.2-15.3-13.2-15.3-36.7 0-22.8 14.5-35.4 14.8-13.2 53.7-16.7 27.7-2.9 35.1-7.3 7.4-4.3 7.4-13.3 0-11.3-6.7-16.8-6.8-5.4-22.6-5.4-14.4 0-21.8 5.9-7.4 6-8.7 19.2h-45.8q1.7-27.4 22.6-41.6 20.9-14.1 56-14.1zm-38 123.6q0 21.3 28 21.3 36.7-0.4 37-37.7v-17.7q-5.4 5.4-27.6 8-19.4 2.3-28.4 7.9-9 5.6-9 18.2zm241.8-123.6q31.9 0 46.2 16.1 14.3 16.1 14.3 51.2v103.6h-45.7v-94.3q0-20.6-6.6-30.6-6.6-10-22.7-10-18.7 0-27 11.3-8.4 11.3-8.4 37v86.6h-45.7v-166.4h43.4v23.2h1q17.1-27.7 51.2-27.7zm175.1 0q33.8 0 55.1 17.2 21.2 17.2 23.2 45.9h-44.8q-4.5-28.7-33.8-28.7-18 0-28.5 14.8-10.4 14.8-10.4 39.3 0 23.5 9.9 38 10 14.5 28 14.5 31.3 0 36.4-33.8h44.1q-4.5 33.1-25.6 50.7-21.1 17.5-54.5 17.5-37.1 0-60.6-23.6-23.5-23.7-23.5-61.7 0-41.2 23.2-65.7 23.2-24.4 61.8-24.4zm181.9 0q23.5 0 41.9 10.9 18.3 11 28.8 31.7 10.5 20.8 10.5 47.8 0 2.6-0.4 8.4h-120q0.6 20 10.4 31.1 9.8 11.1 30.1 11.1 12.6 0 23-6.3 10.5-6.3 13.4-15.3h40.2q-17.7 56-77.9 56-22.8-0.3-42.3-9.9-19.5-9.7-31.1-30.1-11.6-20.5-11.6-47.5 0-25.5 11.8-46.4 11.7-20.9 31.2-31.2 19.5-10.3 42-10.3zm35.1 69.8q-3.2-18.6-11.9-27-8.7-8.4-24.8-8.4-16.7 0-26.4 9.5-9.6 9.5-11.2 25.9z"/>
	</g>
</svg>