<svg xmlns="http://www.w3.org/2000/svg" xmlns:xlink="http://www.w3.org/1999/xlink" width="500" zoomAndPan="magnify" viewBox="0 0 375 374.999991" height="500" preserveAspectRatio="xMidYMid meet" version="1.2"><defs><clipPath id="a8ea3c2843"><path d="M 40.40625 3.640625 L 332.90625 3.640625 L 332.90625 369.640625 L 40.40625 369.640625 Z M 40.40625 3.640625 "/></clipPath></defs><g id="fe2fb10b32"><g clip-rule="nonzero" clip-path="url(#a8ea3c2843)"><path style=" stroke:none;fill-rule:nonzero;fill:#000000;fill-opacity:1;" d="M 332.503906 19.621094 L 332.503906 119.296875 L 316.535156 135.269531 L 248.488281 135.269531 L 235.902344 122.679688 L 220.453125 122.679688 L 219.273438 118.777344 C 219.199219 118.613281 218.984375 118.203125 218.546875 117.625 L 218.316406 118.011719 L 218.316406 154.628906 C 218.316406 158.207031 217.335938 161.746094 215.503906 164.832031 L 217.167969 167.867188 C 219.007812 171.207031 218.941406 175.167969 216.988281 178.449219 C 215.652344 180.710938 213.605469 182.34375 211.207031 183.136719 L 211.207031 322.359375 C 215.320312 323.628906 218.316406 327.464844 218.316406 331.996094 L 218.316406 337.585938 C 218.316406 342.117188 215.320312 345.953125 211.207031 347.222656 L 211.207031 352.542969 C 211.207031 361.953125 203.550781 369.617188 194.136719 369.617188 L 179.019531 369.617188 C 169.605469 369.617188 161.953125 361.953125 161.953125 352.542969 L 161.953125 347.222656 C 157.835938 345.953125 154.839844 342.117188 154.839844 337.585938 L 154.839844 331.996094 C 154.839844 327.40625 157.925781 323.523438 162.125 322.308594 L 162.125 183.136719 C 159.734375 182.335938 157.679688 180.703125 156.34375 178.441406 C 154.394531 175.167969 154.328125 171.207031 156.167969 167.851562 L 157.828125 164.824219 C 156.003906 161.738281 155.015625 158.207031 155.015625 154.621094 L 155.015625 118.679688 L 154.394531 117.625 C 153.925781 118.25 153.710938 118.6875 153.652344 118.8125 L 152.382812 122.621094 L 148.257812 122.679688 L 137.03125 122.679688 L 124.445312 135.269531 L 56.398438 135.269531 L 40.429688 119.296875 L 40.429688 19.621094 L 56.398438 3.640625 L 124.445312 3.640625 L 137.03125 16.230469 L 152.480469 16.230469 L 153.667969 20.148438 C 153.902344 20.652344 155.410156 23.488281 160.5 26.160156 C 162.265625 20.46875 167.585938 16.320312 173.847656 16.320312 L 199.085938 16.320312 C 205.355469 16.320312 210.667969 20.460938 212.433594 26.152344 C 217.621094 23.421875 219.089844 20.527344 219.289062 20.089844 L 220.535156 16.277344 L 224.675781 16.222656 L 235.902344 16.222656 L 248.488281 3.640625 L 316.535156 3.640625 Z M 332.503906 19.621094 "/></g><path style=" stroke:none;fill-rule:nonzero;fill:#ff6c15;fill-opacity:1;" d="M 203.78125 319.257812 L 203.78125 326.03125 L 169.550781 326.03125 L 169.550781 314.292969 C 174.523438 315.859375 187.128906 319.382812 199.929688 319.382812 C 201.214844 319.382812 202.503906 319.332031 203.78125 319.257812 Z M 171.066406 300.171875 C 170.570312 300.171875 170.050781 300.144531 169.550781 300.136719 L 169.550781 310.820312 C 173.746094 312.1875 189.402344 316.875 203.78125 315.964844 L 203.78125 292.539062 C 198.824219 295.097656 186.96875 300.171875 171.066406 300.171875 Z M 202.1875 278.21875 C 186.839844 278.21875 174.761719 273.535156 169.550781 270.9375 L 169.550781 296.847656 C 187.457031 297.21875 200.5625 290.59375 203.78125 288.785156 L 203.78125 278.1875 C 203.253906 278.195312 202.710938 278.21875 202.1875 278.21875 Z M 201.769531 254.578125 C 188.933594 254.578125 176.148438 250.140625 173.011719 248.976562 C 171.890625 249.53125 170.738281 250.050781 169.550781 250.519531 L 169.550781 267.25 C 172.652344 269.089844 186.097656 275.308594 203.78125 274.902344 L 203.78125 254.539062 C 203.113281 254.5625 202.4375 254.578125 201.769531 254.578125 Z M 195.679688 228.859375 C 193.628906 231.828125 187.019531 240.621094 176.898438 246.824219 C 182.308594 248.582031 193.363281 251.652344 203.78125 251.238281 L 203.78125 230.253906 C 201.132812 230.007812 198.402344 229.511719 195.679688 228.859375 Z M 169.550781 218.871094 L 169.550781 246.941406 C 181.105469 241.917969 189.230469 232.066406 192.257812 227.960938 C 182.699219 225.238281 173.730469 220.988281 169.550781 218.871094 Z M 169.550781 204.535156 L 169.550781 215.148438 C 173.449219 217.1875 190.089844 225.527344 203.78125 226.9375 L 203.78125 192.351562 C 198.667969 194.824219 185.875 200.550781 169.550781 204.535156 Z M 169.550781 179.554688 L 169.550781 201.136719 C 187.144531 196.753906 200.375 190.394531 203.78125 188.671875 L 203.78125 179.554688 Z M 186.46875 103.707031 C 172.378906 103.707031 163.585938 106.363281 158.148438 109.34375 L 161.738281 115.472656 L 211.195312 115.472656 L 214.785156 109.34375 C 209.347656 106.363281 200.554688 103.707031 186.46875 103.707031 Z M 186.46875 103.707031 "/><path style=" stroke:none;fill-rule:nonzero;fill:#ff6c15;fill-opacity:1;" d="M 217.707031 108.015625 L 211.195312 115.472656 L 160.894531 117.046875 L 159.171875 113.722656 L 182.648438 109.589844 L 171.429688 108.015625 L 186.65625 105.539062 L 176.890625 102.101562 C 202.148438 100.367188 217.707031 108.015625 217.707031 108.015625 Z M 168.210938 203.875 L 183.496094 197.859375 L 204.820312 185.183594 L 204.492188 176.25 L 190.335938 178.046875 L 168.203125 185.578125 L 168.203125 190.335938 L 182.648438 191.386719 L 168.203125 198.917969 L 168.203125 203.875 Z M 197.050781 198.496094 L 184.785156 203.875 L 183.925781 209.640625 L 173.0625 210.761719 L 184.042969 222.261719 L 175.324219 218.871094 L 168.222656 238.089844 L 168.222656 244.027344 L 190.863281 234.945312 L 195.820312 227.308594 L 195.847656 227.316406 L 189.355469 238.734375 L 173.054688 246.816406 L 181.5 250.117188 L 175.964844 248.976562 L 182.144531 255.519531 L 172.097656 253.796875 C 172.097656 253.796875 175.15625 262.367188 182.664062 268.644531 L 178.546875 272.949219 L 192.703125 276.339844 C 192.703125 276.339844 178.761719 281.339844 167.570312 282.632812 L 167.570312 287.171875 C 167.570312 287.171875 175.40625 290.59375 182.136719 290.378906 C 182.136719 290.378906 181.9375 295.972656 175.742188 298.554688 C 175.742188 298.554688 191.84375 296.285156 201.222656 290.097656 L 205.652344 276.601562 L 193.957031 276.363281 L 203.78125 259.171875 L 190.34375 251.9375 L 183.324219 250.496094 L 205.652344 247.988281 L 205.652344 244.027344 L 198.335938 238.089844 L 202.847656 229.082031 L 205.652344 229.792969 L 205.652344 189.6875 L 182.65625 200.78125 Z M 178.539062 305.441406 L 182.847656 307.808594 L 176.898438 310.605469 L 191.886719 316.785156 L 173.8125 314.285156 L 180.90625 321.148438 L 172.089844 327.167969 L 192.257812 329.320312 L 197.742188 319.199219 L 198.105469 319.347656 L 205.652344 316.71875 L 205.652344 289.726562 L 191.960938 294.511719 Z M 178.539062 305.441406 "/><path style=" stroke:none;fill-rule:nonzero;fill:#fbfbfb;fill-opacity:1;" d="M 169.375 343.535156 L 203.78125 343.535156 L 203.78125 352.535156 C 203.78125 357.855469 199.460938 362.183594 194.136719 362.183594 L 179.019531 362.183594 C 173.699219 362.183594 169.375 357.855469 169.375 352.535156 Z M 208.234375 329.328125 L 164.921875 329.328125 C 163.453125 329.328125 162.265625 330.519531 162.265625 331.984375 L 162.265625 337.578125 C 162.265625 339.039062 163.453125 340.234375 164.921875 340.234375 L 208.234375 340.234375 C 209.703125 340.234375 210.890625 339.039062 210.890625 337.578125 L 210.890625 331.984375 C 210.890625 330.519531 209.703125 329.328125 208.234375 329.328125 Z M 208.234375 167.007812 C 205.503906 169.203125 202.050781 170.523438 198.289062 170.523438 L 175.042969 170.523438 C 171.28125 170.523438 167.824219 169.203125 165.09375 167.007812 L 162.667969 171.421875 C 162.117188 172.445312 162.132812 173.660156 162.726562 174.65625 C 163.320312 175.664062 164.367188 176.257812 165.539062 176.257812 L 207.789062 176.257812 C 208.953125 176.257812 210.007812 175.664062 210.601562 174.65625 C 211.195312 173.65625 211.214844 172.445312 210.652344 171.421875 Z M 162.4375 154.621094 C 162.4375 161.566406 168.097656 167.222656 175.042969 167.222656 L 198.289062 167.222656 C 205.234375 167.222656 210.890625 161.566406 210.890625 154.621094 L 210.890625 118.769531 L 162.4375 118.769531 Z M 250.28125 113.722656 L 241.207031 117.484375 L 250.296875 126.582031 L 254.058594 117.507812 Z M 257.109375 118.769531 L 253.347656 127.84375 L 311.675781 127.84375 L 307.914062 118.769531 Z M 310.964844 117.507812 L 314.71875 126.582031 L 323.816406 117.484375 L 314.746094 113.722656 Z M 256.6875 23.4375 L 252.316406 27.820312 L 252.316406 111.097656 L 256.6875 115.472656 L 308.335938 115.472656 L 312.707031 111.097656 L 312.707031 27.820312 L 308.335938 23.4375 Z M 316.007812 28.230469 L 316.007812 110.679688 L 325.082031 114.433594 L 325.082031 24.476562 Z M 314.746094 25.1875 L 323.816406 21.425781 L 314.71875 12.328125 L 310.964844 21.402344 Z M 307.914062 20.140625 L 311.675781 11.066406 L 253.347656 11.066406 L 257.109375 20.140625 Z M 254.058594 21.402344 L 250.296875 12.328125 L 241.207031 21.425781 L 250.28125 25.1875 Z M 249.019531 28.230469 L 239.945312 24.476562 L 239.945312 114.433594 L 249.019531 110.679688 Z M 226.382812 115.257812 L 236.644531 115.257812 L 236.644531 23.652344 L 226.382812 23.652344 Z M 205.636719 33.082031 L 205.636719 30.292969 C 205.636719 26.679688 202.699219 23.746094 199.085938 23.746094 L 173.847656 23.746094 C 170.234375 23.746094 167.296875 26.679688 167.296875 30.292969 L 167.296875 33.082031 C 172.230469 34.351562 178.5 35.203125 186.46875 35.203125 C 194.433594 35.203125 200.703125 34.351562 205.636719 33.082031 Z M 186.46875 38.5 C 164.285156 38.5 154.246094 32.175781 149.851562 27.464844 L 149.851562 111.445312 C 154.246094 106.742188 164.285156 100.410156 186.46875 100.410156 C 208.648438 100.410156 218.6875 106.742188 223.082031 111.445312 L 223.082031 27.464844 C 218.6875 32.175781 208.648438 38.5 186.46875 38.5 Z M 136.289062 115.257812 L 146.550781 115.257812 L 146.550781 23.652344 L 136.289062 23.652344 Z M 118.875 117.507812 L 122.636719 126.582031 L 131.726562 117.484375 L 122.65625 113.722656 Z M 123.917969 110.679688 L 132.988281 114.441406 L 132.988281 24.476562 L 123.917969 28.230469 Z M 122.65625 25.1875 L 131.726562 21.425781 L 122.636719 12.328125 L 118.875 21.402344 Z M 65.019531 118.769531 L 61.257812 127.84375 L 119.585938 127.84375 L 115.824219 118.769531 Z M 64.597656 23.4375 L 60.226562 27.820312 L 60.226562 111.097656 L 64.597656 115.472656 L 116.246094 115.472656 L 120.617188 111.097656 L 120.617188 27.820312 L 116.246094 23.4375 Z M 115.824219 20.140625 L 119.585938 11.066406 L 61.257812 11.066406 L 65.019531 20.140625 Z M 58.191406 113.722656 L 49.117188 117.484375 L 58.214844 126.582031 L 61.96875 117.507812 Z M 56.929688 28.230469 L 47.855469 24.476562 L 47.855469 114.441406 L 56.929688 110.679688 Z M 61.96875 21.402344 L 58.214844 12.328125 L 49.117188 21.425781 L 58.191406 25.1875 Z M 164.5 108.65625 L 175.148438 101.84375 C 170.785156 101.738281 155.136719 108.015625 155.136719 108.015625 L 158.148438 113.722656 L 165.789062 110.597656 Z M 178.539062 178.054688 C 178.539062 178.054688 169.019531 177.566406 168.210938 178.054688 C 167.402344 178.542969 168.210938 183.539062 168.210938 183.539062 Z M 175.148438 192.351562 L 168.210938 192.351562 L 167.859375 197.257812 Z M 176.898438 219.488281 L 169.550781 208.238281 L 180.898438 206.621094 L 179.671875 201.136719 L 168.210938 202.910156 L 167.859375 216.625 Z M 173.195312 219.488281 L 168.210938 217.433594 L 168.210938 231.457031 Z M 168.210938 267.949219 C 168.238281 268.066406 168.460938 268.273438 168.789062 268.527344 C 168.789062 268.527344 168.210938 278.929688 168.210938 280.058594 C 173.863281 278.609375 182.65625 273.949219 182.65625 273.949219 L 175.09375 270.996094 L 176.898438 267.316406 C 172.246094 262.597656 168.210938 251.957031 168.210938 251.957031 L 176.898438 251.957031 L 174.375 248.269531 L 167.5625 248.988281 C 167.570312 248.976562 168.046875 267.296875 168.210938 267.949219 Z M 168.210938 327.820312 L 176.28125 320.15625 L 170.429688 312.296875 C 171.296875 312.417969 172.082031 312.484375 172.082031 312.484375 L 177.566406 307.15625 L 173.691406 304.304688 C 177.839844 303.222656 182.648438 298.554688 182.648438 298.554688 L 175.976562 297.769531 L 177.566406 292.53125 C 173.515625 292.425781 168.203125 289.726562 168.203125 289.726562 L 168.203125 296.855469 C 168.203125 296.855469 168.082031 307.757812 168.15625 310.867188 L 167.550781 310.867188 Z M 168.210938 327.820312 "/><path style=" stroke:none;fill-rule:nonzero;fill:#b5b5b5;fill-opacity:1;" d="M 203.722656 35.472656 C 209.390625 34.542969 212.671875 33.453125 212.671875 33.453125 L 208.558594 101.84375 L 169.550781 102.941406 C 182.761719 99.359375 186.664062 88.324219 186.664062 88.324219 L 165.144531 86.707031 L 180.898438 78.320312 L 173.328125 78.320312 C 171.992188 64.765625 161.730469 50.5625 161.730469 50.5625 L 175.148438 47.980469 C 169.5 44.753906 161.730469 33.453125 161.730469 33.453125 C 173.144531 36.398438 183.515625 37 191.886719 36.660156 L 190.335938 29.476562 L 169.550781 23.4375 L 174.523438 21.832031 L 200.292969 21.9375 Z M 223.082031 29.476562 L 230.507812 35.714844 L 223.082031 73.476562 L 230.507812 77.023438 L 223.082031 80.570312 L 231.515625 90.253906 L 224.699219 117.046875 L 236.644531 115.257812 L 238.253906 21.832031 L 224.699219 21.832031 Z M 326.695312 21.832031 L 312.707031 9.242188 L 253.347656 11.066406 L 288.613281 15.601562 L 291.746094 23.214844 L 256.6875 21.832031 L 253.347656 24.476562 L 276.667969 35.703125 L 256.6875 42.484375 L 279.894531 50.230469 L 267.949219 53.132812 L 256.6875 98.320312 L 274.730469 101.835938 L 252.316406 111.089844 L 256.6875 117.039062 L 305.070312 103.699219 L 305.070312 25.492188 L 316.023438 27.191406 L 312.699219 27.820312 L 312.699219 30.085938 L 320.535156 40.546875 L 314.101562 92.191406 L 320.535156 114.441406 L 314.101562 111.445312 L 299.574219 115.472656 L 283.71875 121.886719 L 253.339844 123.308594 L 254.050781 117.507812 L 241.199219 117.484375 L 250.511719 129.3125 L 314.101562 129.3125 L 326.6875 117.046875 L 326.6875 25.1875 L 318.523438 26.722656 Z M 61.257812 11.066406 L 100.753906 14.085938 L 77.515625 21.832031 L 112.691406 23.355469 L 64.597656 21.832031 L 60.226562 24.476562 L 83.324219 33.445312 L 67.179688 57.332031 L 80.414062 63.460938 L 67.179688 65.722656 L 81.707031 80.25 L 66.859375 88.316406 L 83.324219 100.589844 L 60.226562 111.097656 L 64.597656 117.046875 L 108.175781 109.441406 L 112.679688 23.355469 L 114.628906 23.4375 L 119.585938 26.789062 L 134.210938 21.832031 L 120.617188 9.242188 Z M 128.453125 87.996094 L 128.453125 105.425781 L 120.617188 109.582031 L 122.597656 111.4375 L 132.988281 112.519531 L 132.988281 24.476562 L 118.875 28.769531 L 120.617188 31.183594 L 127.214844 33.445312 L 122.589844 50.230469 L 127.214844 64.113281 L 120.617188 71.859375 L 127.214844 73.476562 L 118.875 80.898438 Z M 120.617188 111.097656 L 104.945312 117.046875 L 97.734375 123.308594 L 61.257812 127.84375 L 61.96875 117.507812 L 49.117188 117.484375 L 58.46875 129.3125 L 120.617188 129.3125 L 134.210938 117.046875 L 132.988281 114.441406 Z M 176.898438 115.957031 L 160.894531 117.046875 L 161.738281 120.207031 L 176.898438 123.308594 L 189.355469 129.3125 L 176.898438 132.859375 C 176.898438 132.859375 187.359375 149.003906 188.59375 155.132812 C 188.59375 155.132812 183.226562 167.339844 171.503906 168.585938 L 184.027344 173.203125 L 175.148438 177.832031 L 205.652344 178.046875 L 204.820312 165.121094 L 205.652344 118.761719 Z M 142.714844 38.34375 L 139.507812 77.246094 L 142.714844 92.515625 L 139.507812 96.390625 L 142.714844 101.84375 L 139.507812 107.78125 L 148.210938 117.054688 L 148.210938 21.832031 L 136.296875 23.652344 Z M 160.894531 329.328125 L 182.65625 334.921875 L 171.503906 340.234375 L 180.898438 349.769531 L 167.847656 349.769531 L 182.136719 364.113281 L 194.136719 362.175781 L 203.78125 343.527344 L 205.652344 329.320312 L 178.539062 327.820312 Z M 160.894531 329.328125 "/><path style=" stroke:none;fill-rule:nonzero;fill:#000000;fill-opacity:1;" d="M 314.828125 7.765625 L 250.199219 7.765625 L 237.609375 20.355469 L 224.734375 20.355469 L 223.539062 20.371094 L 223.167969 21.507812 C 223.132812 21.597656 220.816406 28.082031 208.9375 32.101562 L 208.9375 30.292969 C 208.9375 24.867188 204.515625 20.445312 199.085938 20.445312 L 173.847656 20.445312 C 168.417969 20.445312 163.996094 24.867188 163.996094 30.292969 L 163.996094 32.101562 C 152.117188 28.089844 149.800781 21.609375 149.777344 21.523438 L 149.421875 20.355469 L 135.324219 20.355469 L 122.738281 7.765625 L 58.105469 7.765625 L 44.554688 21.328125 L 44.554688 117.589844 L 58.105469 131.144531 L 122.738281 131.144531 L 135.324219 118.554688 L 148.199219 118.554688 L 149.398438 118.539062 L 149.777344 117.402344 C 149.792969 117.34375 150.882812 114.292969 155.351562 111.089844 L 159.140625 117.566406 L 159.140625 154.621094 C 159.140625 158.390625 160.46875 161.847656 162.660156 164.578125 L 159.78125 169.839844 C 158.652344 171.894531 158.695312 174.328125 159.890625 176.339844 C 161.085938 178.359375 163.195312 179.554688 165.539062 179.554688 L 166.25 179.554688 L 166.25 326.03125 L 164.921875 326.03125 C 161.636719 326.03125 158.964844 328.703125 158.964844 331.984375 L 158.964844 337.578125 C 158.964844 340.863281 161.636719 343.535156 164.921875 343.535156 L 166.074219 343.535156 L 166.074219 352.535156 C 166.074219 359.675781 171.882812 365.484375 179.019531 365.484375 L 194.136719 365.484375 C 201.273438 365.484375 207.082031 359.675781 207.082031 352.535156 L 207.082031 343.535156 L 208.234375 343.535156 C 211.519531 343.535156 214.191406 340.863281 214.191406 337.578125 L 214.191406 331.984375 C 214.191406 328.703125 211.519531 326.03125 208.234375 326.03125 L 207.082031 326.03125 L 207.082031 179.554688 L 207.789062 179.554688 C 210.132812 179.554688 212.246094 178.359375 213.441406 176.339844 C 214.636719 174.328125 214.679688 171.894531 213.546875 169.839844 L 210.667969 164.578125 C 212.863281 161.847656 214.191406 158.390625 214.191406 154.621094 L 214.191406 116.890625 L 217.582031 111.089844 C 222.050781 114.292969 223.140625 117.335938 223.15625 117.386719 L 223.511719 118.554688 L 237.609375 118.554688 L 250.199219 131.144531 L 314.828125 131.144531 L 328.378906 117.589844 L 328.378906 21.328125 Z M 131.726562 21.425781 L 122.65625 25.1875 L 118.875 21.402344 L 122.636719 12.328125 Z M 129.476562 30.863281 L 126.695312 50.445312 L 129.476562 67.445312 L 126.695312 70.671875 L 131.726562 72.394531 L 126.25 77.773438 L 130.769531 84.019531 L 129.914062 108.015625 L 123.925781 110.679688 L 123.933594 110.6875 L 123.917969 110.679688 L 123.917969 28.230469 L 123.941406 28.222656 L 123.917969 28.238281 Z M 99.78125 29.476562 L 82.1875 59.914062 L 102.792969 68.652344 L 79.554688 69.460938 L 102.792969 83.589844 L 83.695312 88.753906 L 94.1875 103.707031 L 64.597656 115.472656 L 64.617188 115.472656 L 64.597656 115.472656 L 60.226562 111.097656 L 60.226562 27.820312 L 64.597656 23.4375 L 64.699219 23.4375 L 64.597656 23.4375 Z M 119.585938 11.066406 L 115.824219 20.140625 L 65.019531 20.140625 L 61.257812 11.066406 Z M 58.214844 12.328125 L 61.96875 21.402344 L 58.191406 25.1875 L 49.117188 21.425781 Z M 47.855469 24.476562 L 56.929688 28.230469 L 56.929688 110.679688 L 47.855469 114.441406 Z M 49.117188 117.484375 L 58.191406 113.722656 L 61.96875 117.507812 L 58.214844 126.582031 Z M 61.257812 127.84375 L 65.019531 118.769531 L 115.824219 118.769531 L 119.585938 127.84375 Z M 122.636719 126.582031 L 118.875 117.507812 L 122.65625 113.722656 L 131.726562 117.484375 Z M 146.550781 115.257812 L 136.289062 115.257812 L 136.289062 23.652344 L 146.550781 23.652344 Z M 167.296875 30.292969 C 167.296875 26.679688 170.234375 23.746094 173.847656 23.746094 L 180.164062 23.746094 C 180.164062 23.746094 180.15625 23.746094 180.15625 23.746094 L 197.117188 27.085938 L 198.734375 34.410156 C 195.167969 34.90625 191.121094 35.203125 186.476562 35.203125 C 178.507812 35.203125 172.238281 34.351562 167.304688 33.082031 L 167.304688 30.292969 Z M 149.851562 111.445312 L 149.851562 27.464844 C 153.265625 31.117188 160.085938 35.753906 173.351562 37.644531 C 173.34375 37.644531 173.335938 37.644531 173.335938 37.644531 C 173.335938 37.644531 188.875 48.300781 202.105469 50.882812 C 202.105469 50.882812 190.039062 53.785156 180.90625 53.785156 C 180.90625 53.785156 185.921875 64.113281 187.722656 74.121094 L 203.789062 72.503906 L 185.007812 81.222656 L 205.644531 81.222656 C 205.644531 81.222656 198.363281 98.253906 181.351562 100.53125 C 180.050781 100.597656 178.804688 100.679688 177.589844 100.789062 C 177.566406 100.789062 177.542969 100.789062 177.542969 100.789062 C 177.550781 100.789062 177.558594 100.789062 177.566406 100.789062 C 161.496094 102.214844 153.613281 107.429688 149.851562 111.445312 Z M 158.148438 109.34375 C 163.585938 106.363281 172.378906 103.707031 186.46875 103.707031 C 200.554688 103.707031 209.347656 106.363281 214.785156 109.34375 L 190.34375 108.015625 L 199.023438 111.453125 L 161.746094 115.480469 Z M 176.898438 246.824219 L 199.566406 244.871094 L 192.25 240.070312 L 200.292969 229.792969 C 201.464844 229.980469 202.625 230.144531 203.78125 230.253906 L 203.78125 251.238281 C 193.363281 251.652344 182.308594 248.582031 176.898438 246.824219 Z M 202.230469 274.921875 C 202.164062 274.921875 202.097656 274.921875 202.03125 274.921875 Z M 203.78125 179.554688 L 176.898438 186.625 L 194.667969 188.0625 L 174.523438 199.816406 C 174.523438 199.816406 174.53125 199.816406 174.53125 199.816406 C 172.914062 200.269531 171.25 200.714844 169.550781 201.136719 L 169.550781 179.554688 Z M 203.78125 192.351562 L 203.78125 201.136719 L 190.089844 204.203125 L 190.089844 209.648438 L 199.574219 215.503906 L 180.90625 213.566406 L 203.789062 226.945312 C 190.097656 225.535156 173.457031 217.195312 169.558594 215.15625 L 169.558594 204.542969 C 185.875 200.550781 198.667969 194.824219 203.78125 192.351562 Z M 192.257812 227.960938 C 192.257812 227.960938 192.25 227.960938 192.257812 227.960938 C 189.230469 232.066406 181.105469 241.917969 169.550781 246.941406 L 169.550781 218.871094 C 171.601562 219.910156 174.820312 221.46875 178.695312 223.109375 L 173.054688 236.480469 C 173.054688 236.472656 182.410156 233.964844 192.257812 227.960938 Z M 173.011719 248.976562 C 174.804688 249.636719 179.726562 251.371094 186.011719 252.730469 C 184.875 252.535156 183.746094 252.277344 182.65625 251.941406 C 182.65625 251.941406 190.804688 259.980469 198.230469 261.945312 C 198.230469 261.945312 187.53125 261.96875 178.539062 258.421875 C 178.539062 258.421875 188.191406 268.429688 194.667969 269.722656 L 188.480469 273.648438 C 178.640625 271.8125 171.675781 268.511719 169.558594 267.25 L 169.558594 250.519531 C 170.738281 250.050781 171.890625 249.53125 173.011719 248.976562 Z M 202.1875 278.21875 C 202.710938 278.21875 203.253906 278.195312 203.78125 278.1875 C 203.757812 278.195312 188.859375 283.277344 178.539062 285.214844 C 178.539062 285.214844 187.226562 288.761719 194.667969 287.476562 C 194.667969 287.476562 189.71875 294.347656 182.625 295.898438 C 182.0625 295.988281 181.492188 296.078125 180.914062 296.160156 C 180.90625 296.160156 180.90625 296.160156 180.898438 296.160156 C 180.898438 296.160156 180.90625 296.160156 180.90625 296.160156 C 177.402344 296.65625 173.597656 296.9375 169.546875 296.847656 L 169.546875 270.9375 C 174.761719 273.535156 186.839844 278.21875 202.1875 278.21875 Z M 171.066406 300.171875 C 186.96875 300.171875 198.824219 295.097656 203.78125 292.539062 L 203.78125 297.441406 L 190.089844 301.679688 L 186.46875 305.558594 L 199.574219 305.558594 L 186.46875 309.753906 L 203.78125 315.976562 C 189.402344 316.882812 173.746094 312.195312 169.550781 310.828125 L 169.550781 300.144531 C 170.050781 300.144531 170.570312 300.171875 171.066406 300.171875 Z M 178.628906 316.742188 C 178.597656 316.734375 178.566406 316.734375 178.539062 316.726562 L 192.09375 322.664062 L 184.785156 326.039062 L 169.539062 326.039062 L 169.539062 314.292969 C 171.527344 314.910156 174.710938 315.84375 178.628906 316.742188 Z M 161.738281 115.472656 L 161.753906 115.472656 Z M 162.4375 154.621094 L 162.4375 118.769531 L 176.898438 118.769531 L 200.8125 127.84375 L 190.335938 136.09375 C 190.335938 136.09375 195.316406 145.5625 195.96875 158.042969 C 195.96875 158.042969 189.867188 167.007812 176.898438 167.007812 C 176.898438 167.007812 177.320312 167.101562 178.035156 167.222656 L 175.042969 167.222656 C 168.097656 167.222656 162.4375 161.566406 162.4375 154.621094 Z M 165.539062 176.257812 C 164.367188 176.257812 163.320312 175.664062 162.726562 174.65625 C 162.132812 173.65625 162.117188 172.445312 162.667969 171.421875 L 165.09375 167.007812 C 167.824219 169.203125 171.28125 170.523438 175.042969 170.523438 L 186.476562 170.523438 L 199.011719 173.210938 L 190.351562 176.257812 Z M 164.921875 340.234375 C 163.453125 340.234375 162.265625 339.039062 162.265625 337.578125 L 162.265625 331.984375 C 162.265625 330.519531 163.453125 329.328125 164.921875 329.328125 L 167.570312 329.328125 L 202.429688 334.78125 L 193.332031 340.234375 Z M 169.375 352.535156 L 169.375 343.535156 L 182.65625 343.535156 L 186.574219 350.421875 L 197.578125 352.863281 L 178.53125 356.238281 L 184.980469 362.191406 L 179.011719 362.191406 C 173.699219 362.183594 169.375 357.855469 169.375 352.535156 Z M 214.777344 109.359375 L 214.785156 109.332031 Z M 323.816406 21.425781 L 314.746094 25.1875 L 310.964844 21.402344 L 314.71875 12.328125 Z M 323.816406 33.609375 L 320.34375 97.382812 L 324.773438 114.308594 L 316.007812 110.679688 L 316.007812 28.230469 L 316.039062 28.222656 L 316.015625 28.238281 Z M 299.582031 37 L 274.730469 43.128906 L 299.582031 48.613281 L 282.507812 56.359375 L 272.792969 95.738281 L 295.0625 99.9375 L 256.6875 115.472656 L 252.316406 111.097656 L 252.316406 27.820312 L 256.6875 23.4375 L 256.789062 23.4375 L 256.6875 23.4375 Z M 256.707031 115.472656 L 256.6875 115.472656 Z M 257.109375 118.769531 L 307.914062 118.769531 L 303.460938 123.308594 L 253.347656 127.84375 Z M 311.675781 11.066406 L 307.914062 20.140625 L 257.109375 20.140625 L 253.347656 11.066406 Z M 250.296875 12.328125 L 254.058594 21.402344 L 250.28125 25.1875 L 241.207031 21.425781 Z M 226.382812 23.652344 L 226.40625 23.652344 L 226.382812 23.652344 L 233.601562 35.203125 L 231.035156 72.179688 L 235.027344 79.605469 L 230.019531 81.511719 L 235.027344 89.941406 L 226.382812 115.265625 L 226.390625 115.265625 L 226.382812 115.265625 Z M 239.945312 24.476562 L 249.019531 28.230469 L 249.019531 110.679688 L 239.945312 114.433594 Z M 241.207031 117.484375 L 250.28125 113.722656 L 254.058594 117.507812 L 250.296875 126.582031 Z M 253.347656 127.84375 L 253.375 127.84375 Z M 314.71875 126.582031 L 310.964844 117.507812 L 314.746094 113.722656 L 323.816406 117.484375 Z M 314.71875 126.582031 "/></g></svg>