<svg xmlns="http://www.w3.org/2000/svg" xmlns:xlink="http://www.w3.org/1999/xlink" width="1500" zoomAndPan="magnify" viewBox="0 0 1125 314.999992" height="420" preserveAspectRatio="xMidYMid meet" version="1.2"><defs><clipPath id="ab66cb9642"><path d="M 44.574219 0 L 295.824219 0 L 295.824219 315 L 44.574219 315 Z M 44.574219 0 "/></clipPath></defs><g id="2b6f00638a"><g clip-rule="nonzero" clip-path="url(#ab66cb9642)"><path style=" stroke:none;fill-rule:nonzero;fill:#000000;fill-opacity:1;" d="M 295.792969 13.742188 L 295.792969 99.472656 L 282.058594 113.207031 L 223.535156 113.207031 L 212.710938 102.378906 L 199.421875 102.378906 L 198.40625 99.023438 C 198.34375 98.882812 198.160156 98.527344 197.785156 98.03125 L 197.585938 98.363281 L 197.585938 129.855469 C 197.585938 132.933594 196.742188 135.980469 195.164062 138.632812 L 196.597656 141.242188 C 198.179688 144.117188 198.125 147.523438 196.441406 150.34375 C 195.292969 152.289062 193.535156 153.695312 191.46875 154.375 L 191.46875 274.113281 C 195.007812 275.207031 197.585938 278.507812 197.585938 282.402344 L 197.585938 287.210938 C 197.585938 291.105469 195.007812 294.40625 191.46875 295.496094 L 191.46875 300.074219 C 191.46875 308.167969 184.886719 314.757812 176.792969 314.757812 L 163.785156 314.757812 C 155.691406 314.757812 149.109375 308.167969 149.109375 300.074219 L 149.109375 295.496094 C 145.570312 294.40625 142.992188 291.105469 142.992188 287.210938 L 142.992188 282.402344 C 142.992188 278.457031 145.648438 275.113281 149.257812 274.070312 L 149.257812 154.375 C 147.199219 153.6875 145.433594 152.28125 144.285156 150.339844 C 142.609375 147.523438 142.554688 144.117188 144.136719 141.230469 L 145.5625 138.625 C 143.992188 135.972656 143.140625 132.933594 143.140625 129.847656 L 143.140625 98.9375 L 142.609375 98.03125 C 142.207031 98.570312 142.019531 98.945312 141.972656 99.050781 L 140.878906 102.328125 L 137.332031 102.378906 L 127.675781 102.378906 L 116.851562 113.207031 L 58.328125 113.207031 L 44.59375 99.472656 L 44.59375 13.742188 L 58.328125 0 L 116.851562 0 L 127.675781 10.824219 L 140.964844 10.824219 L 141.984375 14.195312 C 142.183594 14.628906 143.484375 17.070312 147.859375 19.367188 C 149.378906 14.472656 153.953125 10.902344 159.339844 10.902344 L 181.046875 10.902344 C 186.441406 10.902344 191.007812 14.464844 192.527344 19.359375 C 196.988281 17.011719 198.25 14.523438 198.421875 14.144531 L 199.492188 10.867188 L 203.054688 10.820312 L 212.710938 10.820312 L 223.535156 0 L 282.058594 0 Z M 295.792969 13.742188 "/></g><path style=" stroke:none;fill-rule:nonzero;fill:#ff6c15;fill-opacity:1;" d="M 185.085938 271.445312 L 185.085938 277.273438 L 155.644531 277.273438 L 155.644531 267.175781 C 159.921875 268.523438 170.761719 271.554688 181.769531 271.554688 C 182.878906 271.554688 183.984375 271.511719 185.085938 271.445312 Z M 156.949219 255.03125 C 156.523438 255.03125 156.074219 255.007812 155.644531 255.003906 L 155.644531 264.1875 C 159.253906 265.367188 172.71875 269.398438 185.085938 268.617188 L 185.085938 248.46875 C 180.820312 250.667969 170.625 255.03125 156.949219 255.03125 Z M 183.714844 236.152344 C 170.511719 236.152344 160.125 232.121094 155.644531 229.886719 L 155.644531 252.171875 C 171.042969 252.492188 182.316406 246.792969 185.085938 245.238281 L 185.085938 236.125 C 184.628906 236.132812 184.164062 236.152344 183.714844 236.152344 Z M 183.351562 215.820312 C 172.316406 215.820312 161.316406 212.003906 158.621094 211.003906 C 157.65625 211.476562 156.664062 211.925781 155.644531 212.328125 L 155.644531 226.714844 C 158.308594 228.296875 169.875 233.648438 185.085938 233.300781 L 185.085938 215.785156 C 184.511719 215.804688 183.929688 215.820312 183.351562 215.820312 Z M 178.117188 193.699219 C 176.351562 196.253906 170.667969 203.816406 161.964844 209.152344 C 166.617188 210.660156 176.125 213.300781 185.085938 212.945312 L 185.085938 194.898438 C 182.808594 194.683594 180.457031 194.257812 178.117188 193.699219 Z M 155.644531 185.109375 L 155.644531 209.25 C 165.582031 204.929688 172.570312 196.457031 175.171875 192.925781 C 166.949219 190.585938 159.238281 186.929688 155.644531 185.109375 Z M 155.644531 172.777344 L 155.644531 181.910156 C 159 183.660156 173.308594 190.832031 185.085938 192.046875 L 185.085938 162.300781 C 180.6875 164.425781 169.683594 169.351562 155.644531 172.777344 Z M 155.644531 151.296875 L 155.644531 169.855469 C 170.773438 166.085938 182.15625 160.617188 185.085938 159.136719 L 185.085938 151.296875 Z M 170.191406 86.0625 C 158.074219 86.0625 150.511719 88.347656 145.839844 90.90625 L 148.925781 96.179688 L 191.460938 96.179688 L 194.546875 90.90625 C 189.875 88.347656 182.3125 86.0625 170.191406 86.0625 Z M 170.191406 86.0625 "/><path style=" stroke:none;fill-rule:nonzero;fill:#ff6c15;fill-opacity:1;" d="M 197.058594 89.765625 L 191.460938 96.179688 L 148.199219 97.535156 L 146.71875 94.675781 L 166.910156 91.121094 L 157.261719 89.765625 L 170.355469 87.636719 L 161.957031 84.679688 C 183.679688 83.1875 197.058594 89.765625 197.058594 89.765625 Z M 154.492188 172.210938 L 167.640625 167.039062 L 185.976562 156.132812 L 185.695312 148.449219 L 173.519531 149.996094 L 154.484375 156.476562 L 154.484375 160.566406 L 166.910156 161.46875 L 154.484375 167.945312 L 154.484375 172.210938 Z M 179.296875 167.585938 L 168.746094 172.210938 L 168.007812 177.167969 L 158.664062 178.132812 L 168.109375 188.023438 L 160.609375 185.109375 L 154.5 201.636719 L 154.5 206.746094 L 173.976562 198.933594 L 178.238281 192.367188 L 178.257812 192.371094 L 172.675781 202.191406 L 158.65625 209.144531 L 165.921875 211.980469 L 161.164062 211.003906 L 166.476562 216.628906 L 157.835938 215.144531 C 157.835938 215.144531 160.46875 222.515625 166.921875 227.914062 L 163.382812 231.617188 L 175.558594 234.535156 C 175.558594 234.535156 163.566406 238.832031 153.941406 239.949219 L 153.941406 243.851562 C 153.941406 243.851562 160.679688 246.792969 166.46875 246.609375 C 166.46875 246.609375 166.296875 251.417969 160.96875 253.640625 C 160.96875 253.640625 174.820312 251.6875 182.886719 246.367188 L 186.695312 234.761719 L 176.636719 234.554688 L 185.085938 219.769531 L 173.527344 213.550781 L 167.492188 212.308594 L 186.695312 210.152344 L 186.695312 206.746094 L 180.402344 201.636719 L 184.28125 193.890625 L 186.695312 194.5 L 186.695312 160.007812 L 166.914062 169.550781 Z M 163.375 259.5625 L 167.078125 261.601562 L 161.964844 264.003906 L 174.855469 269.320312 L 159.308594 267.167969 L 165.410156 273.070312 L 157.828125 278.25 L 175.171875 280.101562 L 179.890625 271.398438 L 180.203125 271.523438 L 186.695312 269.261719 L 186.695312 246.050781 L 174.917969 250.164062 Z M 163.375 259.5625 "/><path style=" stroke:none;fill-rule:nonzero;fill:#fbfbfb;fill-opacity:1;" d="M 155.492188 292.324219 L 185.085938 292.324219 L 185.085938 300.066406 C 185.085938 304.640625 181.367188 308.367188 176.792969 308.367188 L 163.785156 308.367188 C 159.210938 308.367188 155.492188 304.640625 155.492188 300.066406 Z M 188.914062 280.109375 L 151.664062 280.109375 C 150.398438 280.109375 149.378906 281.128906 149.378906 282.394531 L 149.378906 287.203125 C 149.378906 288.460938 150.398438 289.488281 151.664062 289.488281 L 188.914062 289.488281 C 190.179688 289.488281 191.199219 288.460938 191.199219 287.203125 L 191.199219 282.394531 C 191.199219 281.128906 190.179688 280.109375 188.914062 280.109375 Z M 188.914062 140.503906 C 186.566406 142.390625 183.59375 143.527344 180.359375 143.527344 L 160.367188 143.527344 C 157.132812 143.527344 154.160156 142.390625 151.8125 140.503906 L 149.726562 144.300781 C 149.25 145.179688 149.265625 146.222656 149.777344 147.082031 C 150.285156 147.945312 151.1875 148.457031 152.195312 148.457031 L 188.53125 148.457031 C 189.53125 148.457031 190.441406 147.945312 190.953125 147.082031 C 191.460938 146.222656 191.476562 145.179688 190.996094 144.300781 Z M 149.527344 129.847656 C 149.527344 135.824219 154.394531 140.691406 160.367188 140.691406 L 180.359375 140.691406 C 186.332031 140.691406 191.199219 135.824219 191.199219 129.847656 L 191.199219 99.015625 L 149.527344 99.015625 Z M 225.074219 94.675781 L 217.273438 97.910156 L 225.089844 105.734375 L 228.324219 97.929688 Z M 230.949219 99.015625 L 227.714844 106.820312 L 277.878906 106.820312 L 274.644531 99.015625 Z M 277.269531 97.929688 L 280.496094 105.734375 L 288.324219 97.910156 L 280.519531 94.675781 Z M 230.589844 17.027344 L 226.828125 20.792969 L 226.828125 92.417969 L 230.589844 96.179688 L 275.007812 96.179688 L 278.765625 92.417969 L 278.765625 20.792969 L 275.007812 17.027344 Z M 281.605469 21.148438 L 281.605469 92.058594 L 289.40625 95.285156 L 289.40625 17.921875 Z M 280.519531 18.53125 L 288.324219 15.296875 L 280.496094 7.46875 L 277.269531 15.273438 Z M 274.644531 14.1875 L 277.878906 6.386719 L 227.714844 6.386719 L 230.949219 14.1875 Z M 228.324219 15.273438 L 225.089844 7.46875 L 217.273438 15.296875 L 225.074219 18.53125 Z M 223.992188 21.148438 L 216.1875 17.921875 L 216.1875 95.285156 L 223.992188 92.058594 Z M 204.523438 95.996094 L 213.347656 95.996094 L 213.347656 17.210938 L 204.523438 17.210938 Z M 186.679688 25.320312 L 186.679688 22.921875 C 186.679688 19.816406 184.15625 17.289062 181.046875 17.289062 L 159.339844 17.289062 C 156.230469 17.289062 153.707031 19.816406 153.707031 22.921875 L 153.707031 25.320312 C 157.949219 26.414062 163.339844 27.144531 170.191406 27.144531 C 177.046875 27.144531 182.4375 26.414062 186.679688 25.320312 Z M 170.191406 29.980469 C 151.117188 29.980469 142.484375 24.539062 138.699219 20.488281 L 138.699219 92.71875 C 142.484375 88.671875 151.117188 83.226562 170.191406 83.226562 C 189.269531 83.226562 197.902344 88.671875 201.683594 92.71875 L 201.683594 20.488281 C 197.902344 24.539062 189.269531 29.980469 170.191406 29.980469 Z M 127.039062 95.996094 L 135.863281 95.996094 L 135.863281 17.210938 L 127.039062 17.210938 Z M 112.0625 97.929688 L 115.296875 105.734375 L 123.113281 97.910156 L 115.3125 94.675781 Z M 116.394531 92.058594 L 124.199219 95.292969 L 124.199219 17.921875 L 116.394531 21.148438 Z M 115.3125 18.53125 L 123.113281 15.296875 L 115.296875 7.46875 L 112.0625 15.273438 Z M 65.742188 99.015625 L 62.507812 106.820312 L 112.671875 106.820312 L 109.4375 99.015625 Z M 65.378906 17.027344 L 61.621094 20.792969 L 61.621094 92.417969 L 65.378906 96.179688 L 109.796875 96.179688 L 113.558594 92.417969 L 113.558594 20.792969 L 109.796875 17.027344 Z M 109.4375 14.1875 L 112.671875 6.386719 L 62.507812 6.386719 L 65.742188 14.1875 Z M 59.867188 94.675781 L 52.0625 97.910156 L 59.890625 105.734375 L 63.117188 97.929688 Z M 58.78125 21.148438 L 50.980469 17.921875 L 50.980469 95.292969 L 58.78125 92.058594 Z M 63.117188 15.273438 L 59.890625 7.46875 L 52.0625 15.296875 L 59.867188 18.53125 Z M 151.300781 90.320312 L 160.460938 84.460938 C 156.707031 84.367188 143.25 89.765625 143.25 89.765625 L 145.839844 94.675781 L 152.40625 91.988281 Z M 163.375 150.003906 C 163.375 150.003906 155.1875 149.585938 154.492188 150.003906 C 153.796875 150.421875 154.492188 154.722656 154.492188 154.722656 Z M 160.460938 162.300781 L 154.492188 162.300781 L 154.1875 166.519531 Z M 161.964844 185.640625 L 155.644531 175.964844 L 165.40625 174.574219 L 164.347656 169.855469 L 154.492188 171.378906 L 154.1875 183.179688 Z M 158.777344 185.640625 L 154.492188 183.875 L 154.492188 195.933594 Z M 154.492188 227.320312 C 154.515625 227.417969 154.707031 227.597656 154.988281 227.816406 C 154.988281 227.816406 154.492188 236.761719 154.492188 237.734375 C 159.351562 236.484375 166.914062 232.476562 166.914062 232.476562 L 160.410156 229.9375 L 161.964844 226.773438 C 157.960938 222.714844 154.492188 213.5625 154.492188 213.5625 L 161.964844 213.5625 L 159.792969 210.390625 L 153.933594 211.007812 C 153.941406 211.003906 154.351562 226.757812 154.492188 227.320312 Z M 154.492188 278.8125 L 161.433594 272.21875 L 156.402344 265.460938 C 157.148438 265.566406 157.820312 265.621094 157.820312 265.621094 L 162.539062 261.039062 L 159.203125 258.585938 C 162.773438 257.65625 166.910156 253.640625 166.910156 253.640625 L 161.167969 252.964844 L 162.539062 248.460938 C 159.054688 248.367188 154.484375 246.050781 154.484375 246.050781 L 154.484375 252.179688 C 154.484375 252.179688 154.378906 261.558594 154.445312 264.230469 L 153.925781 264.230469 Z M 154.492188 278.8125 "/><path style=" stroke:none;fill-rule:nonzero;fill:#b5b5b5;fill-opacity:1;" d="M 185.035156 27.378906 C 189.910156 26.574219 192.730469 25.640625 192.730469 25.640625 L 189.191406 84.460938 L 155.644531 85.402344 C 167.007812 82.324219 170.363281 72.832031 170.363281 72.832031 L 151.855469 71.441406 L 165.40625 64.226562 L 158.890625 64.226562 C 157.742188 52.570312 148.917969 40.351562 148.917969 40.351562 L 160.460938 38.132812 C 155.601562 35.359375 148.917969 25.640625 148.917969 25.640625 C 158.734375 28.171875 167.652344 28.691406 174.855469 28.398438 L 173.519531 22.21875 L 155.644531 17.027344 L 159.921875 15.644531 L 182.082031 15.734375 Z M 201.683594 22.21875 L 208.070312 27.582031 L 201.683594 60.0625 L 208.070312 63.113281 L 201.683594 66.164062 L 208.9375 74.492188 L 203.074219 97.535156 L 213.347656 95.996094 L 214.730469 15.644531 L 203.074219 15.644531 Z M 290.796875 15.644531 L 278.765625 4.816406 L 227.714844 6.386719 L 258.042969 10.285156 L 260.738281 16.835938 L 230.589844 15.644531 L 227.714844 17.921875 L 247.769531 27.574219 L 230.589844 33.40625 L 250.542969 40.070312 L 240.273438 42.566406 L 230.589844 81.429688 L 246.105469 84.453125 L 226.828125 92.410156 L 230.589844 97.527344 L 272.195312 86.054688 L 272.195312 18.792969 L 281.617188 20.253906 L 278.757812 20.792969 L 278.757812 22.746094 L 285.5 31.742188 L 279.964844 76.160156 L 285.5 95.292969 L 279.964844 92.71875 L 267.472656 96.179688 L 253.835938 101.699219 L 227.707031 102.917969 L 228.316406 97.929688 L 217.265625 97.910156 L 225.273438 108.082031 L 279.964844 108.082031 L 290.792969 97.535156 L 290.792969 18.53125 L 283.769531 19.851562 Z M 62.507812 6.386719 L 96.476562 8.980469 L 76.488281 15.644531 L 106.742188 16.957031 L 65.378906 15.644531 L 61.621094 17.921875 L 81.484375 25.632812 L 67.601562 46.175781 L 78.980469 51.449219 L 67.601562 53.394531 L 80.09375 65.886719 L 67.324219 72.824219 L 81.484375 83.378906 L 61.621094 92.417969 L 65.378906 97.535156 L 102.859375 90.992188 L 106.734375 16.957031 L 108.40625 17.027344 L 112.671875 19.90625 L 125.25 15.644531 L 113.558594 4.816406 Z M 120.296875 72.546875 L 120.296875 87.539062 L 113.558594 91.113281 L 115.261719 92.710938 L 124.199219 93.640625 L 124.199219 17.921875 L 112.0625 21.609375 L 113.558594 23.6875 L 119.234375 25.632812 L 115.253906 40.070312 L 119.234375 52.007812 L 113.558594 58.671875 L 119.234375 60.0625 L 112.0625 66.445312 Z M 113.558594 92.417969 L 100.078125 97.535156 L 93.878906 102.917969 L 62.507812 106.820312 L 63.117188 97.929688 L 52.0625 97.910156 L 60.109375 108.082031 L 113.558594 108.082031 L 125.25 97.535156 L 124.199219 95.292969 Z M 161.964844 96.597656 L 148.199219 97.535156 L 148.925781 100.25 L 161.964844 102.917969 L 172.675781 108.082031 L 161.964844 111.132812 C 161.964844 111.132812 170.960938 125.019531 172.023438 130.289062 C 172.023438 130.289062 167.40625 140.789062 157.324219 141.859375 L 168.09375 145.832031 L 160.460938 149.8125 L 186.695312 149.996094 L 185.976562 138.878906 L 186.695312 99.011719 Z M 132.566406 29.847656 L 129.804688 63.304688 L 132.566406 76.433594 L 129.804688 79.769531 L 132.566406 84.460938 L 129.804688 89.566406 L 137.289062 97.542969 L 137.289062 15.644531 L 127.046875 17.210938 Z M 148.199219 280.109375 L 166.914062 284.917969 L 157.324219 289.488281 L 165.40625 297.6875 L 154.179688 297.6875 L 166.46875 310.027344 L 176.792969 308.359375 L 185.085938 292.320312 L 186.695312 280.101562 L 163.375 278.8125 Z M 148.199219 280.109375 "/><path style=" stroke:none;fill-rule:nonzero;fill:#000000;fill-opacity:1;" d="M 280.589844 3.546875 L 225.003906 3.546875 L 214.179688 14.375 L 203.105469 14.375 L 202.074219 14.386719 L 201.757812 15.367188 C 201.726562 15.445312 199.734375 21.019531 189.519531 24.476562 L 189.519531 22.921875 C 189.519531 18.253906 185.714844 14.453125 181.046875 14.453125 L 159.339844 14.453125 C 154.671875 14.453125 150.867188 18.253906 150.867188 22.921875 L 150.867188 24.476562 C 140.652344 21.027344 138.660156 15.453125 138.636719 15.378906 L 138.332031 14.375 L 126.207031 14.375 L 115.382812 3.546875 L 59.796875 3.546875 L 48.140625 15.210938 L 48.140625 98.003906 L 59.796875 109.660156 L 115.382812 109.660156 L 126.207031 98.832031 L 137.28125 98.832031 L 138.3125 98.816406 L 138.636719 97.839844 C 138.652344 97.789062 139.589844 95.164062 143.433594 92.410156 L 146.691406 97.980469 L 146.691406 129.847656 C 146.691406 133.089844 147.832031 136.0625 149.71875 138.414062 L 147.242188 142.9375 C 146.269531 144.703125 146.304688 146.796875 147.335938 148.527344 C 148.363281 150.265625 150.179688 151.296875 152.195312 151.296875 L 152.804688 151.296875 L 152.804688 277.273438 L 151.664062 277.273438 C 148.839844 277.273438 146.539062 279.570312 146.539062 282.394531 L 146.539062 287.203125 C 146.539062 290.027344 148.839844 292.324219 151.664062 292.324219 L 152.65625 292.324219 L 152.65625 300.066406 C 152.65625 306.210938 157.648438 311.203125 163.785156 311.203125 L 176.792969 311.203125 C 182.929688 311.203125 187.921875 306.210938 187.921875 300.066406 L 187.921875 292.324219 L 188.914062 292.324219 C 191.738281 292.324219 194.039062 290.027344 194.039062 287.203125 L 194.039062 282.394531 C 194.039062 279.570312 191.738281 277.273438 188.914062 277.273438 L 187.921875 277.273438 L 187.921875 151.296875 L 188.53125 151.296875 C 190.546875 151.296875 192.363281 150.265625 193.390625 148.527344 C 194.421875 146.796875 194.457031 144.703125 193.484375 142.9375 L 191.007812 138.414062 C 192.894531 136.0625 194.039062 133.089844 194.039062 129.847656 L 194.039062 97.398438 L 196.953125 92.410156 C 200.796875 95.164062 201.734375 97.78125 201.75 97.824219 L 202.054688 98.832031 L 214.179688 98.832031 L 225.003906 109.660156 L 280.589844 109.660156 L 292.246094 98.003906 L 292.246094 15.210938 Z M 123.113281 15.296875 L 115.3125 18.53125 L 112.0625 15.273438 L 115.296875 7.46875 Z M 121.179688 23.410156 L 118.785156 40.253906 L 121.179688 54.875 L 118.785156 57.648438 L 123.113281 59.132812 L 118.402344 63.757812 L 122.292969 69.128906 L 121.554688 89.765625 L 116.402344 92.058594 L 116.410156 92.0625 L 116.394531 92.058594 L 116.394531 21.148438 L 116.417969 21.140625 L 116.394531 21.15625 Z M 95.636719 22.21875 L 80.503906 48.398438 L 98.226562 55.910156 L 78.242188 56.605469 L 98.226562 68.757812 L 81.804688 73.199219 L 90.828125 86.0625 L 65.378906 96.179688 L 65.394531 96.179688 L 65.378906 96.179688 L 61.621094 92.417969 L 61.621094 20.792969 L 65.378906 17.027344 L 65.464844 17.027344 L 65.378906 17.027344 Z M 112.671875 6.386719 L 109.4375 14.1875 L 65.742188 14.1875 L 62.507812 6.386719 Z M 59.890625 7.46875 L 63.117188 15.273438 L 59.867188 18.53125 L 52.0625 15.296875 Z M 50.980469 17.921875 L 58.78125 21.148438 L 58.78125 92.058594 L 50.980469 95.292969 Z M 52.0625 97.910156 L 59.867188 94.675781 L 63.117188 97.929688 L 59.890625 105.734375 Z M 62.507812 106.820312 L 65.742188 99.015625 L 109.4375 99.015625 L 112.671875 106.820312 Z M 115.296875 105.734375 L 112.0625 97.929688 L 115.3125 94.675781 L 123.113281 97.910156 Z M 135.863281 95.996094 L 127.039062 95.996094 L 127.039062 17.210938 L 135.863281 17.210938 Z M 153.707031 22.921875 C 153.707031 19.816406 156.230469 17.289062 159.339844 17.289062 L 164.773438 17.289062 C 164.773438 17.289062 164.765625 17.289062 164.765625 17.289062 L 179.351562 20.164062 L 180.742188 26.460938 C 177.679688 26.886719 174.195312 27.144531 170.199219 27.144531 C 163.347656 27.144531 157.957031 26.414062 153.714844 25.320312 L 153.714844 22.921875 Z M 138.699219 92.71875 L 138.699219 20.488281 C 141.636719 23.632812 147.503906 27.617188 158.914062 29.242188 C 158.90625 29.242188 158.898438 29.242188 158.898438 29.242188 C 158.898438 29.242188 172.265625 38.410156 183.644531 40.628906 C 183.644531 40.628906 173.265625 43.128906 165.410156 43.128906 C 165.410156 43.128906 169.726562 52.007812 171.273438 60.613281 L 185.089844 59.222656 L 168.9375 66.722656 L 186.6875 66.722656 C 186.6875 66.722656 180.421875 81.375 165.792969 83.332031 C 164.675781 83.386719 163.601562 83.457031 162.558594 83.550781 C 162.539062 83.550781 162.515625 83.550781 162.515625 83.550781 C 162.523438 83.550781 162.53125 83.550781 162.539062 83.550781 C 148.71875 84.777344 141.9375 89.261719 138.699219 92.71875 Z M 145.839844 90.90625 C 150.511719 88.347656 158.074219 86.0625 170.191406 86.0625 C 182.3125 86.0625 189.875 88.347656 194.546875 90.90625 L 173.527344 89.765625 L 180.992188 92.722656 L 148.929688 96.1875 Z M 161.964844 209.152344 L 181.460938 207.46875 L 175.167969 203.339844 L 182.082031 194.5 C 183.089844 194.664062 184.089844 194.804688 185.085938 194.898438 L 185.085938 212.945312 C 176.125 213.300781 166.617188 210.660156 161.964844 209.152344 Z M 183.75 233.3125 C 183.695312 233.3125 183.636719 233.3125 183.582031 233.3125 Z M 185.085938 151.296875 L 161.964844 157.375 L 177.246094 158.609375 L 159.921875 168.71875 C 159.921875 168.71875 159.925781 168.71875 159.925781 168.71875 C 158.539062 169.109375 157.105469 169.492188 155.644531 169.855469 L 155.644531 151.296875 Z M 185.085938 162.300781 L 185.085938 169.855469 L 173.308594 172.492188 L 173.308594 177.175781 L 181.464844 182.214844 L 165.410156 180.546875 L 185.089844 192.054688 C 173.316406 190.839844 159.003906 183.667969 155.648438 181.914062 L 155.648438 172.785156 C 169.683594 169.351562 180.6875 164.425781 185.085938 162.300781 Z M 175.171875 192.925781 C 175.171875 192.925781 175.167969 192.925781 175.171875 192.925781 C 172.570312 196.457031 165.582031 204.929688 155.644531 209.25 L 155.644531 185.109375 C 157.410156 186 160.175781 187.34375 163.511719 188.753906 L 158.65625 200.253906 C 158.65625 200.246094 166.703125 198.089844 175.171875 192.925781 Z M 158.621094 211.003906 C 160.160156 211.570312 164.398438 213.058594 169.804688 214.230469 C 168.824219 214.058594 167.851562 213.839844 166.914062 213.550781 C 166.914062 213.550781 173.925781 220.464844 180.308594 222.15625 C 180.308594 222.15625 171.109375 222.175781 163.375 219.125 C 163.375 219.125 171.675781 227.730469 177.246094 228.84375 L 171.925781 232.222656 C 163.460938 230.640625 157.472656 227.800781 155.648438 226.714844 L 155.648438 212.328125 C 156.664062 211.925781 157.65625 211.476562 158.621094 211.003906 Z M 183.714844 236.152344 C 184.164062 236.152344 184.628906 236.132812 185.085938 236.125 C 185.0625 236.132812 172.25 240.5 163.375 242.167969 C 163.375 242.167969 170.847656 245.21875 177.246094 244.113281 C 177.246094 244.113281 172.988281 250.023438 166.886719 251.355469 C 166.40625 251.433594 165.914062 251.511719 165.417969 251.582031 C 165.410156 251.582031 165.410156 251.582031 165.40625 251.582031 C 165.40625 251.582031 165.410156 251.582031 165.410156 251.582031 C 162.398438 252.007812 159.125 252.25 155.644531 252.171875 L 155.644531 229.886719 C 160.125 232.121094 170.511719 236.152344 183.714844 236.152344 Z M 156.949219 255.03125 C 170.625 255.03125 180.820312 250.667969 185.085938 248.46875 L 185.085938 252.683594 L 173.308594 256.328125 L 170.191406 259.664062 L 181.464844 259.664062 L 170.191406 263.273438 L 185.085938 268.625 C 172.71875 269.402344 159.253906 265.375 155.644531 264.195312 L 155.644531 255.007812 C 156.074219 255.007812 156.523438 255.03125 156.949219 255.03125 Z M 163.453125 269.28125 C 163.425781 269.277344 163.398438 269.277344 163.375 269.269531 L 175.03125 274.378906 L 168.746094 277.277344 L 155.636719 277.277344 L 155.636719 267.175781 C 157.34375 267.707031 160.082031 268.511719 163.453125 269.28125 Z M 148.925781 96.179688 L 148.9375 96.179688 Z M 149.527344 129.847656 L 149.527344 99.015625 L 161.964844 99.015625 L 182.53125 106.820312 L 173.519531 113.914062 C 173.519531 113.914062 177.804688 122.058594 178.367188 132.792969 C 178.367188 132.792969 173.117188 140.503906 161.964844 140.503906 C 161.964844 140.503906 162.324219 140.582031 162.941406 140.691406 L 160.367188 140.691406 C 154.394531 140.691406 149.527344 135.824219 149.527344 129.847656 Z M 152.195312 148.457031 C 151.1875 148.457031 150.285156 147.945312 149.777344 147.082031 C 149.265625 146.222656 149.25 145.179688 149.726562 144.300781 L 151.8125 140.503906 C 154.160156 142.390625 157.132812 143.527344 160.367188 143.527344 L 170.199219 143.527344 L 180.984375 145.839844 L 173.535156 148.457031 Z M 151.664062 289.488281 C 150.398438 289.488281 149.378906 288.460938 149.378906 287.203125 L 149.378906 282.394531 C 149.378906 281.128906 150.398438 280.109375 151.664062 280.109375 L 153.941406 280.109375 L 183.921875 284.796875 L 176.097656 289.488281 Z M 155.492188 300.066406 L 155.492188 292.324219 L 166.914062 292.324219 L 170.285156 298.25 L 179.75 300.351562 L 163.367188 303.25 L 168.917969 308.375 L 163.78125 308.375 C 159.210938 308.367188 155.492188 304.640625 155.492188 300.066406 Z M 194.542969 90.921875 L 194.546875 90.902344 Z M 288.324219 15.296875 L 280.519531 18.53125 L 277.269531 15.273438 L 280.496094 7.46875 Z M 288.324219 25.773438 L 285.335938 80.621094 L 289.144531 95.179688 L 281.605469 92.058594 L 281.605469 21.148438 L 281.632812 21.140625 L 281.609375 21.15625 Z M 267.480469 28.691406 L 246.105469 33.960938 L 267.480469 38.679688 L 252.792969 45.339844 L 244.4375 79.210938 L 263.589844 82.820312 L 230.589844 96.179688 L 226.828125 92.417969 L 226.828125 20.792969 L 230.589844 17.027344 L 230.671875 17.027344 L 230.589844 17.027344 Z M 230.601562 96.179688 L 230.589844 96.179688 Z M 230.949219 99.015625 L 274.644531 99.015625 L 270.8125 102.917969 L 227.714844 106.820312 Z M 277.878906 6.386719 L 274.644531 14.1875 L 230.949219 14.1875 L 227.714844 6.386719 Z M 225.089844 7.46875 L 228.324219 15.273438 L 225.074219 18.53125 L 217.273438 15.296875 Z M 204.523438 17.210938 L 204.542969 17.210938 L 204.523438 17.210938 L 210.730469 27.144531 L 208.523438 58.949219 L 211.957031 65.332031 L 207.652344 66.972656 L 211.957031 74.222656 L 204.523438 96 L 204.53125 96 L 204.523438 96 Z M 216.1875 17.921875 L 223.992188 21.148438 L 223.992188 92.058594 L 216.1875 95.285156 Z M 217.273438 97.910156 L 225.074219 94.675781 L 228.324219 97.929688 L 225.089844 105.734375 Z M 227.714844 106.820312 L 227.734375 106.820312 Z M 280.496094 105.734375 L 277.269531 97.929688 L 280.519531 94.675781 L 288.324219 97.910156 Z M 280.496094 105.734375 "/><g style="fill:#ffffff;fill-opacity:1;"><g transform="translate(315.766795, 234.275387)"><path style="stroke:none" d="M 78.609375 -134.390625 L 100.796875 -134.390625 C 103.035156 -134.390625 104.15625 -133.269531 104.15625 -131.03125 L 104.15625 -3.359375 C 104.15625 -1.117188 103.035156 0 100.796875 0 L 85.171875 0 C 82.929688 0 81.8125 -1.117188 81.8125 -3.359375 L 81.8125 -78.953125 L 80.625 -78.953125 L 64 -3.03125 C 63.550781 -1.007812 62.320312 0 60.3125 0 L 52.078125 0 C 50.171875 0 48.9375 -1.007812 48.375 -3.03125 L 31.75 -78.953125 L 30.578125 -78.953125 L 30.578125 -3.359375 C 30.578125 -1.117188 29.457031 0 27.21875 0 L 11.765625 0 C 9.523438 0 8.40625 -1.117188 8.40625 -3.359375 L 8.40625 -131.03125 C 8.40625 -133.269531 9.523438 -134.390625 11.765625 -134.390625 L 33.9375 -134.390625 C 35.945312 -134.390625 37.175781 -133.378906 37.625 -131.359375 L 56.28125 -47.703125 L 74.921875 -131.359375 C 75.484375 -133.378906 76.710938 -134.390625 78.609375 -134.390625 Z M 78.609375 -134.390625 "/></g></g><g style="fill:#ffffff;fill-opacity:1;"><g transform="translate(428.311076, 234.275387)"><path style="stroke:none" d="M 52.75 -28.890625 L 52.75 -114.90625 C 52.75 -116.695312 53.644531 -117.59375 55.4375 -117.59375 L 72.90625 -117.59375 C 74.695312 -117.59375 75.59375 -116.695312 75.59375 -114.90625 L 75.59375 -24.1875 C 75.59375 -16.351562 73.519531 -10.363281 69.375 -6.21875 C 65.226562 -2.070312 59.238281 0 51.40625 0 L 32.59375 0 C 24.75 0 18.753906 -2.070312 14.609375 -6.21875 C 10.472656 -10.363281 8.40625 -16.351562 8.40625 -24.1875 L 8.40625 -41.65625 C 8.40625 -43.445312 9.300781 -44.34375 11.09375 -44.34375 L 27.890625 -44.34375 C 29.679688 -44.34375 30.578125 -43.445312 30.578125 -41.65625 L 30.578125 -28.890625 C 30.578125 -24.410156 32.816406 -22.171875 37.296875 -22.171875 L 46.03125 -22.171875 C 50.507812 -22.171875 52.75 -24.410156 52.75 -28.890625 Z M 52.75 -28.890625 "/></g></g><g style="fill:#ffffff;fill-opacity:1;"><g transform="translate(512.299352, 234.275387)"><path style="stroke:none" d="M 8.40625 -24.1875 L 8.40625 -93.40625 C 8.40625 -101.351562 10.472656 -107.367188 14.609375 -111.453125 C 18.753906 -115.546875 24.75 -117.59375 32.59375 -117.59375 L 51.40625 -117.59375 C 59.351562 -117.59375 65.367188 -115.546875 69.453125 -111.453125 C 73.546875 -107.367188 75.59375 -101.351562 75.59375 -93.40625 L 75.59375 -24.1875 C 75.59375 -16.351562 73.546875 -10.363281 69.453125 -6.21875 C 65.367188 -2.070312 59.351562 0 51.40625 0 L 32.59375 0 C 24.75 0 18.753906 -2.070312 14.609375 -6.21875 C 10.472656 -10.363281 8.40625 -16.351562 8.40625 -24.1875 Z M 36.953125 -21.671875 L 47.703125 -21.671875 C 52.179688 -21.671875 54.421875 -23.910156 54.421875 -28.390625 L 54.421875 -89.203125 C 54.421875 -93.679688 52.179688 -95.921875 47.703125 -95.921875 L 36.953125 -95.921875 C 32.472656 -95.921875 30.234375 -93.679688 30.234375 -89.203125 L 30.234375 -28.390625 C 30.234375 -23.910156 32.472656 -21.671875 36.953125 -21.671875 Z M 36.953125 -21.671875 "/></g></g><g style="fill:#ffffff;fill-opacity:1;"><g transform="translate(596.287627, 234.275387)"><path style="stroke:none" d="M 31.25 -22.171875 L 31.25 -114.90625 C 31.25 -116.695312 30.351562 -117.59375 28.5625 -117.59375 L 11.09375 -117.59375 C 9.300781 -117.59375 8.40625 -116.695312 8.40625 -114.90625 L 8.40625 -2.6875 C 8.40625 -0.894531 9.300781 0 11.09375 0 L 64.5 0 C 66.289062 0 67.1875 -0.894531 67.1875 -2.6875 L 67.1875 -19.484375 C 67.1875 -21.273438 66.289062 -22.171875 64.5 -22.171875 Z M 31.25 -22.171875 "/></g></g><g style="fill:#ffffff;fill-opacity:1;"><g transform="translate(671.877062, 234.275387)"><path style="stroke:none" d="M 61.65625 -117.59375 L 77.4375 -117.59375 C 79.226562 -117.59375 80.125 -116.695312 80.125 -114.90625 L 80.125 -2.6875 C 80.125 -0.894531 79.226562 0 77.4375 0 L 64.171875 0 C 62.828125 0 61.816406 -0.726562 61.140625 -2.1875 L 29.5625 -66.359375 L 29.5625 -2.6875 C 29.5625 -0.894531 28.664062 0 26.875 0 L 11.09375 0 C 9.300781 0 8.40625 -0.894531 8.40625 -2.6875 L 8.40625 -114.90625 C 8.40625 -116.695312 9.300781 -117.59375 11.09375 -117.59375 L 24.359375 -117.59375 C 25.703125 -117.59375 26.707031 -116.863281 27.375 -115.40625 L 58.96875 -51.234375 L 58.96875 -114.90625 C 58.96875 -116.695312 59.863281 -117.59375 61.65625 -117.59375 Z M 61.65625 -117.59375 "/></g></g><g style="fill:#ffffff;fill-opacity:1;"><g transform="translate(760.400722, 234.275387)"><path style="stroke:none" d="M 11.09375 0 L 28.5625 0 C 30.351562 0 31.25 -0.894531 31.25 -2.6875 L 31.25 -114.90625 C 31.25 -116.695312 30.351562 -117.59375 28.5625 -117.59375 L 11.09375 -117.59375 C 9.300781 -117.59375 8.40625 -116.695312 8.40625 -114.90625 L 8.40625 -2.6875 C 8.40625 -0.894531 9.300781 0 11.09375 0 Z M 11.09375 0 "/></g></g><g style="fill:#ffffff;fill-opacity:1;"><g transform="translate(800.04319, 234.275387)"><path style="stroke:none" d="M 75.59375 -93.40625 L 75.59375 -59.640625 C 75.59375 -49.890625 72.457031 -43.054688 66.1875 -39.140625 L 74.921875 -3.03125 C 75.484375 -1.007812 74.695312 0 72.5625 0 L 56.109375 0 C 54.535156 0 53.582031 -0.785156 53.25 -2.359375 L 45.1875 -35.4375 L 30.234375 -35.4375 L 30.234375 -2.6875 C 30.234375 -0.894531 29.335938 0 27.546875 0 L 11.09375 0 C 9.300781 0 8.40625 -0.894531 8.40625 -2.6875 L 8.40625 -114.90625 C 8.40625 -116.695312 9.300781 -117.59375 11.09375 -117.59375 L 51.40625 -117.59375 C 59.351562 -117.59375 65.367188 -115.546875 69.453125 -111.453125 C 73.546875 -107.367188 75.59375 -101.351562 75.59375 -93.40625 Z M 30.234375 -57.109375 L 47.03125 -57.109375 C 51.507812 -57.109375 53.75 -59.347656 53.75 -63.828125 L 53.75 -89.203125 C 53.75 -93.679688 51.507812 -95.921875 47.03125 -95.921875 L 30.234375 -95.921875 Z M 30.234375 -57.109375 "/></g></g><g style="fill:#ffffff;fill-opacity:1;"><g transform="translate(884.031466, 234.275387)"><path style="stroke:none" d="M 56.609375 -68.53125 L 83.3125 -4.03125 C 83.875 -2.914062 83.929688 -1.960938 83.484375 -1.171875 C 83.035156 -0.390625 82.140625 0 80.796875 0 L 63.5 0 C 61.59375 0 60.304688 -0.785156 59.640625 -2.359375 L 43.515625 -43 L 27.375 -2.359375 C 26.707031 -0.785156 25.421875 0 23.515625 0 L 6.21875 0 C 4.875 0 4.003906 -0.390625 3.609375 -1.171875 C 3.222656 -1.960938 3.253906 -2.914062 3.703125 -4.03125 L 30.234375 -68.53125 L 4.703125 -130.359375 C 4.253906 -131.585938 4.222656 -132.566406 4.609375 -133.296875 C 5.003906 -134.023438 5.875 -134.390625 7.21875 -134.390625 L 24.015625 -134.390625 C 25.921875 -134.390625 27.210938 -133.601562 27.890625 -132.03125 L 43.515625 -92.21875 L 59.125 -132.03125 C 59.800781 -133.601562 61.09375 -134.390625 63 -134.390625 L 79.796875 -134.390625 C 81.140625 -134.390625 82.035156 -134.023438 82.484375 -133.296875 C 82.929688 -132.566406 82.875 -131.585938 82.3125 -130.359375 Z M 56.609375 -68.53125 "/></g></g></g></svg>