<svg width="48" height="42" viewBox="0 0 48 42" fill="none" xmlns="http://www.w3.org/2000/svg">
<g clip-path="url(#clip0_365_255)">
<path d="M23.9999 2.625C17.2665 2.625 11.8749 5.64375 7.94987 9.23672C4.04987 12.7969 1.44154 17.0625 0.208203 19.991C-0.0667969 20.6391 -0.0667969 21.3609 0.208203 22.009C1.44154 24.9375 4.04987 29.2031 7.94987 32.7633C11.8749 36.3563 17.2665 39.375 23.9999 39.375C30.7332 39.375 36.1249 36.3563 40.0499 32.7633C43.9499 29.1949 46.5582 24.9375 47.7999 22.009C48.0749 21.3609 48.0749 20.6391 47.7999 19.991C46.5582 17.0625 43.9499 12.7969 40.0499 9.23672C36.1249 5.64375 30.7332 2.625 23.9999 2.625ZM11.9999 21C11.9999 17.8671 13.2642 14.8626 15.5146 12.6473C17.765 10.432 20.8173 9.1875 23.9999 9.1875C27.1825 9.1875 30.2347 10.432 32.4852 12.6473C34.7356 14.8626 35.9999 17.8671 35.9999 21C35.9999 24.1329 34.7356 27.1374 32.4852 29.3527C30.2347 31.568 27.1825 32.8125 23.9999 32.8125C20.8173 32.8125 17.765 31.568 15.5146 29.3527C13.2642 27.1374 11.9999 24.1329 11.9999 21ZM23.9999 15.75C23.9999 18.6457 21.6082 21 18.6665 21C18.0749 21 17.5082 20.9016 16.9749 20.7293C16.5165 20.5816 15.9832 20.8605 15.9999 21.3363C16.0249 21.9023 16.1082 22.4684 16.2665 23.0344C17.4082 27.2344 21.7999 29.7281 26.0665 28.6043C30.3332 27.4805 32.8665 23.1574 31.7249 18.9574C30.7999 15.5531 27.7415 13.2645 24.3415 13.125C23.8582 13.1086 23.5749 13.6254 23.7249 14.0848C23.8999 14.6098 23.9999 15.1676 23.9999 15.75Z" fill="#F76B8A"/>
</g>
<defs>
<clipPath id="clip0_365_255">
<rect width="48" height="42" fill="white"/>
</clipPath>
</defs>
</svg>
