<svg width="50" height="50" viewBox="0 0 50 50" fill="none" xmlns="http://www.w3.org/2000/svg">
<path d="M7.0314 8.65381C5.93164 8.65381 4.87693 9.08435 4.09929 9.85073C3.32164 10.6171 2.88477 11.6565 2.88477 12.7403V31.8109C2.88477 32.8947 3.32164 33.9341 4.09929 34.7005C4.87693 35.4669 5.93164 35.8974 7.0314 35.8974H37.4401C38.5398 35.8974 39.5945 35.4669 40.3722 34.7005C41.1498 33.9341 41.5867 32.8947 41.5867 31.8109V12.7403C41.5867 11.6565 41.1498 10.6171 40.3722 9.85073C39.5945 9.08435 38.5398 8.65381 37.4401 8.65381H7.0314ZM13.9425 11.3782V14.1025C13.9425 15.5476 13.36 16.9335 12.3231 17.9554C11.2862 18.9772 9.87995 19.5512 8.41361 19.5512H5.64919V16.8269H8.41361C9.14678 16.8269 9.84992 16.5399 10.3684 16.0289C10.8868 15.518 11.178 14.8251 11.178 14.1025V11.3782H13.9425ZM22.2357 27.0432C20.9527 27.0432 19.7222 26.5409 18.8149 25.6468C17.9077 24.7527 17.398 23.5401 17.398 22.2756C17.398 21.0111 17.9077 19.7985 18.8149 18.9044C19.7222 18.0103 20.9527 17.508 22.2357 17.508C23.5188 17.508 24.7493 18.0103 25.6565 18.9044C26.5638 19.7985 27.0735 21.0111 27.0735 22.2756C27.0735 23.5401 26.5638 24.7527 25.6565 25.6468C24.7493 26.5409 23.5188 27.0432 22.2357 27.0432ZM5.64919 27.7243V25H8.41361C9.87995 25 11.2862 25.574 12.3231 26.5959C13.36 27.6177 13.9425 29.0036 13.9425 30.4487V33.173H11.178V30.4487C11.178 29.7261 10.8868 29.0332 10.3684 28.5223C9.84992 28.0114 9.14678 27.7243 8.41361 27.7243H5.64919ZM36.0578 27.7243C35.3247 27.7243 34.6215 28.0114 34.1031 28.5223C33.5847 29.0332 33.2934 29.7261 33.2934 30.4487V33.173H30.529V30.4487C30.529 29.0036 31.1115 27.6177 32.1484 26.5959C33.1852 25.574 34.5915 25 36.0578 25H38.8223V27.7243H36.0578ZM36.0578 16.8269H38.8223V19.5512H36.0578C34.5915 19.5512 33.1852 18.9772 32.1484 17.9554C31.1115 16.9335 30.529 15.5476 30.529 14.1025V11.3782H33.2934V14.1025C33.2934 14.8251 33.5847 15.518 34.1031 16.0289C34.6215 16.5399 35.3247 16.8269 36.0578 16.8269ZM44.3511 31.8109C44.3511 33.6172 43.623 35.3496 42.3269 36.6269C41.0308 37.9042 39.273 38.6218 37.4401 38.6218H8.64859C8.93455 39.4188 9.46432 40.1089 10.1649 40.5968C10.8655 41.0848 11.7024 41.3466 12.5602 41.3461H37.4401C40.0062 41.3461 42.4672 40.3415 44.2817 38.5533C46.0962 36.7651 47.1155 34.3398 47.1155 31.8109V18.1891C47.116 17.3436 46.8503 16.5189 46.3552 15.8284C45.8601 15.138 45.1599 14.6159 44.3511 14.3341V31.8109Z" fill="#F76B8A"/>
</svg>
