<svg width="48" height="48" viewBox="0 0 48 48" fill="none" xmlns="http://www.w3.org/2000/svg">
<path d="M21.1069 31.752C21.8103 32.4838 22.7283 32.8198 23.861 32.7599C24.9969 32.6983 25.8348 32.2814 26.3747 31.5091L38.6397 13.7271L21.4594 26.3946C20.6876 26.9353 20.2527 27.7732 20.1547 28.9081C20.0582 30.0431 20.3764 30.9919 21.1093 31.7544M7.90134 41C7.46566 41 7.06733 40.8859 6.70635 40.6576C6.34536 40.4277 6.04039 40.1152 5.79143 39.7201C4.87029 38.0671 4.17477 36.3193 3.70486 34.4769C3.23495 32.636 3 30.7628 3 28.8571C3 25.8409 3.55237 23.0027 4.65712 20.3426C5.76187 17.6825 7.26105 15.3697 9.15468 13.4041C11.0452 11.4338 13.2679 9.87381 15.8228 8.72429C18.3793 7.57476 21.1069 7 24.0057 7C26.8968 7 29.608 7.56505 32.1396 8.69514C34.6712 9.82524 36.89 11.3641 38.7961 13.3119C40.7022 15.2596 42.2099 17.54 43.3193 20.1531C44.4288 22.7679 44.9889 25.5786 44.9998 28.5851C45.0076 30.5928 44.7789 32.5437 44.3136 34.438C43.8468 36.3274 43.1443 38.1505 42.206 39.9071C41.9882 40.3022 41.691 40.5831 41.3145 40.7499C40.9395 40.9166 40.5334 41 40.0961 41H7.90134Z" fill="#F76B8A"/>
</svg>
