<svg width="48" height="48" viewBox="0 0 48 48" fill="none" xmlns="http://www.w3.org/2000/svg">
<path d="M30.0009 8C33.1654 8 36.2589 8.93838 38.8901 10.6965C41.5212 12.4546 43.572 14.9534 44.783 17.8771C45.994 20.8007 46.3109 24.0177 45.6935 27.1214C45.0761 30.2251 43.5523 33.0761 41.3146 35.3137C39.077 37.5513 36.2261 39.0752 33.1224 39.6926C30.0187 40.3099 26.8016 39.9931 23.878 38.7821C20.9544 37.5711 18.4555 35.5203 16.6974 32.8891C14.9393 30.2579 14.0009 27.1645 14.0009 24C14.0009 19.7565 15.6866 15.6869 18.6872 12.6863C21.6878 9.68571 25.7575 8 30.0009 8ZM6.00094 24C6.00377 26.4792 6.77441 28.8967 8.20693 30.9201C9.63945 32.9435 11.6635 34.4736 14.0009 35.3V39.48C10.577 38.5851 7.54628 36.5802 5.38325 33.7792C3.22021 30.9781 2.04687 27.539 2.04688 24C2.04687 20.461 3.22021 17.0219 5.38325 14.2208C7.54628 11.4198 10.577 9.41491 14.0009 8.52V12.7C11.6635 13.5264 9.63945 15.0565 8.20693 17.0799C6.77441 19.1033 6.00377 21.5208 6.00094 24Z" fill="#F76B8A"/>
</svg>
