<svg width="26" height="26" viewBox="0 0 26 26" fill="none" xmlns="http://www.w3.org/2000/svg">
<path d="M21.9993 4.66212C20.3526 3.88733 18.5697 3.32497 16.7125 3.00006C16.6962 2.99953 16.68 3.00262 16.665 3.00909C16.65 3.01557 16.6367 3.02528 16.6258 3.03755C16.4029 3.44994 16.1429 3.9873 15.9696 4.39969C13.9997 4.09977 11.9964 4.09977 10.0266 4.39969C9.85324 3.9748 9.59323 3.44994 9.35798 3.03755C9.3456 3.01255 9.30846 3.00006 9.27131 3.00006C7.41412 3.32497 5.6436 3.88733 3.9845 4.66212C3.97212 4.66212 3.95974 4.67462 3.94736 4.68712C0.579648 9.77328 -0.348949 14.722 0.109159 19.6207C0.109159 19.6457 0.12154 19.6707 0.146302 19.6832C2.37493 21.3328 4.5169 22.3325 6.6341 22.9948C6.67124 23.0073 6.70839 22.9948 6.72077 22.9698C7.21602 22.2825 7.66175 21.5577 8.04557 20.7954C8.07033 20.7454 8.04557 20.6954 7.99604 20.6829C7.29031 20.408 6.62172 20.0831 5.96551 19.7082C5.91599 19.6832 5.91598 19.6082 5.95313 19.5707C6.08932 19.4707 6.22552 19.3583 6.36171 19.2583C6.38647 19.2333 6.42362 19.2333 6.44838 19.2458C10.7075 21.2078 15.301 21.2078 19.5106 19.2458C19.5354 19.2333 19.5725 19.2333 19.5973 19.2583C19.7335 19.3708 19.8697 19.4707 20.0059 19.5832C20.0554 19.6207 20.0554 19.6957 19.9935 19.7207C19.3497 20.1081 18.6687 20.4205 17.963 20.6954C17.9135 20.7079 17.9011 20.7704 17.9135 20.8079C18.3097 21.5702 18.7554 22.295 19.2383 22.9823C19.2754 22.9948 19.3125 23.0073 19.3497 22.9948C21.4793 22.3325 23.6212 21.3328 25.8499 19.6832C25.8746 19.6707 25.887 19.6457 25.887 19.6207C26.4318 13.9597 24.9832 9.04847 22.0488 4.68712C22.0364 4.67462 22.024 4.66212 21.9993 4.66212ZM8.68939 16.634C7.41412 16.634 6.34933 15.4468 6.34933 13.9847C6.34933 12.5226 7.38936 11.3354 8.68939 11.3354C10.0018 11.3354 11.0418 12.5351 11.0295 13.9847C11.0295 15.4468 9.98943 16.634 8.68939 16.634ZM17.3192 16.634C16.0439 16.634 14.9791 15.4468 14.9791 13.9847C14.9791 12.5226 16.0191 11.3354 17.3192 11.3354C18.6316 11.3354 19.6716 12.5351 19.6592 13.9847C19.6592 15.4468 18.6316 16.634 17.3192 16.634Z" fill="white"/>
</svg>
