<svg width="52" height="52" viewBox="0 0 52 52" fill="none" xmlns="http://www.w3.org/2000/svg">
<path d="M4.64357 32.6577L7.39853 34.0139C9.14773 34.8751 11.484 34.4732 12.8451 33.0774L14.1835 31.7034L17.1087 36.168C18.4926 38.2805 21.2189 38.2676 22.5889 36.1482L28.9937 26.245L36.3291 38.7873C37.7615 41.2384 40.7125 40.8731 41.4727 38.1261L47.3569 16.8575V40.1653C47.3569 44.9447 44.9444 47.3571 40.0948 47.3571H11.9284C7.10254 47.3571 4.64258 44.9674 4.64258 40.1653L4.64357 32.6577ZM4.64357 28.2169V11.8346C4.64357 7.0325 7.10254 4.64282 11.9294 4.64282H40.0948C42.8913 4.64282 44.8781 5.44466 46.0581 7.04141L44.6999 11.6129L38.3802 34.4524L31.7893 23.1792C30.4905 20.9598 27.7356 20.8994 26.3398 23.0574L19.8389 33.1101L17.2295 29.1266C15.9366 27.1527 13.3371 26.9013 11.6899 28.5901L10.01 30.3126C9.84464 30.4818 9.35858 30.566 9.14872 30.4621L6.08589 28.9544L4.64357 28.2169Z" fill="#F76B8A"/>
</svg>
