<svg width="52" height="52" viewBox="0 0 52 52" fill="none" xmlns="http://www.w3.org/2000/svg">
<g clip-path="url(#clip0_365_242)">
<path fill-rule="evenodd" clip-rule="evenodd" d="M24.7931 4.64282C27.1665 4.643 29.4745 5.40671 31.3648 6.81731C33.255 8.22791 34.6236 10.2079 35.2615 12.4548L35.387 12.9413L39.9017 11.8331C40.2317 11.7523 40.5753 11.741 40.9101 11.7999C41.2448 11.8588 41.5631 11.9865 41.8442 12.1747C42.1252 12.3628 42.3626 12.6073 42.5409 12.8919C42.7191 13.1766 42.8342 13.495 42.8785 13.8264L42.9003 14.1349V18.43C44.2614 19.7127 45.3768 21.2255 46.1934 22.8961L46.5265 23.6269H47.7288C48.3202 23.627 48.8909 23.8404 49.3328 24.2266C49.7747 24.6129 50.057 25.1451 50.1262 25.7223L50.1431 26V33.119C50.1432 33.5096 50.0452 33.8941 49.8577 34.2386C49.6703 34.583 49.3993 34.8766 49.0688 35.0934L48.808 35.2405L45.9881 36.6287C44.8337 38.824 43.1615 40.7157 41.1113 42.146L40.486 42.5589V44.9841C40.4859 45.5653 40.2688 46.1263 39.8759 46.5607C39.4829 46.995 38.9415 47.2725 38.3542 47.3405L38.0717 47.3571H30.8288C30.2375 47.357 29.6668 47.1436 29.2249 46.7574C28.783 46.3712 28.5006 45.839 28.4315 45.2617L28.4146 44.9841H26.0003C26.0002 45.5653 25.7831 46.1263 25.3902 46.5607C24.9972 46.995 24.4557 47.2725 23.8685 47.3405L23.586 47.3571H16.3431C15.7518 47.357 15.1811 47.1436 14.7392 46.7574C14.2973 46.3712 14.0149 45.839 13.9457 45.2617L13.9289 44.9841V42.5589C12.1847 41.4629 10.6781 40.0389 9.49567 38.3688C8.31319 36.6987 7.47813 34.8154 7.03848 32.8271C5.61484 32.4107 4.35576 31.5743 3.43166 30.4313C2.50757 29.2883 1.96308 27.8938 1.87191 26.4366L1.85742 26V24.8135C1.8581 24.2086 2.09373 23.6269 2.51616 23.1871C2.93858 22.7473 3.51592 22.4826 4.13022 22.4472C4.74451 22.4117 5.34939 22.6082 5.82127 22.9964C6.29315 23.3846 6.59641 23.9352 6.66909 24.5358L6.68599 24.8135V26C6.68599 26.3512 6.76325 26.6858 6.90328 26.9848C7.27178 24.8484 8.09384 22.8122 9.31594 21.0087C10.538 19.2053 12.1328 17.675 13.9964 16.5174C13.8252 15.0235 13.9767 13.511 14.4411 12.0787C14.9056 10.6463 15.6725 9.32654 16.6916 8.20563C17.7108 7.08472 18.9593 6.18794 20.3554 5.57398C21.7514 4.96003 23.2637 4.64272 24.7931 4.64282ZM35.6574 23.6269C35.0171 23.6269 34.403 23.877 33.9503 24.322C33.4975 24.767 33.2431 25.3706 33.2431 26C33.2431 26.6293 33.4975 27.2329 33.9503 27.6779C34.403 28.123 35.0171 28.373 35.6574 28.373C36.2977 28.373 36.9118 28.123 37.3646 27.6779C37.8173 27.2329 38.0717 26.6293 38.0717 26C38.0717 25.3706 37.8173 24.767 37.3646 24.322C36.9118 23.877 36.2977 23.6269 35.6574 23.6269ZM24.7931 9.38885C23.3308 9.38885 21.9182 9.91068 20.8178 10.8574C19.7174 11.8041 19.0042 13.1112 18.8105 14.5359C19.9805 14.2689 21.1777 14.1343 22.3788 14.1349H30.5319L30.7009 14.0945C30.4146 12.7632 29.6713 11.569 28.5957 10.7123C27.5201 9.85554 26.1776 9.38829 24.7931 9.38885Z" fill="#F76B8A"/>
</g>
<defs>
<clipPath id="clip0_365_242">
<rect width="52" height="52" fill="white"/>
</clipPath>
</defs>
</svg>
