<svg width="52" height="52" viewBox="0 0 52 52" fill="none" xmlns="http://www.w3.org/2000/svg">
<path fill-rule="evenodd" clip-rule="evenodd" d="M6.84543 26H0V40.8571L6.78971 47.6469C8.16945 49.027 9.80758 50.1218 11.6105 50.8687C13.4135 51.6157 15.3459 52.0001 17.2974 52H39C40.4776 52 41.8947 51.413 42.9396 50.3682C43.9844 49.3233 44.5714 47.9062 44.5714 46.4286C44.5714 44.9509 43.9844 43.5338 42.9396 42.489C41.8947 41.4441 40.4776 40.8571 39 40.8571H28.6854C28.2993 42.1592 27.5814 43.3386 26.6021 44.2797C25.6229 45.2208 24.4159 45.8912 23.0994 46.2253C21.783 46.5593 20.4024 46.5456 19.0929 46.1853C17.7834 45.8251 16.59 45.1307 15.6297 44.1703L10.244 38.7846C10.0284 38.569 9.85739 38.313 9.74071 38.0313C9.62403 37.7497 9.56398 37.4478 9.56398 37.1429C9.56398 36.838 9.62403 36.5361 9.74071 36.2544C9.85739 35.9727 10.0284 35.7167 10.244 35.5011C10.4596 35.2855 10.7155 35.1145 10.9972 34.9979C11.2789 34.8812 11.5808 34.8211 11.8857 34.8211C12.1906 34.8211 12.4925 34.8812 12.7742 34.9979C13.0559 35.1145 13.3118 35.2855 13.5274 35.5011L18.9131 40.8869C19.481 41.4517 20.2404 41.7825 21.0408 41.8139C21.8411 41.8452 22.624 41.5747 23.2343 41.056C23.8447 40.5372 24.2378 39.8082 24.3359 39.0132C24.434 38.2183 24.2299 37.4155 23.764 36.764L17.3531 30.3531C15.9734 28.973 14.3353 27.8782 12.5323 27.1313C10.7294 26.3843 8.79696 25.9999 6.84543 26Z" fill="#F76B8A"/>
<path d="M37.9027 15.2499C37.4549 17.041 34.6671 16.131 33.8004 15.8855L34.5949 12.7366C35.4904 12.9966 38.3649 13.3721 37.9027 15.2499ZM33.4104 17.5032L32.5438 20.9843C33.6127 21.2588 36.9204 22.3132 37.4115 20.3488C37.9315 18.2977 34.4793 17.7632 33.4104 17.5032ZM48.6782 20.8254C46.7427 28.5677 38.9138 33.2766 31.1715 31.341C23.4293 29.4055 18.7248 21.5766 20.656 13.8343C21.1148 11.9942 21.9316 10.2626 23.0598 8.73819C24.188 7.21382 25.6054 5.92663 27.2311 4.95013C28.8568 3.97364 30.6589 3.32697 32.5346 3.04706C34.4103 2.76715 36.3227 2.85948 38.1627 3.31878C45.8904 5.25434 50.5993 13.0832 48.6782 20.8254ZM37.8593 11.6243L38.5093 9.02434L36.9204 8.66323L36.2849 11.1621C35.866 11.061 35.4471 10.9599 35.0138 10.8732L35.6493 8.31656L34.0749 7.941L33.4249 10.5266C33.0782 10.4399 32.7315 10.3677 32.4138 10.281L30.2327 9.73212L29.7993 11.4221C29.7993 11.4221 30.9838 11.6966 30.9549 11.711C31.6049 11.8699 31.7204 12.2743 31.6915 12.6354L29.9149 19.7566C29.8427 19.9588 29.6115 20.2188 29.1927 20.1466C29.2071 20.161 28.0371 19.8577 28.0371 19.8577L27.2571 21.6632L29.3082 22.1832C29.6982 22.2843 30.0738 22.3855 30.4493 22.4721L29.7849 25.101L31.3738 25.5054L32.0238 22.891C32.4571 23.0066 32.876 23.1077 33.2804 23.2232L32.6304 25.8088L34.2193 26.2132L34.8838 23.5843C37.556 24.0899 39.6071 23.8877 40.4449 21.4466C41.1671 19.4966 40.4449 18.341 39.0004 17.6043C40.0404 17.3299 40.8204 16.6799 41.0371 15.2643C41.326 13.3432 39.8527 12.3177 37.8593 11.6243Z" fill="#F76B8A"/>
</svg>
