<svg width="26" height="26" viewBox="0 0 26 26" fill="none" xmlns="http://www.w3.org/2000/svg">
<path d="M22.9173 3.32312L2.10923 11.4481C1.96244 11.5062 1.83739 11.6085 1.75143 11.7409C1.66548 11.8733 1.62289 12.0291 1.62959 12.1868C1.63629 12.3445 1.69195 12.4962 1.78882 12.6208C1.8857 12.7455 2.01899 12.8368 2.17016 12.8822L6.09454 14.0278C6.51454 14.1516 6.89764 14.3768 7.21007 14.6835C7.52251 14.9903 7.75467 15.3692 7.8861 15.7869L9.43391 20.6944C9.4806 20.8444 9.56551 20.9797 9.68031 21.087C9.7951 21.1943 9.93583 21.2699 10.0887 21.3064C10.2415 21.3429 10.4012 21.3389 10.5521 21.295C10.703 21.2511 10.8398 21.1687 10.9492 21.0559L13.078 18.8825C13.2459 18.7103 13.4705 18.6047 13.7102 18.5853C13.9499 18.5659 14.1886 18.6339 14.382 18.7769L19.0498 22.2016C19.2007 22.3103 19.3763 22.3798 19.5607 22.4038C19.7451 22.4278 19.9326 22.4055 20.1063 22.339C20.2799 22.2726 20.4343 22.1639 20.5556 22.0229C20.6768 21.8819 20.7611 21.7129 20.8008 21.5312L24.3514 4.54594C24.3927 4.35691 24.382 4.1602 24.3202 3.97682C24.2585 3.79344 24.1481 3.63027 24.0009 3.50473C23.8536 3.37918 23.6751 3.29597 23.4842 3.26399C23.2934 3.23201 23.0975 3.25245 22.9173 3.32312ZM20.3295 6.97937L13.3095 13.1991C12.9114 13.5438 12.6564 14.0248 12.5945 14.5478C12.5804 14.6564 12.5298 14.7571 12.4511 14.8332C12.3723 14.9093 12.27 14.9564 12.161 14.9668C12.0519 14.9772 11.9426 14.9502 11.8509 14.8903C11.7591 14.8304 11.6905 14.7412 11.6561 14.6372L11.3352 13.6094C11.2237 13.2487 11.235 12.8612 11.3673 12.5076C11.4996 12.1539 11.7455 11.8542 12.0664 11.6553L20.0939 6.68281C20.1351 6.66492 20.1812 6.66181 20.2245 6.674C20.2677 6.68619 20.3054 6.71294 20.3312 6.74972C20.357 6.7865 20.3693 6.83106 20.366 6.87587C20.3628 6.92067 20.3441 6.96297 20.3133 6.99562L20.3295 6.97937Z" fill="white"/>
</svg>
